M48
; DRILL file {KiCad (5.1.4)-1} date 6/8/2020 8:02:45 PM
; FORMAT={-:-/ absolute / inch / decimal}
; #@! TF.CreationDate,2020-06-08T20:02:45+05:30
; #@! TF.GenerationSoftware,Kicad,Pcbnew,(5.1.4)-1
FMAT,2
INCH
T1C0.0250
T2C0.0400
T3C0.0600
T4C0.1181
%
G90
G05
T1
X2.945Y-3.615
X2.9475Y-3.6725
X3.005Y-3.615
X3.0075Y-3.6725
X3.2575Y-3.7025
X3.2575Y-3.7775
X3.3Y-3.4
X3.4075Y-3.7025
X3.4075Y-3.7775
X3.45Y-3.4
X3.575Y-3.4
X3.6Y-3.875
X3.675Y-3.4
X3.75Y-3.875
X3.9Y-3.875
X3.92Y-3.3625
X3.9585Y-3.426
X4.05Y-3.875
X4.1625Y-3.495
X4.2Y-3.875
X4.225Y-3.4925
X4.285Y-3.76
X4.2875Y-3.4925
X4.35Y-3.4925
X4.35Y-3.875
X4.5Y-3.875
X4.65Y-1.525
X4.65Y-3.875
X4.655Y-3.3375
X4.695Y-1.8925
X4.725Y-1.525
X4.765Y-2.12
X4.77Y-2.58
X4.77Y-2.6575
X4.77Y-2.72
X4.77Y-2.78
X4.77Y-2.9825
X4.77Y-3.055
X4.7725Y-2.8425
X4.7725Y-2.91
X4.8Y-1.525
X4.8775Y-3.31
X4.9Y-1.905
X4.9045Y-2.0665
X4.9075Y-2.145
X4.9085Y-2.2255
X4.91Y-2.48
X4.9125Y-2.3025
X4.915Y-2.595
X4.9175Y-2.67
X4.97Y-3.3025
X4.98Y-2.595
X4.985Y-2.67
X5.025Y-3.6375
X5.2075Y-3.0025
X5.2625Y-3.0025
X5.3225Y-3.0025
X5.505Y-3.0
X5.5675Y-3.0
X5.63Y-3.0
X5.64Y-3.33
X5.7425Y-2.7225
X5.7775Y-2.1475
X5.7825Y-1.9925
X5.7825Y-2.0725
X5.7825Y-2.2525
X5.8Y-3.0
X5.8Y-3.205
X5.8025Y-2.6525
X5.8025Y-2.72
X5.85Y-3.67
X5.86Y-2.01
X5.86Y-2.08
X5.92Y-3.67
X5.92Y-3.735
X5.9225Y-1.515
X5.9275Y-1.6275
X5.9275Y-1.74
X6.065Y-3.2525
X6.075Y-2.5475
X6.0775Y-2.6175
X6.0825Y-1.92
X6.155Y-1.9175
T2
X4.905Y-3.74
X5.005Y-3.74
X5.105Y-3.74
X5.205Y-3.74
X5.42Y-3.74
X5.52Y-3.74
X5.62Y-3.74
X5.72Y-3.74
X4.965Y-2.85
X4.965Y-3.15
X5.065Y-2.85
X5.065Y-3.15
X5.165Y-2.85
X5.165Y-3.15
X5.265Y-2.85
X5.265Y-3.15
X5.365Y-2.85
X5.365Y-3.15
X5.465Y-2.85
X5.465Y-3.15
X5.565Y-2.85
X5.565Y-3.15
X5.665Y-2.85
X5.665Y-3.15
X3.1125Y-3.5105
X3.1125Y-3.6105
T3
X7.3105Y-2.0625
X7.3105Y-2.2625
X7.3105Y-2.4625
X6.4075Y-2.9575
X6.4862Y-2.7213
X6.4862Y-3.1937
X6.9825Y-2.7213
X6.9825Y-3.1937
X3.5635Y-2.0243
X3.5635Y-2.4967
X4.0598Y-2.0243
X4.0598Y-2.4967
X4.1385Y-2.2605
X3.2265Y-2.0605
X3.2265Y-2.2605
X3.2265Y-2.4605
X7.3145Y-2.7585
X7.3145Y-2.9585
X7.3145Y-3.1585
X6.4025Y-2.2625
X6.4812Y-2.0263
X6.4812Y-2.4987
X6.9775Y-2.0263
X6.9775Y-2.4987
X3.5695Y-2.7143
X3.5695Y-3.1867
X4.0658Y-2.7143
X4.0658Y-3.1867
X4.1445Y-2.9505
X3.2245Y-1.3945
X3.2245Y-1.5945
X3.2245Y-1.7945
X7.3175Y-3.415
X7.3175Y-3.615
X7.3175Y-3.815
X7.3105Y-1.4045
X7.3105Y-1.6045
X7.3105Y-1.8045
X6.4004Y-1.6025
X6.4791Y-1.3663
X6.4791Y-1.8387
X6.9754Y-1.3663
X6.9754Y-1.8387
X6.4075Y-3.6175
X6.4862Y-3.3813
X6.4862Y-3.8537
X6.9825Y-3.3813
X6.9825Y-3.8537
X3.5625Y-1.3613
X3.5625Y-1.8337
X4.0588Y-1.3613
X4.0588Y-1.8337
X4.1375Y-1.5975
X3.2285Y-2.7505
X3.2285Y-2.9505
X3.2285Y-3.1505
T4
X4.815Y-1.35
X5.845Y-1.345
X2.93Y-3.85
T0
M30
