%FSLAX45Y45*%
G04 Gerber Fmt 4.5, Leading zero omitted, Abs format (unit mm)*
G04 Created by KiCad (PCBNEW (5.1.6)-1) date 2020-06-22 15:28:16*
%MOMM*%
%LPD*%
G01*
G04 APERTURE LIST*
%TA.AperFunction,Profile*%
%ADD10C,0.203200*%
%TD*%
%TA.AperFunction,Profile*%
%ADD11C,0.381000*%
%TD*%
%ADD12C,0.200000*%
%ADD13C,0.300000*%
G04 APERTURE END LIST*
D10*
X16046450Y-8826500D02*
X15944850Y-8928100D01*
X16605250Y-8826500D02*
X16046450Y-8826500D01*
X15944850Y-9461500D02*
X16046450Y-9563100D01*
X15944850Y-8928100D02*
X15944850Y-9461500D01*
X16046450Y-9563100D02*
X16605250Y-9563100D01*
X16605250Y-9563100D02*
X16605250Y-9455150D01*
X16046450Y-8978900D02*
X16097250Y-8928100D01*
X16605250Y-9455150D02*
X16097250Y-9455150D01*
X16046450Y-9404350D02*
X16046450Y-8978900D01*
X16097250Y-8928100D02*
X16605250Y-8928100D01*
X16605250Y-8928100D02*
X16605250Y-8826500D01*
X16097250Y-9455150D02*
X16046450Y-9404350D01*
X16033750Y-7150100D02*
X15932150Y-7251700D01*
X16592550Y-7150100D02*
X16033750Y-7150100D01*
X15932150Y-7785100D02*
X16033750Y-7886700D01*
X15932150Y-7251700D02*
X15932150Y-7785100D01*
X16033750Y-7886700D02*
X16592550Y-7886700D01*
X16592550Y-7886700D02*
X16592550Y-7778750D01*
X16033750Y-7302500D02*
X16084550Y-7251700D01*
X16592550Y-7778750D02*
X16084550Y-7778750D01*
X16033750Y-7727950D02*
X16033750Y-7302500D01*
X16084550Y-7251700D02*
X16592550Y-7251700D01*
X16592550Y-7251700D02*
X16592550Y-7150100D01*
X16084550Y-7778750D02*
X16033750Y-7727950D01*
X16027400Y-5397500D02*
X15925800Y-5499100D01*
X16586200Y-5397500D02*
X16027400Y-5397500D01*
X15925800Y-6032500D02*
X16027400Y-6134100D01*
X15925800Y-5499100D02*
X15925800Y-6032500D01*
X16027400Y-6134100D02*
X16586200Y-6134100D01*
X16586200Y-6134100D02*
X16586200Y-6026150D01*
X16027400Y-5549900D02*
X16078200Y-5499100D01*
X16586200Y-6026150D02*
X16078200Y-6026150D01*
X16027400Y-5975350D02*
X16027400Y-5549900D01*
X16078200Y-5499100D02*
X16586200Y-5499100D01*
X16586200Y-5499100D02*
X16586200Y-5397500D01*
X16078200Y-6026150D02*
X16027400Y-5975350D01*
X16027400Y-3702050D02*
X15925800Y-3803650D01*
X16586200Y-3702050D02*
X16027400Y-3702050D01*
X15925800Y-4337050D02*
X16027400Y-4438650D01*
X15925800Y-3803650D02*
X15925800Y-4337050D01*
X16027400Y-4438650D02*
X16586200Y-4438650D01*
X16586200Y-4438650D02*
X16586200Y-4330700D01*
X16027400Y-3854450D02*
X16078200Y-3803650D01*
X16586200Y-4330700D02*
X16078200Y-4330700D01*
X16027400Y-4279900D02*
X16027400Y-3854450D01*
X16078200Y-3803650D02*
X16586200Y-3803650D01*
X16586200Y-3803650D02*
X16586200Y-3702050D01*
X16078200Y-4330700D02*
X16027400Y-4279900D01*
X10737850Y-6108700D02*
X10839450Y-6007100D01*
X10179050Y-6108700D02*
X10737850Y-6108700D01*
X10839450Y-5473700D02*
X10737850Y-5372100D01*
X10839450Y-6007100D02*
X10839450Y-5473700D01*
X10737850Y-5372100D02*
X10179050Y-5372100D01*
X10179050Y-5372100D02*
X10179050Y-5480050D01*
X10737850Y-5956300D02*
X10687050Y-6007100D01*
X10179050Y-5480050D02*
X10687050Y-5480050D01*
X10737850Y-5530850D02*
X10737850Y-5956300D01*
X10687050Y-6007100D02*
X10179050Y-6007100D01*
X10179050Y-6007100D02*
X10179050Y-6108700D01*
X10687050Y-5480050D02*
X10737850Y-5530850D01*
X10769600Y-7874000D02*
X10871200Y-7772400D01*
X10210800Y-7874000D02*
X10769600Y-7874000D01*
X10871200Y-7239000D02*
X10769600Y-7137400D01*
X10871200Y-7772400D02*
X10871200Y-7239000D01*
X10769600Y-7137400D02*
X10210800Y-7137400D01*
X10210800Y-7137400D02*
X10210800Y-7245350D01*
X10769600Y-7721600D02*
X10718800Y-7772400D01*
X10210800Y-7245350D02*
X10718800Y-7245350D01*
X10769600Y-7296150D02*
X10769600Y-7721600D01*
X10718800Y-7772400D02*
X10210800Y-7772400D01*
X10210800Y-7772400D02*
X10210800Y-7874000D01*
X10718800Y-7245350D02*
X10769600Y-7296150D01*
X10737850Y-4425950D02*
X10839450Y-4324350D01*
X10179050Y-4425950D02*
X10737850Y-4425950D01*
X10839450Y-3790950D02*
X10737850Y-3689350D01*
X10839450Y-4324350D02*
X10839450Y-3790950D01*
X10737850Y-3689350D02*
X10179050Y-3689350D01*
X10179050Y-3689350D02*
X10179050Y-3797300D01*
X10737850Y-4273550D02*
X10687050Y-4324350D01*
X10179050Y-3797300D02*
X10687050Y-3797300D01*
X10737850Y-3848100D02*
X10737850Y-4273550D01*
X10687050Y-4324350D02*
X10179050Y-4324350D01*
X10179050Y-4324350D02*
X10179050Y-4425950D01*
X10687050Y-3797300D02*
X10737850Y-3848100D01*
D11*
X7169150Y-3155950D02*
X12534900Y-3155950D01*
X14573250Y-3155950D02*
X19615150Y-3155950D01*
X12534900Y-4533900D02*
X12534900Y-3155950D01*
X14573250Y-4533900D02*
X14573250Y-3155950D01*
X12534900Y-4533900D02*
X14573250Y-4533900D01*
X7169150Y-10579100D02*
X7169150Y-3155950D01*
X19621500Y-10579100D02*
X7169150Y-10579100D01*
X19615150Y-3155950D02*
X19621500Y-10579100D01*
D12*
X14696300Y-3266300D02*
X14996300Y-3566300D01*
X14996300Y-3266300D02*
X14696300Y-3566300D01*
X19223850Y-10149700D02*
X19523850Y-10449700D01*
X19523850Y-10149700D02*
X19223850Y-10449700D01*
X12080100Y-3279000D02*
X12380100Y-3579000D01*
X12380100Y-3279000D02*
X12080100Y-3579000D01*
X7285850Y-10156050D02*
X7585850Y-10456050D01*
X7585850Y-10156050D02*
X7285850Y-10456050D01*
D13*
X7436528Y-11063864D02*
X7436528Y-10763864D01*
X7507957Y-10763864D01*
X7550814Y-10778150D01*
X7579386Y-10806722D01*
X7593671Y-10835293D01*
X7607957Y-10892436D01*
X7607957Y-10935293D01*
X7593671Y-10992436D01*
X7579386Y-11021007D01*
X7550814Y-11049579D01*
X7507957Y-11063864D01*
X7436528Y-11063864D01*
X7736528Y-11063864D02*
X7736528Y-10863864D01*
X7736528Y-10921007D02*
X7750814Y-10892436D01*
X7765100Y-10878150D01*
X7793671Y-10863864D01*
X7822243Y-10863864D01*
X7922243Y-11063864D02*
X7922243Y-10863864D01*
X7922243Y-10763864D02*
X7907957Y-10778150D01*
X7922243Y-10792436D01*
X7936528Y-10778150D01*
X7922243Y-10763864D01*
X7922243Y-10792436D01*
X8107957Y-11063864D02*
X8079386Y-11049579D01*
X8065100Y-11021007D01*
X8065100Y-10763864D01*
X8265100Y-11063864D02*
X8236528Y-11049579D01*
X8222243Y-11021007D01*
X8222243Y-10763864D01*
X8607957Y-11063864D02*
X8607957Y-10763864D01*
X8707957Y-10978150D01*
X8807957Y-10763864D01*
X8807957Y-11063864D01*
X9079386Y-11063864D02*
X9079386Y-10906722D01*
X9065100Y-10878150D01*
X9036528Y-10863864D01*
X8979386Y-10863864D01*
X8950814Y-10878150D01*
X9079386Y-11049579D02*
X9050814Y-11063864D01*
X8979386Y-11063864D01*
X8950814Y-11049579D01*
X8936528Y-11021007D01*
X8936528Y-10992436D01*
X8950814Y-10963864D01*
X8979386Y-10949579D01*
X9050814Y-10949579D01*
X9079386Y-10935293D01*
X9222243Y-10863864D02*
X9222243Y-11163864D01*
X9222243Y-10878150D02*
X9250814Y-10863864D01*
X9307957Y-10863864D01*
X9336528Y-10878150D01*
X9350814Y-10892436D01*
X9365100Y-10921007D01*
X9365100Y-11006722D01*
X9350814Y-11035293D01*
X9336528Y-11049579D01*
X9307957Y-11063864D01*
X9250814Y-11063864D01*
X9222243Y-11049579D01*
X9493671Y-11035293D02*
X9507957Y-11049579D01*
X9493671Y-11063864D01*
X9479386Y-11049579D01*
X9493671Y-11035293D01*
X9493671Y-11063864D01*
X9493671Y-10878150D02*
X9507957Y-10892436D01*
X9493671Y-10906722D01*
X9479386Y-10892436D01*
X9493671Y-10878150D01*
X9493671Y-10906722D01*
X6850100Y-11408150D02*
X7150100Y-11708150D01*
X7150100Y-11408150D02*
X6850100Y-11708150D01*
X7407957Y-11393864D02*
X7593671Y-11393864D01*
X7493671Y-11508150D01*
X7536528Y-11508150D01*
X7565100Y-11522436D01*
X7579386Y-11536721D01*
X7593671Y-11565293D01*
X7593671Y-11636721D01*
X7579386Y-11665293D01*
X7565100Y-11679579D01*
X7536528Y-11693864D01*
X7450814Y-11693864D01*
X7422243Y-11679579D01*
X7407957Y-11665293D01*
X7722243Y-11665293D02*
X7736528Y-11679579D01*
X7722243Y-11693864D01*
X7707957Y-11679579D01*
X7722243Y-11665293D01*
X7722243Y-11693864D01*
X7922243Y-11393864D02*
X7950814Y-11393864D01*
X7979386Y-11408150D01*
X7993671Y-11422436D01*
X8007957Y-11451007D01*
X8022243Y-11508150D01*
X8022243Y-11579579D01*
X8007957Y-11636721D01*
X7993671Y-11665293D01*
X7979386Y-11679579D01*
X7950814Y-11693864D01*
X7922243Y-11693864D01*
X7893671Y-11679579D01*
X7879386Y-11665293D01*
X7865100Y-11636721D01*
X7850814Y-11579579D01*
X7850814Y-11508150D01*
X7865100Y-11451007D01*
X7879386Y-11422436D01*
X7893671Y-11408150D01*
X7922243Y-11393864D01*
X8207957Y-11393864D02*
X8236528Y-11393864D01*
X8265100Y-11408150D01*
X8279386Y-11422436D01*
X8293671Y-11451007D01*
X8307957Y-11508150D01*
X8307957Y-11579579D01*
X8293671Y-11636721D01*
X8279386Y-11665293D01*
X8265100Y-11679579D01*
X8236528Y-11693864D01*
X8207957Y-11693864D01*
X8179386Y-11679579D01*
X8165100Y-11665293D01*
X8150814Y-11636721D01*
X8136528Y-11579579D01*
X8136528Y-11508150D01*
X8150814Y-11451007D01*
X8165100Y-11422436D01*
X8179386Y-11408150D01*
X8207957Y-11393864D01*
X8436528Y-11693864D02*
X8436528Y-11493864D01*
X8436528Y-11522436D02*
X8450814Y-11508150D01*
X8479386Y-11493864D01*
X8522243Y-11493864D01*
X8550814Y-11508150D01*
X8565100Y-11536721D01*
X8565100Y-11693864D01*
X8565100Y-11536721D02*
X8579386Y-11508150D01*
X8607957Y-11493864D01*
X8650814Y-11493864D01*
X8679386Y-11508150D01*
X8693671Y-11536721D01*
X8693671Y-11693864D01*
X8836528Y-11693864D02*
X8836528Y-11493864D01*
X8836528Y-11522436D02*
X8850814Y-11508150D01*
X8879386Y-11493864D01*
X8922243Y-11493864D01*
X8950814Y-11508150D01*
X8965100Y-11536721D01*
X8965100Y-11693864D01*
X8965100Y-11536721D02*
X8979386Y-11508150D01*
X9007957Y-11493864D01*
X9050814Y-11493864D01*
X9079386Y-11508150D01*
X9093671Y-11536721D01*
X9093671Y-11693864D01*
X9679386Y-11379579D02*
X9422243Y-11765293D01*
X10065100Y-11393864D02*
X10093671Y-11393864D01*
X10122243Y-11408150D01*
X10136528Y-11422436D01*
X10150814Y-11451007D01*
X10165100Y-11508150D01*
X10165100Y-11579579D01*
X10150814Y-11636721D01*
X10136528Y-11665293D01*
X10122243Y-11679579D01*
X10093671Y-11693864D01*
X10065100Y-11693864D01*
X10036528Y-11679579D01*
X10022243Y-11665293D01*
X10007957Y-11636721D01*
X9993671Y-11579579D01*
X9993671Y-11508150D01*
X10007957Y-11451007D01*
X10022243Y-11422436D01*
X10036528Y-11408150D01*
X10065100Y-11393864D01*
X10293671Y-11665293D02*
X10307957Y-11679579D01*
X10293671Y-11693864D01*
X10279386Y-11679579D01*
X10293671Y-11665293D01*
X10293671Y-11693864D01*
X10593671Y-11693864D02*
X10422243Y-11693864D01*
X10507957Y-11693864D02*
X10507957Y-11393864D01*
X10479386Y-11436721D01*
X10450814Y-11465293D01*
X10422243Y-11479579D01*
X10879386Y-11693864D02*
X10707957Y-11693864D01*
X10793671Y-11693864D02*
X10793671Y-11393864D01*
X10765100Y-11436721D01*
X10736528Y-11465293D01*
X10707957Y-11479579D01*
X11050814Y-11522436D02*
X11022243Y-11508150D01*
X11007957Y-11493864D01*
X10993671Y-11465293D01*
X10993671Y-11451007D01*
X11007957Y-11422436D01*
X11022243Y-11408150D01*
X11050814Y-11393864D01*
X11107957Y-11393864D01*
X11136528Y-11408150D01*
X11150814Y-11422436D01*
X11165100Y-11451007D01*
X11165100Y-11465293D01*
X11150814Y-11493864D01*
X11136528Y-11508150D01*
X11107957Y-11522436D01*
X11050814Y-11522436D01*
X11022243Y-11536721D01*
X11007957Y-11551007D01*
X10993671Y-11579579D01*
X10993671Y-11636721D01*
X11007957Y-11665293D01*
X11022243Y-11679579D01*
X11050814Y-11693864D01*
X11107957Y-11693864D01*
X11136528Y-11679579D01*
X11150814Y-11665293D01*
X11165100Y-11636721D01*
X11165100Y-11579579D01*
X11150814Y-11551007D01*
X11136528Y-11536721D01*
X11107957Y-11522436D01*
X11279386Y-11393864D02*
X11279386Y-11451007D01*
X11393671Y-11393864D02*
X11393671Y-11451007D01*
X11836528Y-11808150D02*
X11822243Y-11793864D01*
X11793671Y-11751007D01*
X11779386Y-11722436D01*
X11765100Y-11679579D01*
X11750814Y-11608150D01*
X11750814Y-11551007D01*
X11765100Y-11479579D01*
X11779386Y-11436721D01*
X11793671Y-11408150D01*
X11822243Y-11365293D01*
X11836528Y-11351007D01*
X12079386Y-11493864D02*
X12079386Y-11693864D01*
X12007957Y-11379579D02*
X11936528Y-11593864D01*
X12122243Y-11593864D01*
X12465100Y-11693864D02*
X12465100Y-11393864D01*
X12593671Y-11693864D02*
X12593671Y-11536721D01*
X12579386Y-11508150D01*
X12550814Y-11493864D01*
X12507957Y-11493864D01*
X12479386Y-11508150D01*
X12465100Y-11522436D01*
X12779386Y-11693864D02*
X12750814Y-11679579D01*
X12736528Y-11665293D01*
X12722243Y-11636721D01*
X12722243Y-11551007D01*
X12736528Y-11522436D01*
X12750814Y-11508150D01*
X12779386Y-11493864D01*
X12822243Y-11493864D01*
X12850814Y-11508150D01*
X12865100Y-11522436D01*
X12879386Y-11551007D01*
X12879386Y-11636721D01*
X12865100Y-11665293D01*
X12850814Y-11679579D01*
X12822243Y-11693864D01*
X12779386Y-11693864D01*
X13050814Y-11693864D02*
X13022243Y-11679579D01*
X13007957Y-11651007D01*
X13007957Y-11393864D01*
X13279386Y-11679579D02*
X13250814Y-11693864D01*
X13193671Y-11693864D01*
X13165100Y-11679579D01*
X13150814Y-11651007D01*
X13150814Y-11536721D01*
X13165100Y-11508150D01*
X13193671Y-11493864D01*
X13250814Y-11493864D01*
X13279386Y-11508150D01*
X13293671Y-11536721D01*
X13293671Y-11565293D01*
X13150814Y-11593864D01*
X13407957Y-11679579D02*
X13436528Y-11693864D01*
X13493671Y-11693864D01*
X13522243Y-11679579D01*
X13536528Y-11651007D01*
X13536528Y-11636721D01*
X13522243Y-11608150D01*
X13493671Y-11593864D01*
X13450814Y-11593864D01*
X13422243Y-11579579D01*
X13407957Y-11551007D01*
X13407957Y-11536721D01*
X13422243Y-11508150D01*
X13450814Y-11493864D01*
X13493671Y-11493864D01*
X13522243Y-11508150D01*
X13636528Y-11808150D02*
X13650814Y-11793864D01*
X13679386Y-11751007D01*
X13693671Y-11722436D01*
X13707957Y-11679579D01*
X13722243Y-11608150D01*
X13722243Y-11551007D01*
X13707957Y-11479579D01*
X13693671Y-11436721D01*
X13679386Y-11408150D01*
X13650814Y-11365293D01*
X13636528Y-11351007D01*
X14179386Y-11808150D02*
X14165100Y-11793864D01*
X14136528Y-11751007D01*
X14122243Y-11722436D01*
X14107957Y-11679579D01*
X14093671Y-11608150D01*
X14093671Y-11551007D01*
X14107957Y-11479579D01*
X14122243Y-11436721D01*
X14136528Y-11408150D01*
X14165100Y-11365293D01*
X14179386Y-11351007D01*
X14293671Y-11493864D02*
X14293671Y-11693864D01*
X14293671Y-11522436D02*
X14307957Y-11508150D01*
X14336528Y-11493864D01*
X14379386Y-11493864D01*
X14407957Y-11508150D01*
X14422243Y-11536721D01*
X14422243Y-11693864D01*
X14607957Y-11693864D02*
X14579386Y-11679579D01*
X14565100Y-11665293D01*
X14550814Y-11636721D01*
X14550814Y-11551007D01*
X14565100Y-11522436D01*
X14579386Y-11508150D01*
X14607957Y-11493864D01*
X14650814Y-11493864D01*
X14679386Y-11508150D01*
X14693671Y-11522436D01*
X14707957Y-11551007D01*
X14707957Y-11636721D01*
X14693671Y-11665293D01*
X14679386Y-11679579D01*
X14650814Y-11693864D01*
X14607957Y-11693864D01*
X14793671Y-11493864D02*
X14907957Y-11493864D01*
X14836528Y-11393864D02*
X14836528Y-11651007D01*
X14850814Y-11679579D01*
X14879386Y-11693864D01*
X14907957Y-11693864D01*
X15236528Y-11493864D02*
X15236528Y-11793864D01*
X15236528Y-11508150D02*
X15265100Y-11493864D01*
X15322243Y-11493864D01*
X15350814Y-11508150D01*
X15365100Y-11522436D01*
X15379386Y-11551007D01*
X15379386Y-11636721D01*
X15365100Y-11665293D01*
X15350814Y-11679579D01*
X15322243Y-11693864D01*
X15265100Y-11693864D01*
X15236528Y-11679579D01*
X15550814Y-11693864D02*
X15522243Y-11679579D01*
X15507957Y-11651007D01*
X15507957Y-11393864D01*
X15793671Y-11693864D02*
X15793671Y-11536721D01*
X15779386Y-11508150D01*
X15750814Y-11493864D01*
X15693671Y-11493864D01*
X15665100Y-11508150D01*
X15793671Y-11679579D02*
X15765100Y-11693864D01*
X15693671Y-11693864D01*
X15665100Y-11679579D01*
X15650814Y-11651007D01*
X15650814Y-11622436D01*
X15665100Y-11593864D01*
X15693671Y-11579579D01*
X15765100Y-11579579D01*
X15793671Y-11565293D01*
X15893671Y-11493864D02*
X16007957Y-11493864D01*
X15936528Y-11393864D02*
X15936528Y-11651007D01*
X15950814Y-11679579D01*
X15979386Y-11693864D01*
X16007957Y-11693864D01*
X16222243Y-11679579D02*
X16193671Y-11693864D01*
X16136528Y-11693864D01*
X16107957Y-11679579D01*
X16093671Y-11651007D01*
X16093671Y-11536721D01*
X16107957Y-11508150D01*
X16136528Y-11493864D01*
X16193671Y-11493864D01*
X16222243Y-11508150D01*
X16236528Y-11536721D01*
X16236528Y-11565293D01*
X16093671Y-11593864D01*
X16493671Y-11693864D02*
X16493671Y-11393864D01*
X16493671Y-11679579D02*
X16465100Y-11693864D01*
X16407957Y-11693864D01*
X16379386Y-11679579D01*
X16365100Y-11665293D01*
X16350814Y-11636721D01*
X16350814Y-11551007D01*
X16365100Y-11522436D01*
X16379386Y-11508150D01*
X16407957Y-11493864D01*
X16465100Y-11493864D01*
X16493671Y-11508150D01*
X16607957Y-11808150D02*
X16622243Y-11793864D01*
X16650814Y-11751007D01*
X16665100Y-11722436D01*
X16679386Y-11679579D01*
X16693671Y-11608150D01*
X16693671Y-11551007D01*
X16679386Y-11479579D01*
X16665100Y-11436721D01*
X16650814Y-11408150D01*
X16622243Y-11365293D01*
X16607957Y-11351007D01*
M02*
