G04 #@! TF.GenerationSoftware,KiCad,Pcbnew,(5.1.6)-1*
G04 #@! TF.CreationDate,2020-06-22T15:28:22+05:30*
G04 #@! TF.ProjectId,ESP8266_RelayBoard,45535038-3236-4365-9f52-656c6179426f,rev?*
G04 #@! TF.SameCoordinates,Original*
G04 #@! TF.FileFunction,Soldermask,Bot*
G04 #@! TF.FilePolarity,Negative*
%FSLAX46Y46*%
G04 Gerber Fmt 4.6, Leading zero omitted, Abs format (unit mm)*
G04 Created by KiCad (PCBNEW (5.1.6)-1) date 2020-06-22 15:28:22*
%MOMM*%
%LPD*%
G01*
G04 APERTURE LIST*
G04 #@! TA.AperFunction,Profile*
%ADD10C,0.203200*%
G04 #@! TD*
G04 #@! TA.AperFunction,Profile*
%ADD11C,0.381000*%
G04 #@! TD*
%ADD12C,3.400000*%
%ADD13R,2.432000X2.432000*%
%ADD14C,2.432000*%
%ADD15O,2.178000X2.940000*%
%ADD16R,2.178000X2.940000*%
%ADD17C,3.448000*%
%ADD18O,4.210000X2.940000*%
%ADD19R,4.210000X2.940000*%
G04 APERTURE END LIST*
D10*
X160464500Y-88265000D02*
X159448500Y-89281000D01*
X166052500Y-88265000D02*
X160464500Y-88265000D01*
X159448500Y-94615000D02*
X160464500Y-95631000D01*
X159448500Y-89281000D02*
X159448500Y-94615000D01*
X160464500Y-95631000D02*
X166052500Y-95631000D01*
X166052500Y-95631000D02*
X166052500Y-94551500D01*
X160464500Y-89789000D02*
X160972500Y-89281000D01*
X166052500Y-94551500D02*
X160972500Y-94551500D01*
X160464500Y-94043500D02*
X160464500Y-89789000D01*
X160972500Y-89281000D02*
X166052500Y-89281000D01*
X166052500Y-89281000D02*
X166052500Y-88265000D01*
X160972500Y-94551500D02*
X160464500Y-94043500D01*
X160337500Y-71501000D02*
X159321500Y-72517000D01*
X165925500Y-71501000D02*
X160337500Y-71501000D01*
X159321500Y-77851000D02*
X160337500Y-78867000D01*
X159321500Y-72517000D02*
X159321500Y-77851000D01*
X160337500Y-78867000D02*
X165925500Y-78867000D01*
X165925500Y-78867000D02*
X165925500Y-77787500D01*
X160337500Y-73025000D02*
X160845500Y-72517000D01*
X165925500Y-77787500D02*
X160845500Y-77787500D01*
X160337500Y-77279500D02*
X160337500Y-73025000D01*
X160845500Y-72517000D02*
X165925500Y-72517000D01*
X165925500Y-72517000D02*
X165925500Y-71501000D01*
X160845500Y-77787500D02*
X160337500Y-77279500D01*
X160274000Y-53975000D02*
X159258000Y-54991000D01*
X165862000Y-53975000D02*
X160274000Y-53975000D01*
X159258000Y-60325000D02*
X160274000Y-61341000D01*
X159258000Y-54991000D02*
X159258000Y-60325000D01*
X160274000Y-61341000D02*
X165862000Y-61341000D01*
X165862000Y-61341000D02*
X165862000Y-60261500D01*
X160274000Y-55499000D02*
X160782000Y-54991000D01*
X165862000Y-60261500D02*
X160782000Y-60261500D01*
X160274000Y-59753500D02*
X160274000Y-55499000D01*
X160782000Y-54991000D02*
X165862000Y-54991000D01*
X165862000Y-54991000D02*
X165862000Y-53975000D01*
X160782000Y-60261500D02*
X160274000Y-59753500D01*
X160274000Y-37020500D02*
X159258000Y-38036500D01*
X165862000Y-37020500D02*
X160274000Y-37020500D01*
X159258000Y-43370500D02*
X160274000Y-44386500D01*
X159258000Y-38036500D02*
X159258000Y-43370500D01*
X160274000Y-44386500D02*
X165862000Y-44386500D01*
X165862000Y-44386500D02*
X165862000Y-43307000D01*
X160274000Y-38544500D02*
X160782000Y-38036500D01*
X165862000Y-43307000D02*
X160782000Y-43307000D01*
X160274000Y-42799000D02*
X160274000Y-38544500D01*
X160782000Y-38036500D02*
X165862000Y-38036500D01*
X165862000Y-38036500D02*
X165862000Y-37020500D01*
X160782000Y-43307000D02*
X160274000Y-42799000D01*
X107378500Y-61087000D02*
X108394500Y-60071000D01*
X101790500Y-61087000D02*
X107378500Y-61087000D01*
X108394500Y-54737000D02*
X107378500Y-53721000D01*
X108394500Y-60071000D02*
X108394500Y-54737000D01*
X107378500Y-53721000D02*
X101790500Y-53721000D01*
X101790500Y-53721000D02*
X101790500Y-54800500D01*
X107378500Y-59563000D02*
X106870500Y-60071000D01*
X101790500Y-54800500D02*
X106870500Y-54800500D01*
X107378500Y-55308500D02*
X107378500Y-59563000D01*
X106870500Y-60071000D02*
X101790500Y-60071000D01*
X101790500Y-60071000D02*
X101790500Y-61087000D01*
X106870500Y-54800500D02*
X107378500Y-55308500D01*
X107696000Y-78740000D02*
X108712000Y-77724000D01*
X102108000Y-78740000D02*
X107696000Y-78740000D01*
X108712000Y-72390000D02*
X107696000Y-71374000D01*
X108712000Y-77724000D02*
X108712000Y-72390000D01*
X107696000Y-71374000D02*
X102108000Y-71374000D01*
X102108000Y-71374000D02*
X102108000Y-72453500D01*
X107696000Y-77216000D02*
X107188000Y-77724000D01*
X102108000Y-72453500D02*
X107188000Y-72453500D01*
X107696000Y-72961500D02*
X107696000Y-77216000D01*
X107188000Y-77724000D02*
X102108000Y-77724000D01*
X102108000Y-77724000D02*
X102108000Y-78740000D01*
X107188000Y-72453500D02*
X107696000Y-72961500D01*
X107378500Y-44259500D02*
X108394500Y-43243500D01*
X101790500Y-44259500D02*
X107378500Y-44259500D01*
X108394500Y-37909500D02*
X107378500Y-36893500D01*
X108394500Y-43243500D02*
X108394500Y-37909500D01*
X107378500Y-36893500D02*
X101790500Y-36893500D01*
X101790500Y-36893500D02*
X101790500Y-37973000D01*
X107378500Y-42735500D02*
X106870500Y-43243500D01*
X101790500Y-37973000D02*
X106870500Y-37973000D01*
X107378500Y-38481000D02*
X107378500Y-42735500D01*
X106870500Y-43243500D02*
X101790500Y-43243500D01*
X101790500Y-43243500D02*
X101790500Y-44259500D01*
X106870500Y-37973000D02*
X107378500Y-38481000D01*
D11*
X71691500Y-31559500D02*
X125349000Y-31559500D01*
X145732500Y-31559500D02*
X196151500Y-31559500D01*
X125349000Y-45339000D02*
X125349000Y-31559500D01*
X145732500Y-45339000D02*
X145732500Y-31559500D01*
X125349000Y-45339000D02*
X145732500Y-45339000D01*
X71691500Y-105791000D02*
X71691500Y-31559500D01*
X196215000Y-105791000D02*
X71691500Y-105791000D01*
X196151500Y-31559500D02*
X196215000Y-105791000D01*
D12*
X74358500Y-103060500D03*
X122301000Y-34290000D03*
X193738500Y-102997000D03*
X148463000Y-34163000D03*
D13*
X79057500Y-90424000D03*
D14*
X79057500Y-92964000D03*
D15*
X145288000Y-94996000D03*
X142748000Y-94996000D03*
X140208000Y-94996000D03*
D16*
X137668000Y-94996000D03*
D15*
X132207000Y-94996000D03*
X129667000Y-94996000D03*
X127127000Y-94996000D03*
D16*
X124587000Y-94996000D03*
D17*
X177174500Y-46703500D03*
X177174500Y-34703500D03*
X164569500Y-46703500D03*
X164569500Y-34703500D03*
X162569500Y-40703500D03*
X177228500Y-63467500D03*
X177228500Y-51467500D03*
X164623500Y-63467500D03*
X164623500Y-51467500D03*
X162623500Y-57467500D03*
X177355500Y-81120500D03*
X177355500Y-69120500D03*
X164750500Y-81120500D03*
X164750500Y-69120500D03*
X162750500Y-75120500D03*
X177355500Y-97884500D03*
X177355500Y-85884500D03*
X164750500Y-97884500D03*
X164750500Y-85884500D03*
X162750500Y-91884500D03*
X105270300Y-74942700D03*
X103270300Y-80942700D03*
X103270300Y-68942700D03*
X90665300Y-80942700D03*
X90665300Y-68942700D03*
X105117900Y-57416700D03*
X103117900Y-63416700D03*
X103117900Y-51416700D03*
X90512900Y-63416700D03*
X90512900Y-51416700D03*
X105092500Y-40576500D03*
X103092500Y-46576500D03*
X103092500Y-34576500D03*
X90487500Y-46576500D03*
X90487500Y-34576500D03*
D18*
X81902300Y-35420300D03*
X81902300Y-40500300D03*
D19*
X81902300Y-45580300D03*
X81953100Y-62496700D03*
D18*
X81953100Y-57416700D03*
X81953100Y-52336700D03*
D19*
X82003900Y-80022700D03*
D18*
X82003900Y-74942700D03*
X82003900Y-69862700D03*
D19*
X185864500Y-86741000D03*
D18*
X185864500Y-91821000D03*
X185864500Y-96901000D03*
X185788300Y-80225900D03*
X185788300Y-75145900D03*
D19*
X185788300Y-70065900D03*
X185686700Y-52387500D03*
D18*
X185686700Y-57467500D03*
X185686700Y-62547500D03*
D19*
X185686700Y-35674300D03*
D18*
X185686700Y-40754300D03*
X185686700Y-45834300D03*
M02*
