G04 #@! TF.GenerationSoftware,KiCad,Pcbnew,(5.1.6)-1*
G04 #@! TF.CreationDate,2020-06-22T15:28:22+05:30*
G04 #@! TF.ProjectId,ESP8266_RelayBoard,45535038-3236-4365-9f52-656c6179426f,rev?*
G04 #@! TF.SameCoordinates,Original*
G04 #@! TF.FileFunction,Copper,L2,Bot*
G04 #@! TF.FilePolarity,Positive*
%FSLAX46Y46*%
G04 Gerber Fmt 4.6, Leading zero omitted, Abs format (unit mm)*
G04 Created by KiCad (PCBNEW (5.1.6)-1) date 2020-06-22 15:28:22*
%MOMM*%
%LPD*%
G01*
G04 APERTURE LIST*
G04 #@! TA.AperFunction,Profile*
%ADD10C,0.203200*%
G04 #@! TD*
G04 #@! TA.AperFunction,Profile*
%ADD11C,0.381000*%
G04 #@! TD*
G04 #@! TA.AperFunction,ComponentPad*
%ADD12R,2.032000X2.032000*%
G04 #@! TD*
G04 #@! TA.AperFunction,ComponentPad*
%ADD13C,2.032000*%
G04 #@! TD*
G04 #@! TA.AperFunction,ComponentPad*
%ADD14O,1.778000X2.540000*%
G04 #@! TD*
G04 #@! TA.AperFunction,ComponentPad*
%ADD15R,1.778000X2.540000*%
G04 #@! TD*
G04 #@! TA.AperFunction,ComponentPad*
%ADD16C,3.048000*%
G04 #@! TD*
G04 #@! TA.AperFunction,ComponentPad*
%ADD17O,3.810000X2.540000*%
G04 #@! TD*
G04 #@! TA.AperFunction,ComponentPad*
%ADD18R,3.810000X2.540000*%
G04 #@! TD*
G04 #@! TA.AperFunction,ViaPad*
%ADD19C,1.270000*%
G04 #@! TD*
G04 #@! TA.AperFunction,Conductor*
%ADD20C,1.270000*%
G04 #@! TD*
G04 #@! TA.AperFunction,Conductor*
%ADD21C,0.800000*%
G04 #@! TD*
G04 #@! TA.AperFunction,Conductor*
%ADD22C,0.700000*%
G04 #@! TD*
G04 #@! TA.AperFunction,Conductor*
%ADD23C,0.254000*%
G04 #@! TD*
G04 APERTURE END LIST*
D10*
X160464500Y-88265000D02*
X159448500Y-89281000D01*
X166052500Y-88265000D02*
X160464500Y-88265000D01*
X159448500Y-94615000D02*
X160464500Y-95631000D01*
X159448500Y-89281000D02*
X159448500Y-94615000D01*
X160464500Y-95631000D02*
X166052500Y-95631000D01*
X166052500Y-95631000D02*
X166052500Y-94551500D01*
X160464500Y-89789000D02*
X160972500Y-89281000D01*
X166052500Y-94551500D02*
X160972500Y-94551500D01*
X160464500Y-94043500D02*
X160464500Y-89789000D01*
X160972500Y-89281000D02*
X166052500Y-89281000D01*
X166052500Y-89281000D02*
X166052500Y-88265000D01*
X160972500Y-94551500D02*
X160464500Y-94043500D01*
X160337500Y-71501000D02*
X159321500Y-72517000D01*
X165925500Y-71501000D02*
X160337500Y-71501000D01*
X159321500Y-77851000D02*
X160337500Y-78867000D01*
X159321500Y-72517000D02*
X159321500Y-77851000D01*
X160337500Y-78867000D02*
X165925500Y-78867000D01*
X165925500Y-78867000D02*
X165925500Y-77787500D01*
X160337500Y-73025000D02*
X160845500Y-72517000D01*
X165925500Y-77787500D02*
X160845500Y-77787500D01*
X160337500Y-77279500D02*
X160337500Y-73025000D01*
X160845500Y-72517000D02*
X165925500Y-72517000D01*
X165925500Y-72517000D02*
X165925500Y-71501000D01*
X160845500Y-77787500D02*
X160337500Y-77279500D01*
X160274000Y-53975000D02*
X159258000Y-54991000D01*
X165862000Y-53975000D02*
X160274000Y-53975000D01*
X159258000Y-60325000D02*
X160274000Y-61341000D01*
X159258000Y-54991000D02*
X159258000Y-60325000D01*
X160274000Y-61341000D02*
X165862000Y-61341000D01*
X165862000Y-61341000D02*
X165862000Y-60261500D01*
X160274000Y-55499000D02*
X160782000Y-54991000D01*
X165862000Y-60261500D02*
X160782000Y-60261500D01*
X160274000Y-59753500D02*
X160274000Y-55499000D01*
X160782000Y-54991000D02*
X165862000Y-54991000D01*
X165862000Y-54991000D02*
X165862000Y-53975000D01*
X160782000Y-60261500D02*
X160274000Y-59753500D01*
X160274000Y-37020500D02*
X159258000Y-38036500D01*
X165862000Y-37020500D02*
X160274000Y-37020500D01*
X159258000Y-43370500D02*
X160274000Y-44386500D01*
X159258000Y-38036500D02*
X159258000Y-43370500D01*
X160274000Y-44386500D02*
X165862000Y-44386500D01*
X165862000Y-44386500D02*
X165862000Y-43307000D01*
X160274000Y-38544500D02*
X160782000Y-38036500D01*
X165862000Y-43307000D02*
X160782000Y-43307000D01*
X160274000Y-42799000D02*
X160274000Y-38544500D01*
X160782000Y-38036500D02*
X165862000Y-38036500D01*
X165862000Y-38036500D02*
X165862000Y-37020500D01*
X160782000Y-43307000D02*
X160274000Y-42799000D01*
X107378500Y-61087000D02*
X108394500Y-60071000D01*
X101790500Y-61087000D02*
X107378500Y-61087000D01*
X108394500Y-54737000D02*
X107378500Y-53721000D01*
X108394500Y-60071000D02*
X108394500Y-54737000D01*
X107378500Y-53721000D02*
X101790500Y-53721000D01*
X101790500Y-53721000D02*
X101790500Y-54800500D01*
X107378500Y-59563000D02*
X106870500Y-60071000D01*
X101790500Y-54800500D02*
X106870500Y-54800500D01*
X107378500Y-55308500D02*
X107378500Y-59563000D01*
X106870500Y-60071000D02*
X101790500Y-60071000D01*
X101790500Y-60071000D02*
X101790500Y-61087000D01*
X106870500Y-54800500D02*
X107378500Y-55308500D01*
X107696000Y-78740000D02*
X108712000Y-77724000D01*
X102108000Y-78740000D02*
X107696000Y-78740000D01*
X108712000Y-72390000D02*
X107696000Y-71374000D01*
X108712000Y-77724000D02*
X108712000Y-72390000D01*
X107696000Y-71374000D02*
X102108000Y-71374000D01*
X102108000Y-71374000D02*
X102108000Y-72453500D01*
X107696000Y-77216000D02*
X107188000Y-77724000D01*
X102108000Y-72453500D02*
X107188000Y-72453500D01*
X107696000Y-72961500D02*
X107696000Y-77216000D01*
X107188000Y-77724000D02*
X102108000Y-77724000D01*
X102108000Y-77724000D02*
X102108000Y-78740000D01*
X107188000Y-72453500D02*
X107696000Y-72961500D01*
X107378500Y-44259500D02*
X108394500Y-43243500D01*
X101790500Y-44259500D02*
X107378500Y-44259500D01*
X108394500Y-37909500D02*
X107378500Y-36893500D01*
X108394500Y-43243500D02*
X108394500Y-37909500D01*
X107378500Y-36893500D02*
X101790500Y-36893500D01*
X101790500Y-36893500D02*
X101790500Y-37973000D01*
X107378500Y-42735500D02*
X106870500Y-43243500D01*
X101790500Y-37973000D02*
X106870500Y-37973000D01*
X107378500Y-38481000D02*
X107378500Y-42735500D01*
X106870500Y-43243500D02*
X101790500Y-43243500D01*
X101790500Y-43243500D02*
X101790500Y-44259500D01*
X106870500Y-37973000D02*
X107378500Y-38481000D01*
D11*
X71691500Y-31559500D02*
X125349000Y-31559500D01*
X145732500Y-31559500D02*
X196151500Y-31559500D01*
X125349000Y-45339000D02*
X125349000Y-31559500D01*
X145732500Y-45339000D02*
X145732500Y-31559500D01*
X125349000Y-45339000D02*
X145732500Y-45339000D01*
X71691500Y-105791000D02*
X71691500Y-31559500D01*
X196215000Y-105791000D02*
X71691500Y-105791000D01*
X196151500Y-31559500D02*
X196215000Y-105791000D01*
D12*
X79057500Y-90424000D03*
D13*
X79057500Y-92964000D03*
D14*
X145288000Y-94996000D03*
X142748000Y-94996000D03*
X140208000Y-94996000D03*
D15*
X137668000Y-94996000D03*
D14*
X132207000Y-94996000D03*
X129667000Y-94996000D03*
X127127000Y-94996000D03*
D15*
X124587000Y-94996000D03*
D16*
X177174500Y-46703500D03*
X177174500Y-34703500D03*
X164569500Y-46703500D03*
X164569500Y-34703500D03*
X162569500Y-40703500D03*
X177228500Y-63467500D03*
X177228500Y-51467500D03*
X164623500Y-63467500D03*
X164623500Y-51467500D03*
X162623500Y-57467500D03*
X177355500Y-81120500D03*
X177355500Y-69120500D03*
X164750500Y-81120500D03*
X164750500Y-69120500D03*
X162750500Y-75120500D03*
X177355500Y-97884500D03*
X177355500Y-85884500D03*
X164750500Y-97884500D03*
X164750500Y-85884500D03*
X162750500Y-91884500D03*
X105270300Y-74942700D03*
X103270300Y-80942700D03*
X103270300Y-68942700D03*
X90665300Y-80942700D03*
X90665300Y-68942700D03*
X105117900Y-57416700D03*
X103117900Y-63416700D03*
X103117900Y-51416700D03*
X90512900Y-63416700D03*
X90512900Y-51416700D03*
X105092500Y-40576500D03*
X103092500Y-46576500D03*
X103092500Y-34576500D03*
X90487500Y-46576500D03*
X90487500Y-34576500D03*
D17*
X81902300Y-35420300D03*
X81902300Y-40500300D03*
D18*
X81902300Y-45580300D03*
X81953100Y-62496700D03*
D17*
X81953100Y-57416700D03*
X81953100Y-52336700D03*
D18*
X82003900Y-80022700D03*
D17*
X82003900Y-74942700D03*
X82003900Y-69862700D03*
D18*
X185864500Y-86741000D03*
D17*
X185864500Y-91821000D03*
X185864500Y-96901000D03*
X185788300Y-80225900D03*
X185788300Y-75145900D03*
D18*
X185788300Y-70065900D03*
X185686700Y-52387500D03*
D17*
X185686700Y-57467500D03*
X185686700Y-62547500D03*
D18*
X185686700Y-35674300D03*
D17*
X185686700Y-40754300D03*
X185686700Y-45834300D03*
D19*
X128778000Y-81280000D03*
X114046000Y-67310000D03*
X82804000Y-95250000D03*
X118618000Y-96774000D03*
X106172000Y-91440000D03*
X120904000Y-91440000D03*
X124587000Y-70739000D03*
X124587000Y-78867000D03*
X143764000Y-62992000D03*
X121412000Y-52832000D03*
X143764000Y-65278000D03*
X142240000Y-65278000D03*
X140716000Y-65278000D03*
X130810000Y-75946000D03*
X116840000Y-44450000D03*
X116840000Y-40132000D03*
X112268000Y-49276000D03*
X114046000Y-49276000D03*
X121412000Y-55372000D03*
X118872000Y-65278000D03*
X118872000Y-69342000D03*
X118872000Y-73914000D03*
X118872000Y-77724000D03*
X127762000Y-65278000D03*
X127762000Y-69342000D03*
X127762000Y-73914000D03*
X127762000Y-77724000D03*
X142748000Y-79248000D03*
X144526000Y-79248000D03*
X135128000Y-95758000D03*
X135128000Y-93980000D03*
X78994000Y-96774000D03*
X79248000Y-86868000D03*
X81534000Y-86868000D03*
X81534000Y-96774000D03*
X81534000Y-98552000D03*
X78994000Y-98552000D03*
X84328000Y-98552000D03*
X87630000Y-98552000D03*
X73406000Y-86868000D03*
X93980000Y-86868000D03*
X104140000Y-86868000D03*
X107188000Y-86868000D03*
X110744000Y-86868000D03*
X148590000Y-96520000D03*
X150114000Y-96520000D03*
X150876000Y-92710000D03*
X150876000Y-90932000D03*
X150876000Y-89154000D03*
X144526000Y-77470000D03*
X144526000Y-75692000D03*
X144526000Y-73914000D03*
X83820000Y-102870000D03*
X86360000Y-102870000D03*
X88900000Y-102870000D03*
X91440000Y-102870000D03*
X102870000Y-102870000D03*
X105410000Y-102870000D03*
X107950000Y-102870000D03*
X110490000Y-102870000D03*
X121920000Y-102870000D03*
X124460000Y-102870000D03*
X127000000Y-102870000D03*
X129540000Y-102870000D03*
X140970000Y-102870000D03*
X143510000Y-102870000D03*
X146050000Y-102870000D03*
X148590000Y-102870000D03*
X123634500Y-46545500D03*
X129540000Y-89916000D03*
X140970000Y-87884000D03*
X146050000Y-54610000D03*
X120904000Y-47244000D03*
X148336000Y-46736000D03*
X147320000Y-48768000D03*
X132627711Y-70572289D03*
X124460000Y-56388000D03*
X117382011Y-83023989D03*
X130556000Y-83058000D03*
X116874011Y-62957989D03*
X115832922Y-46549900D03*
X132842000Y-84328000D03*
X115951000Y-84201000D03*
X130556000Y-86360000D03*
X117602000Y-86360000D03*
X130556000Y-70612000D03*
X124460000Y-58420000D03*
X134607789Y-70490204D03*
X124460000Y-54356000D03*
X124460000Y-52324000D03*
X136380229Y-70630729D03*
D20*
X168688500Y-63467500D02*
X164623500Y-63467500D01*
X169672000Y-62484000D02*
X168688500Y-63467500D01*
X168307500Y-81120500D02*
X169672000Y-79756000D01*
X164750500Y-81120500D02*
X168307500Y-81120500D01*
X168688500Y-63532500D02*
X169672000Y-64516000D01*
X168688500Y-63467500D02*
X168688500Y-63532500D01*
X169672000Y-64516000D02*
X169672000Y-62484000D01*
X169672000Y-48260000D02*
X169672000Y-62484000D01*
X168115500Y-46703500D02*
X169672000Y-48260000D01*
X164569500Y-46703500D02*
X168115500Y-46703500D01*
X169672000Y-78740000D02*
X169672000Y-64516000D01*
X169672000Y-79756000D02*
X169672000Y-78740000D01*
X168307500Y-97884500D02*
X164750500Y-97884500D01*
X169672000Y-96520000D02*
X168307500Y-97884500D01*
X168496500Y-81120500D02*
X169672000Y-82296000D01*
X168307500Y-81120500D02*
X168496500Y-81120500D01*
X169672000Y-78740000D02*
X169672000Y-82296000D01*
X169672000Y-82296000D02*
X169672000Y-96520000D01*
X97536000Y-36068000D02*
X99027500Y-34576500D01*
X99027500Y-34576500D02*
X103092500Y-34576500D01*
X97536000Y-49784000D02*
X97536000Y-36068000D01*
X103117900Y-51416700D02*
X99168700Y-51416700D01*
X103270300Y-68942700D02*
X99422700Y-68942700D01*
X98443300Y-51416700D02*
X97536000Y-52324000D01*
X99168700Y-51416700D02*
X98443300Y-51416700D01*
X97536000Y-67056000D02*
X97536000Y-52324000D01*
X98443300Y-51199300D02*
X97536000Y-50292000D01*
X98443300Y-51416700D02*
X98443300Y-51199300D01*
X97536000Y-52324000D02*
X97536000Y-50292000D01*
X97536000Y-50292000D02*
X97536000Y-49784000D01*
X97681300Y-68942700D02*
X97536000Y-69088000D01*
X103270300Y-68942700D02*
X98697300Y-68942700D01*
X97536000Y-68072000D02*
X97536000Y-69088000D01*
X98697300Y-68942700D02*
X98406700Y-68942700D01*
X98697300Y-68942700D02*
X97681300Y-68942700D01*
X97536000Y-67056000D02*
X97536000Y-68072000D01*
X97536000Y-69088000D02*
X97536000Y-70104000D01*
X97536000Y-89408000D02*
X96520000Y-90424000D01*
X97536000Y-70104000D02*
X97536000Y-89408000D01*
X79057500Y-90424000D02*
X96520000Y-90424000D01*
D21*
X114046000Y-67310000D02*
X114046000Y-79756000D01*
X115570000Y-81280000D02*
X114046000Y-79756000D01*
X115570000Y-81280000D02*
X128778000Y-81280000D01*
D20*
X82804000Y-95250000D02*
X116586000Y-95250000D01*
X164591000Y-98044000D02*
X164750500Y-97884500D01*
D22*
X98697300Y-68942700D02*
X97536000Y-70104000D01*
X97536000Y-67781400D02*
X98697300Y-68942700D01*
X97536000Y-67056000D02*
X97536000Y-67781400D01*
D20*
X117094000Y-95250000D02*
X116586000Y-95250000D01*
X118618000Y-96774000D02*
X117094000Y-95250000D01*
D22*
X124587000Y-94996000D02*
X124587000Y-93853000D01*
X106172000Y-91440000D02*
X120904000Y-91440000D01*
X124587000Y-70739000D02*
X124587000Y-78867000D01*
X129667000Y-94996000D02*
X129667000Y-90043000D01*
X129667000Y-90043000D02*
X129540000Y-89916000D01*
X139192000Y-49276000D02*
X139192000Y-86106000D01*
X139192000Y-86106000D02*
X140970000Y-87884000D01*
X138176000Y-48260000D02*
X139192000Y-49276000D01*
X125349000Y-48260000D02*
X138176000Y-48260000D01*
X123634500Y-46545500D02*
X125349000Y-48260000D01*
X146050000Y-87122000D02*
X146050000Y-54610000D01*
X140208000Y-94996000D02*
X140208000Y-90932000D01*
X140208000Y-90932000D02*
X141224000Y-89916000D01*
X141224000Y-89916000D02*
X145288000Y-89916000D01*
X146050000Y-89154000D02*
X146050000Y-87122000D01*
X145288000Y-89916000D02*
X146050000Y-89154000D01*
X120904000Y-49784000D02*
X120904000Y-47244000D01*
X121950999Y-50830999D02*
X120904000Y-49784000D01*
X135851383Y-50830999D02*
X121950999Y-50830999D01*
X137873230Y-52852846D02*
X135851383Y-50830999D01*
X137873230Y-82598770D02*
X137873230Y-81993230D01*
X137873230Y-81993230D02*
X137873230Y-52852846D01*
X132207000Y-94996000D02*
X132207000Y-90043000D01*
X132207000Y-90043000D02*
X133350000Y-88900000D01*
X137316460Y-88900000D02*
X137873230Y-88343230D01*
X133350000Y-88900000D02*
X137316460Y-88900000D01*
X137873230Y-81993230D02*
X137873230Y-88343230D01*
X145288000Y-94996000D02*
X147828000Y-94996000D01*
X147828000Y-94996000D02*
X149352000Y-93472000D01*
X149352000Y-93472000D02*
X149352000Y-47752000D01*
X149352000Y-47752000D02*
X148336000Y-46736000D01*
X147954999Y-49402999D02*
X147954999Y-91313001D01*
X147320000Y-48768000D02*
X147954999Y-49402999D01*
X147954999Y-91313001D02*
X147320000Y-91948000D01*
X147320000Y-91948000D02*
X143256000Y-91948000D01*
X142748000Y-92456000D02*
X142748000Y-94996000D01*
X143256000Y-91948000D02*
X142748000Y-92456000D01*
X132627711Y-70572289D02*
X132627711Y-56935711D01*
X132080000Y-56388000D02*
X132627711Y-56935711D01*
X124460000Y-56388000D02*
X132080000Y-56388000D01*
X117416022Y-83058000D02*
X117382011Y-83023989D01*
X130556000Y-83058000D02*
X117416022Y-83058000D01*
X116874011Y-47590989D02*
X115832922Y-46549900D01*
X116874011Y-62957989D02*
X116874011Y-47590989D01*
X132618999Y-84551001D02*
X132842000Y-84328000D01*
X116301001Y-84551001D02*
X132618999Y-84551001D01*
X115951000Y-84201000D02*
X116301001Y-84551001D01*
X130556000Y-86360000D02*
X117602000Y-86360000D01*
X130556000Y-70612000D02*
X130556000Y-58928000D01*
X130048000Y-58420000D02*
X130556000Y-58928000D01*
X124460000Y-58420000D02*
X130048000Y-58420000D01*
X134087578Y-54356000D02*
X134607789Y-54876211D01*
X124460000Y-54356000D02*
X134087578Y-54356000D01*
X134607789Y-70490204D02*
X134607789Y-54876211D01*
X133763962Y-52324000D02*
X124460000Y-52324000D01*
X135636000Y-52324000D02*
X133763962Y-52324000D01*
X136380229Y-70630729D02*
X136380229Y-53068229D01*
X136380229Y-53068229D02*
X135636000Y-52324000D01*
D23*
G36*
X119253000Y-36830000D02*
G01*
X119255440Y-36854776D01*
X119262667Y-36878601D01*
X119274403Y-36900557D01*
X119290197Y-36919803D01*
X119309443Y-36935597D01*
X119331399Y-36947333D01*
X119355224Y-36954560D01*
X119380000Y-36957000D01*
X124523501Y-36957000D01*
X124523500Y-45298447D01*
X124519506Y-45339000D01*
X124535444Y-45500826D01*
X124582647Y-45656434D01*
X124641777Y-45767058D01*
X124620973Y-45735922D01*
X124444078Y-45559027D01*
X124236071Y-45420041D01*
X124004945Y-45324305D01*
X123759584Y-45275500D01*
X123509416Y-45275500D01*
X123264055Y-45324305D01*
X123032929Y-45420041D01*
X122824922Y-45559027D01*
X122648027Y-45735922D01*
X122509041Y-45943929D01*
X122413305Y-46175055D01*
X122364500Y-46420416D01*
X122364500Y-46670584D01*
X122413305Y-46915945D01*
X122509041Y-47147071D01*
X122648027Y-47355078D01*
X122824922Y-47531973D01*
X123032929Y-47670959D01*
X123264055Y-47766695D01*
X123509416Y-47815500D01*
X123511500Y-47815500D01*
X124618284Y-48922284D01*
X124649130Y-48959870D01*
X124799116Y-49082960D01*
X124918489Y-49146766D01*
X124970233Y-49174424D01*
X125155906Y-49230747D01*
X125348999Y-49249765D01*
X125397379Y-49245000D01*
X137768000Y-49245000D01*
X138207000Y-49684001D01*
X138207000Y-51793616D01*
X136582099Y-50168715D01*
X136551253Y-50131129D01*
X136401267Y-50008039D01*
X136230150Y-49916575D01*
X136044477Y-49860252D01*
X135899763Y-49845999D01*
X135851383Y-49841234D01*
X135803003Y-49845999D01*
X122358999Y-49845999D01*
X121889000Y-49376000D01*
X121889000Y-48055051D01*
X121890473Y-48053578D01*
X122029459Y-47845571D01*
X122125195Y-47614445D01*
X122174000Y-47369084D01*
X122174000Y-47118916D01*
X122125195Y-46873555D01*
X122029459Y-46642429D01*
X121890473Y-46434422D01*
X121713578Y-46257527D01*
X121505571Y-46118541D01*
X121274445Y-46022805D01*
X121029084Y-45974000D01*
X120778916Y-45974000D01*
X120533555Y-46022805D01*
X120302429Y-46118541D01*
X120094422Y-46257527D01*
X119917527Y-46434422D01*
X119778541Y-46642429D01*
X119682805Y-46873555D01*
X119634000Y-47118916D01*
X119634000Y-47369084D01*
X119682805Y-47614445D01*
X119778541Y-47845571D01*
X119917527Y-48053578D01*
X119919001Y-48055052D01*
X119919000Y-49735620D01*
X119914235Y-49784000D01*
X119927941Y-49923156D01*
X119933253Y-49977093D01*
X119989576Y-50162766D01*
X120081040Y-50333884D01*
X120204130Y-50483870D01*
X120241716Y-50514716D01*
X121220283Y-51493283D01*
X121251129Y-51530869D01*
X121401115Y-51653959D01*
X121572232Y-51745423D01*
X121714690Y-51788637D01*
X121757904Y-51801746D01*
X121950998Y-51820764D01*
X121999378Y-51815999D01*
X123295783Y-51815999D01*
X123238805Y-51953555D01*
X123190000Y-52198916D01*
X123190000Y-52449084D01*
X123238805Y-52694445D01*
X123334541Y-52925571D01*
X123473527Y-53133578D01*
X123650422Y-53310473D01*
X123694612Y-53340000D01*
X123650422Y-53369527D01*
X123473527Y-53546422D01*
X123334541Y-53754429D01*
X123238805Y-53985555D01*
X123190000Y-54230916D01*
X123190000Y-54481084D01*
X123238805Y-54726445D01*
X123334541Y-54957571D01*
X123473527Y-55165578D01*
X123650422Y-55342473D01*
X123694612Y-55372000D01*
X123650422Y-55401527D01*
X123473527Y-55578422D01*
X123334541Y-55786429D01*
X123238805Y-56017555D01*
X123190000Y-56262916D01*
X123190000Y-56513084D01*
X123238805Y-56758445D01*
X123334541Y-56989571D01*
X123473527Y-57197578D01*
X123650422Y-57374473D01*
X123694612Y-57404000D01*
X123650422Y-57433527D01*
X123473527Y-57610422D01*
X123334541Y-57818429D01*
X123238805Y-58049555D01*
X123190000Y-58294916D01*
X123190000Y-58545084D01*
X123238805Y-58790445D01*
X123334541Y-59021571D01*
X123473527Y-59229578D01*
X123650422Y-59406473D01*
X123858429Y-59545459D01*
X124089555Y-59641195D01*
X124334916Y-59690000D01*
X124585084Y-59690000D01*
X124830445Y-59641195D01*
X125061571Y-59545459D01*
X125269578Y-59406473D01*
X125271051Y-59405000D01*
X129571001Y-59405000D01*
X129571000Y-69800949D01*
X129569527Y-69802422D01*
X129430541Y-70010429D01*
X129334805Y-70241555D01*
X129286000Y-70486916D01*
X129286000Y-70737084D01*
X129334805Y-70982445D01*
X129430541Y-71213571D01*
X129569527Y-71421578D01*
X129746422Y-71598473D01*
X129954429Y-71737459D01*
X130185555Y-71833195D01*
X130430916Y-71882000D01*
X130681084Y-71882000D01*
X130926445Y-71833195D01*
X131157571Y-71737459D01*
X131365578Y-71598473D01*
X131542473Y-71421578D01*
X131605123Y-71327816D01*
X131641238Y-71381867D01*
X131818133Y-71558762D01*
X132026140Y-71697748D01*
X132257266Y-71793484D01*
X132502627Y-71842289D01*
X132752795Y-71842289D01*
X132998156Y-71793484D01*
X133229282Y-71697748D01*
X133437289Y-71558762D01*
X133614184Y-71381867D01*
X133649919Y-71328385D01*
X133798211Y-71476677D01*
X134006218Y-71615663D01*
X134237344Y-71711399D01*
X134482705Y-71760204D01*
X134732873Y-71760204D01*
X134978234Y-71711399D01*
X135209360Y-71615663D01*
X135417367Y-71476677D01*
X135423747Y-71470298D01*
X135570651Y-71617202D01*
X135778658Y-71756188D01*
X136009784Y-71851924D01*
X136255145Y-71900729D01*
X136505313Y-71900729D01*
X136750674Y-71851924D01*
X136888230Y-71794946D01*
X136888230Y-81944851D01*
X136888231Y-87915000D01*
X133398379Y-87915000D01*
X133349999Y-87910235D01*
X133156906Y-87929253D01*
X132971233Y-87985576D01*
X132800116Y-88077040D01*
X132650130Y-88200130D01*
X132619284Y-88237716D01*
X131544711Y-89312289D01*
X131507131Y-89343130D01*
X131384041Y-89493116D01*
X131356012Y-89545555D01*
X131292576Y-89664234D01*
X131236253Y-89849907D01*
X131217235Y-90043000D01*
X131222001Y-90091390D01*
X131222000Y-93451857D01*
X131124156Y-93532156D01*
X130937000Y-93760207D01*
X130749844Y-93532156D01*
X130652000Y-93451858D01*
X130652000Y-90537714D01*
X130665459Y-90517571D01*
X130761195Y-90286445D01*
X130810000Y-90041084D01*
X130810000Y-89790916D01*
X130761195Y-89545555D01*
X130665459Y-89314429D01*
X130526473Y-89106422D01*
X130349578Y-88929527D01*
X130141571Y-88790541D01*
X129910445Y-88694805D01*
X129665084Y-88646000D01*
X129414916Y-88646000D01*
X129169555Y-88694805D01*
X128938429Y-88790541D01*
X128730422Y-88929527D01*
X128553527Y-89106422D01*
X128414541Y-89314429D01*
X128318805Y-89545555D01*
X128270000Y-89790916D01*
X128270000Y-90041084D01*
X128318805Y-90286445D01*
X128414541Y-90517571D01*
X128553527Y-90725578D01*
X128682001Y-90854052D01*
X128682000Y-93451857D01*
X128584156Y-93532156D01*
X128393710Y-93764216D01*
X128391686Y-93768003D01*
X128323602Y-93662715D01*
X128114828Y-93447567D01*
X127868092Y-93277283D01*
X127592876Y-93158407D01*
X127490013Y-93134866D01*
X127254000Y-93255670D01*
X127254000Y-94869000D01*
X127274000Y-94869000D01*
X127274000Y-95123000D01*
X127254000Y-95123000D01*
X127254000Y-96736330D01*
X127490013Y-96857134D01*
X127592876Y-96833593D01*
X127868092Y-96714717D01*
X128114828Y-96544433D01*
X128323602Y-96329285D01*
X128391686Y-96223998D01*
X128393710Y-96227785D01*
X128584156Y-96459844D01*
X128816216Y-96650290D01*
X129080970Y-96791804D01*
X129368245Y-96878948D01*
X129667000Y-96908373D01*
X129965756Y-96878948D01*
X130253031Y-96791804D01*
X130517785Y-96650290D01*
X130749844Y-96459844D01*
X130937000Y-96231794D01*
X131124156Y-96459844D01*
X131356216Y-96650290D01*
X131620970Y-96791804D01*
X131908245Y-96878948D01*
X132207000Y-96908373D01*
X132505756Y-96878948D01*
X132793031Y-96791804D01*
X133057785Y-96650290D01*
X133289844Y-96459844D01*
X133448927Y-96266000D01*
X136140928Y-96266000D01*
X136153188Y-96390482D01*
X136189498Y-96510180D01*
X136248463Y-96620494D01*
X136327815Y-96717185D01*
X136424506Y-96796537D01*
X136534820Y-96855502D01*
X136654518Y-96891812D01*
X136779000Y-96904072D01*
X137382250Y-96901000D01*
X137541000Y-96742250D01*
X137541000Y-95123000D01*
X136302750Y-95123000D01*
X136144000Y-95281750D01*
X136140928Y-96266000D01*
X133448927Y-96266000D01*
X133480290Y-96227785D01*
X133621804Y-95963031D01*
X133708948Y-95675756D01*
X133731000Y-95451858D01*
X133731000Y-94540141D01*
X133708948Y-94316244D01*
X133621804Y-94028969D01*
X133480290Y-93764215D01*
X133448928Y-93726000D01*
X136140928Y-93726000D01*
X136144000Y-94710250D01*
X136302750Y-94869000D01*
X137541000Y-94869000D01*
X137541000Y-93249750D01*
X137382250Y-93091000D01*
X136779000Y-93087928D01*
X136654518Y-93100188D01*
X136534820Y-93136498D01*
X136424506Y-93195463D01*
X136327815Y-93274815D01*
X136248463Y-93371506D01*
X136189498Y-93481820D01*
X136153188Y-93601518D01*
X136140928Y-93726000D01*
X133448928Y-93726000D01*
X133289844Y-93532156D01*
X133192000Y-93451858D01*
X133192000Y-90451000D01*
X133758000Y-89885000D01*
X137268080Y-89885000D01*
X137316460Y-89889765D01*
X137364840Y-89885000D01*
X137509554Y-89870747D01*
X137695227Y-89814424D01*
X137866344Y-89722960D01*
X138016330Y-89599870D01*
X138047176Y-89562284D01*
X138535514Y-89073946D01*
X138573100Y-89043100D01*
X138696190Y-88893114D01*
X138787654Y-88721997D01*
X138843977Y-88536324D01*
X138852072Y-88454131D01*
X138862995Y-88343230D01*
X138858230Y-88294850D01*
X138858230Y-87165230D01*
X139700000Y-88007001D01*
X139700000Y-88009084D01*
X139748805Y-88254445D01*
X139844541Y-88485571D01*
X139983527Y-88693578D01*
X140160422Y-88870473D01*
X140368429Y-89009459D01*
X140599555Y-89105195D01*
X140647648Y-89114761D01*
X140524130Y-89216130D01*
X140493289Y-89253710D01*
X139545711Y-90201289D01*
X139508131Y-90232130D01*
X139385041Y-90382116D01*
X139376242Y-90398578D01*
X139293576Y-90553234D01*
X139237253Y-90738907D01*
X139218235Y-90932000D01*
X139223001Y-90980390D01*
X139223000Y-93451857D01*
X139154473Y-93508096D01*
X139146502Y-93481820D01*
X139087537Y-93371506D01*
X139008185Y-93274815D01*
X138911494Y-93195463D01*
X138801180Y-93136498D01*
X138681482Y-93100188D01*
X138557000Y-93087928D01*
X137953750Y-93091000D01*
X137795000Y-93249750D01*
X137795000Y-94869000D01*
X137815000Y-94869000D01*
X137815000Y-95123000D01*
X137795000Y-95123000D01*
X137795000Y-96742250D01*
X137953750Y-96901000D01*
X138557000Y-96904072D01*
X138681482Y-96891812D01*
X138801180Y-96855502D01*
X138911494Y-96796537D01*
X139008185Y-96717185D01*
X139087537Y-96620494D01*
X139146502Y-96510180D01*
X139154473Y-96483904D01*
X139357216Y-96650290D01*
X139621970Y-96791804D01*
X139909245Y-96878948D01*
X140208000Y-96908373D01*
X140506756Y-96878948D01*
X140794031Y-96791804D01*
X141058785Y-96650290D01*
X141290844Y-96459844D01*
X141478000Y-96231794D01*
X141665156Y-96459844D01*
X141897216Y-96650290D01*
X142161970Y-96791804D01*
X142449245Y-96878948D01*
X142748000Y-96908373D01*
X143046756Y-96878948D01*
X143334031Y-96791804D01*
X143598785Y-96650290D01*
X143830844Y-96459844D01*
X144018000Y-96231794D01*
X144205156Y-96459844D01*
X144437216Y-96650290D01*
X144701970Y-96791804D01*
X144989245Y-96878948D01*
X145288000Y-96908373D01*
X145586756Y-96878948D01*
X145874031Y-96791804D01*
X146138785Y-96650290D01*
X146370844Y-96459844D01*
X146561290Y-96227785D01*
X146693199Y-95981000D01*
X147779620Y-95981000D01*
X147828000Y-95985765D01*
X147876380Y-95981000D01*
X148021094Y-95966747D01*
X148206767Y-95910424D01*
X148377884Y-95818960D01*
X148527870Y-95695870D01*
X148558716Y-95658284D01*
X150014284Y-94202716D01*
X150051870Y-94171870D01*
X150174960Y-94021884D01*
X150266424Y-93850767D01*
X150322747Y-93665094D01*
X150337000Y-93520380D01*
X150337000Y-93520379D01*
X150341765Y-93472001D01*
X150337000Y-93423623D01*
X150337000Y-47800380D01*
X150341765Y-47752000D01*
X150322747Y-47558906D01*
X150266424Y-47373233D01*
X150247362Y-47337571D01*
X150174960Y-47202116D01*
X150051870Y-47052130D01*
X150014290Y-47021289D01*
X149606000Y-46612999D01*
X149606000Y-46610916D01*
X149557195Y-46365555D01*
X149461459Y-46134429D01*
X149322473Y-45926422D01*
X149145578Y-45749527D01*
X148937571Y-45610541D01*
X148706445Y-45514805D01*
X148461084Y-45466000D01*
X148210916Y-45466000D01*
X147965555Y-45514805D01*
X147734429Y-45610541D01*
X147526422Y-45749527D01*
X147349527Y-45926422D01*
X147210541Y-46134429D01*
X147114805Y-46365555D01*
X147066000Y-46610916D01*
X147066000Y-46861084D01*
X147114805Y-47106445D01*
X147210541Y-47337571D01*
X147317736Y-47498000D01*
X147194916Y-47498000D01*
X146949555Y-47546805D01*
X146718429Y-47642541D01*
X146510422Y-47781527D01*
X146333527Y-47958422D01*
X146194541Y-48166429D01*
X146098805Y-48397555D01*
X146050000Y-48642916D01*
X146050000Y-48893084D01*
X146098805Y-49138445D01*
X146194541Y-49369571D01*
X146333527Y-49577578D01*
X146510422Y-49754473D01*
X146718429Y-49893459D01*
X146949555Y-49989195D01*
X146969999Y-49993262D01*
X146969999Y-53733948D01*
X146859578Y-53623527D01*
X146651571Y-53484541D01*
X146420445Y-53388805D01*
X146175084Y-53340000D01*
X145924916Y-53340000D01*
X145679555Y-53388805D01*
X145448429Y-53484541D01*
X145240422Y-53623527D01*
X145063527Y-53800422D01*
X144924541Y-54008429D01*
X144828805Y-54239555D01*
X144780000Y-54484916D01*
X144780000Y-54735084D01*
X144828805Y-54980445D01*
X144924541Y-55211571D01*
X145063527Y-55419578D01*
X145065001Y-55421052D01*
X145065000Y-87170379D01*
X145065001Y-87170389D01*
X145065000Y-88745999D01*
X144880000Y-88931000D01*
X141688993Y-88931000D01*
X141779578Y-88870473D01*
X141956473Y-88693578D01*
X142095459Y-88485571D01*
X142191195Y-88254445D01*
X142240000Y-88009084D01*
X142240000Y-87758916D01*
X142191195Y-87513555D01*
X142095459Y-87282429D01*
X141956473Y-87074422D01*
X141779578Y-86897527D01*
X141571571Y-86758541D01*
X141340445Y-86662805D01*
X141095084Y-86614000D01*
X141093001Y-86614000D01*
X140177000Y-85698000D01*
X140177000Y-49324380D01*
X140181765Y-49276000D01*
X140162747Y-49082906D01*
X140106424Y-48897233D01*
X140082842Y-48853115D01*
X140014960Y-48726116D01*
X139891870Y-48576130D01*
X139854290Y-48545289D01*
X138906715Y-47597715D01*
X138875870Y-47560130D01*
X138725884Y-47437040D01*
X138554767Y-47345576D01*
X138369094Y-47289253D01*
X138224380Y-47275000D01*
X138176000Y-47270235D01*
X138127620Y-47275000D01*
X125757000Y-47275000D01*
X124904500Y-46422500D01*
X124904500Y-46420416D01*
X124855695Y-46175055D01*
X124759959Y-45943929D01*
X124682881Y-45828573D01*
X124762459Y-45925541D01*
X124888158Y-46028699D01*
X125031566Y-46105353D01*
X125187174Y-46152556D01*
X125349000Y-46168494D01*
X125389553Y-46164500D01*
X145691947Y-46164500D01*
X145732500Y-46168494D01*
X145773053Y-46164500D01*
X145894326Y-46152556D01*
X146049934Y-46105353D01*
X146193342Y-46028699D01*
X146319041Y-45925541D01*
X146422199Y-45799842D01*
X146498853Y-45656434D01*
X146546056Y-45500826D01*
X146561994Y-45339000D01*
X146558000Y-45298447D01*
X146558000Y-36576000D01*
X150876000Y-36576000D01*
X150900776Y-36573560D01*
X150924601Y-36566333D01*
X150946557Y-36554597D01*
X150965803Y-36538803D01*
X150981597Y-36519557D01*
X150993333Y-36497601D01*
X151000560Y-36473776D01*
X151003000Y-36449000D01*
X151003000Y-32385000D01*
X158496000Y-32385000D01*
X158496000Y-104965500D01*
X76708000Y-104965500D01*
X76708000Y-100965000D01*
X76705560Y-100940224D01*
X76698333Y-100916399D01*
X76686597Y-100894443D01*
X76670803Y-100875197D01*
X76651557Y-100859403D01*
X76629601Y-100847667D01*
X76605776Y-100840440D01*
X76581000Y-100838000D01*
X72517000Y-100838000D01*
X72517000Y-95250000D01*
X81527856Y-95250000D01*
X81534000Y-95312380D01*
X81534000Y-95375084D01*
X81546233Y-95436585D01*
X81552377Y-95498963D01*
X81570571Y-95558941D01*
X81582805Y-95620445D01*
X81606803Y-95678380D01*
X81624997Y-95738359D01*
X81654545Y-95793639D01*
X81678541Y-95851571D01*
X81713375Y-95903704D01*
X81742925Y-95958988D01*
X81782693Y-96007445D01*
X81817527Y-96059578D01*
X81861863Y-96103914D01*
X81901630Y-96152370D01*
X81950086Y-96192137D01*
X81994422Y-96236473D01*
X82046555Y-96271307D01*
X82095012Y-96311075D01*
X82150296Y-96340625D01*
X82202429Y-96375459D01*
X82260361Y-96399455D01*
X82315641Y-96429003D01*
X82375620Y-96447197D01*
X82433555Y-96471195D01*
X82495059Y-96483429D01*
X82555037Y-96501623D01*
X82617415Y-96507767D01*
X82678916Y-96520000D01*
X116567950Y-96520000D01*
X117631527Y-97583578D01*
X117808422Y-97760473D01*
X117860557Y-97795308D01*
X117909011Y-97835074D01*
X117964292Y-97864622D01*
X118016429Y-97899459D01*
X118074364Y-97923457D01*
X118129640Y-97953002D01*
X118189616Y-97971196D01*
X118247555Y-97995195D01*
X118309058Y-98007429D01*
X118369036Y-98025623D01*
X118431413Y-98031766D01*
X118492916Y-98044000D01*
X118555626Y-98044000D01*
X118617999Y-98050143D01*
X118680372Y-98044000D01*
X118743084Y-98044000D01*
X118804589Y-98031766D01*
X118866962Y-98025623D01*
X118926936Y-98007430D01*
X118988445Y-97995195D01*
X119046389Y-97971194D01*
X119106358Y-97953002D01*
X119161627Y-97923460D01*
X119219571Y-97899459D01*
X119271716Y-97864617D01*
X119326987Y-97835074D01*
X119375433Y-97795315D01*
X119427578Y-97760473D01*
X119471925Y-97716126D01*
X119520369Y-97676369D01*
X119560126Y-97627925D01*
X119604473Y-97583578D01*
X119639315Y-97531433D01*
X119679074Y-97482987D01*
X119708617Y-97427716D01*
X119743459Y-97375571D01*
X119767460Y-97317627D01*
X119797002Y-97262358D01*
X119815194Y-97202389D01*
X119839195Y-97144445D01*
X119851430Y-97082936D01*
X119869623Y-97022962D01*
X119875766Y-96960589D01*
X119888000Y-96899084D01*
X119888000Y-96836372D01*
X119894143Y-96773999D01*
X119888000Y-96711626D01*
X119888000Y-96648916D01*
X119875766Y-96587413D01*
X119869623Y-96525036D01*
X119851429Y-96465058D01*
X119839195Y-96403555D01*
X119815196Y-96345616D01*
X119797002Y-96285640D01*
X119767457Y-96230364D01*
X119743459Y-96172429D01*
X119708622Y-96120292D01*
X119679074Y-96065011D01*
X119639308Y-96016557D01*
X119604473Y-95964422D01*
X119427578Y-95787527D01*
X118036141Y-94396091D01*
X117996370Y-94347630D01*
X117802988Y-94188925D01*
X117582359Y-94070997D01*
X117342963Y-93998377D01*
X117156380Y-93980000D01*
X117156373Y-93980000D01*
X117094000Y-93973857D01*
X117031627Y-93980000D01*
X82678916Y-93980000D01*
X82617415Y-93992233D01*
X82555037Y-93998377D01*
X82495059Y-94016571D01*
X82433555Y-94028805D01*
X82375620Y-94052803D01*
X82315641Y-94070997D01*
X82260361Y-94100545D01*
X82202429Y-94124541D01*
X82150296Y-94159375D01*
X82095012Y-94188925D01*
X82046555Y-94228693D01*
X81994422Y-94263527D01*
X81950086Y-94307863D01*
X81901630Y-94347630D01*
X81861863Y-94396086D01*
X81817527Y-94440422D01*
X81782693Y-94492555D01*
X81742925Y-94541012D01*
X81713375Y-94596296D01*
X81678541Y-94648429D01*
X81654545Y-94706361D01*
X81624997Y-94761641D01*
X81606803Y-94821620D01*
X81582805Y-94879555D01*
X81570571Y-94941059D01*
X81552377Y-95001037D01*
X81546233Y-95063415D01*
X81534000Y-95124916D01*
X81534000Y-95187620D01*
X81527856Y-95250000D01*
X72517000Y-95250000D01*
X72517000Y-94110823D01*
X78090282Y-94110823D01*
X78187978Y-94376860D01*
X78480321Y-94519348D01*
X78794844Y-94602064D01*
X79119462Y-94621831D01*
X79441698Y-94577888D01*
X79749170Y-94471924D01*
X79927022Y-94376860D01*
X80024718Y-94110823D01*
X79057500Y-93143605D01*
X78090282Y-94110823D01*
X72517000Y-94110823D01*
X72517000Y-84264500D01*
X96266001Y-84264500D01*
X96266001Y-88881948D01*
X95993950Y-89154000D01*
X80657753Y-89154000D01*
X80604037Y-89053506D01*
X80524685Y-88956815D01*
X80427994Y-88877463D01*
X80317680Y-88818498D01*
X80197982Y-88782188D01*
X80073500Y-88769928D01*
X78041500Y-88769928D01*
X77917018Y-88782188D01*
X77797320Y-88818498D01*
X77687006Y-88877463D01*
X77590315Y-88956815D01*
X77510963Y-89053506D01*
X77451998Y-89163820D01*
X77415688Y-89283518D01*
X77403428Y-89408000D01*
X77403428Y-91440000D01*
X77415688Y-91564482D01*
X77451998Y-91684180D01*
X77510963Y-91794494D01*
X77590315Y-91891185D01*
X77687006Y-91970537D01*
X77797320Y-92029502D01*
X77810604Y-92033532D01*
X77644640Y-92094478D01*
X77502152Y-92386821D01*
X77419436Y-92701344D01*
X77399669Y-93025962D01*
X77443612Y-93348198D01*
X77549576Y-93655670D01*
X77644640Y-93833522D01*
X77910677Y-93931218D01*
X78877895Y-92964000D01*
X78863753Y-92949858D01*
X79043358Y-92770253D01*
X79057500Y-92784395D01*
X79071643Y-92770253D01*
X79251248Y-92949858D01*
X79237105Y-92964000D01*
X80204323Y-93931218D01*
X80470360Y-93833522D01*
X80522766Y-93726000D01*
X123059928Y-93726000D01*
X123059928Y-96266000D01*
X123072188Y-96390482D01*
X123108498Y-96510180D01*
X123167463Y-96620494D01*
X123246815Y-96717185D01*
X123343506Y-96796537D01*
X123453820Y-96855502D01*
X123573518Y-96891812D01*
X123698000Y-96904072D01*
X125476000Y-96904072D01*
X125600482Y-96891812D01*
X125720180Y-96855502D01*
X125830494Y-96796537D01*
X125927185Y-96717185D01*
X126006537Y-96620494D01*
X126065502Y-96510180D01*
X126075131Y-96478437D01*
X126139172Y-96544433D01*
X126385908Y-96714717D01*
X126661124Y-96833593D01*
X126763987Y-96857134D01*
X127000000Y-96736330D01*
X127000000Y-95123000D01*
X126980000Y-95123000D01*
X126980000Y-94869000D01*
X127000000Y-94869000D01*
X127000000Y-93255670D01*
X126763987Y-93134866D01*
X126661124Y-93158407D01*
X126385908Y-93277283D01*
X126139172Y-93447567D01*
X126075131Y-93513563D01*
X126065502Y-93481820D01*
X126006537Y-93371506D01*
X125927185Y-93274815D01*
X125830494Y-93195463D01*
X125720180Y-93136498D01*
X125600482Y-93100188D01*
X125476000Y-93087928D01*
X125207421Y-93087928D01*
X125136884Y-93030040D01*
X124965767Y-92938576D01*
X124780094Y-92882253D01*
X124587000Y-92863235D01*
X124393907Y-92882253D01*
X124208234Y-92938576D01*
X124037117Y-93030040D01*
X123966580Y-93087928D01*
X123698000Y-93087928D01*
X123573518Y-93100188D01*
X123453820Y-93136498D01*
X123343506Y-93195463D01*
X123246815Y-93274815D01*
X123167463Y-93371506D01*
X123108498Y-93481820D01*
X123072188Y-93601518D01*
X123059928Y-93726000D01*
X80522766Y-93726000D01*
X80612848Y-93541179D01*
X80695564Y-93226656D01*
X80715331Y-92902038D01*
X80671388Y-92579802D01*
X80565424Y-92272330D01*
X80470360Y-92094478D01*
X80304396Y-92033532D01*
X80317680Y-92029502D01*
X80427994Y-91970537D01*
X80524685Y-91891185D01*
X80604037Y-91794494D01*
X80657753Y-91694000D01*
X96457627Y-91694000D01*
X96520000Y-91700143D01*
X96582373Y-91694000D01*
X96582380Y-91694000D01*
X96768963Y-91675623D01*
X97008359Y-91603003D01*
X97228988Y-91485075D01*
X97422370Y-91326370D01*
X97431770Y-91314916D01*
X104902000Y-91314916D01*
X104902000Y-91565084D01*
X104950805Y-91810445D01*
X105046541Y-92041571D01*
X105185527Y-92249578D01*
X105362422Y-92426473D01*
X105570429Y-92565459D01*
X105801555Y-92661195D01*
X106046916Y-92710000D01*
X106297084Y-92710000D01*
X106542445Y-92661195D01*
X106773571Y-92565459D01*
X106981578Y-92426473D01*
X106983051Y-92425000D01*
X120092949Y-92425000D01*
X120094422Y-92426473D01*
X120302429Y-92565459D01*
X120533555Y-92661195D01*
X120778916Y-92710000D01*
X121029084Y-92710000D01*
X121274445Y-92661195D01*
X121505571Y-92565459D01*
X121713578Y-92426473D01*
X121890473Y-92249578D01*
X122029459Y-92041571D01*
X122125195Y-91810445D01*
X122174000Y-91565084D01*
X122174000Y-91314916D01*
X122125195Y-91069555D01*
X122029459Y-90838429D01*
X121890473Y-90630422D01*
X121713578Y-90453527D01*
X121505571Y-90314541D01*
X121274445Y-90218805D01*
X121029084Y-90170000D01*
X120778916Y-90170000D01*
X120533555Y-90218805D01*
X120302429Y-90314541D01*
X120094422Y-90453527D01*
X120092949Y-90455000D01*
X106983051Y-90455000D01*
X106981578Y-90453527D01*
X106773571Y-90314541D01*
X106542445Y-90218805D01*
X106297084Y-90170000D01*
X106046916Y-90170000D01*
X105801555Y-90218805D01*
X105570429Y-90314541D01*
X105362422Y-90453527D01*
X105185527Y-90630422D01*
X105046541Y-90838429D01*
X104950805Y-91069555D01*
X104902000Y-91314916D01*
X97431770Y-91314916D01*
X97462141Y-91277909D01*
X98389914Y-90350137D01*
X98438370Y-90310370D01*
X98597075Y-90116988D01*
X98715003Y-89896359D01*
X98773390Y-89703884D01*
X98787623Y-89656964D01*
X98796947Y-89562291D01*
X98806000Y-89470380D01*
X98806000Y-89470373D01*
X98812143Y-89408000D01*
X98806000Y-89345627D01*
X98806000Y-84264500D01*
X109791500Y-84264500D01*
X109816276Y-84262060D01*
X109840101Y-84254833D01*
X109862057Y-84243097D01*
X109881303Y-84227303D01*
X109897097Y-84208057D01*
X109908833Y-84186101D01*
X109916060Y-84162276D01*
X109918499Y-84137960D01*
X109979923Y-67184916D01*
X112776000Y-67184916D01*
X112776000Y-67435084D01*
X112824805Y-67680445D01*
X112920541Y-67911571D01*
X113011000Y-68046952D01*
X113011001Y-79705162D01*
X113005994Y-79756000D01*
X113025977Y-79958895D01*
X113085160Y-80153993D01*
X113181266Y-80333797D01*
X113278197Y-80451907D01*
X113310605Y-80491396D01*
X113350092Y-80523802D01*
X114802197Y-81975908D01*
X114834604Y-82015396D01*
X114874092Y-82047803D01*
X114903000Y-82071527D01*
X114992203Y-82144734D01*
X115172007Y-82240841D01*
X115367105Y-82300024D01*
X115519162Y-82315000D01*
X115519171Y-82315000D01*
X115569999Y-82320006D01*
X115620827Y-82315000D01*
X116328326Y-82315000D01*
X116256552Y-82422418D01*
X116160816Y-82653544D01*
X116112011Y-82898905D01*
X116112011Y-82938146D01*
X116076084Y-82931000D01*
X115825916Y-82931000D01*
X115580555Y-82979805D01*
X115349429Y-83075541D01*
X115141422Y-83214527D01*
X114964527Y-83391422D01*
X114825541Y-83599429D01*
X114729805Y-83830555D01*
X114681000Y-84075916D01*
X114681000Y-84326084D01*
X114729805Y-84571445D01*
X114825541Y-84802571D01*
X114964527Y-85010578D01*
X115141422Y-85187473D01*
X115349429Y-85326459D01*
X115580555Y-85422195D01*
X115825916Y-85471000D01*
X115940612Y-85471000D01*
X116015070Y-85493586D01*
X116107906Y-85521748D01*
X116301000Y-85540766D01*
X116349380Y-85536001D01*
X116629948Y-85536001D01*
X116615527Y-85550422D01*
X116476541Y-85758429D01*
X116380805Y-85989555D01*
X116332000Y-86234916D01*
X116332000Y-86485084D01*
X116380805Y-86730445D01*
X116476541Y-86961571D01*
X116615527Y-87169578D01*
X116792422Y-87346473D01*
X117000429Y-87485459D01*
X117231555Y-87581195D01*
X117476916Y-87630000D01*
X117727084Y-87630000D01*
X117972445Y-87581195D01*
X118203571Y-87485459D01*
X118411578Y-87346473D01*
X118413051Y-87345000D01*
X129744949Y-87345000D01*
X129746422Y-87346473D01*
X129954429Y-87485459D01*
X130185555Y-87581195D01*
X130430916Y-87630000D01*
X130681084Y-87630000D01*
X130926445Y-87581195D01*
X131157571Y-87485459D01*
X131365578Y-87346473D01*
X131542473Y-87169578D01*
X131681459Y-86961571D01*
X131777195Y-86730445D01*
X131826000Y-86485084D01*
X131826000Y-86234916D01*
X131777195Y-85989555D01*
X131681459Y-85758429D01*
X131542473Y-85550422D01*
X131528052Y-85536001D01*
X132439702Y-85536001D01*
X132471555Y-85549195D01*
X132716916Y-85598000D01*
X132967084Y-85598000D01*
X133212445Y-85549195D01*
X133443571Y-85453459D01*
X133651578Y-85314473D01*
X133828473Y-85137578D01*
X133967459Y-84929571D01*
X134063195Y-84698445D01*
X134112000Y-84453084D01*
X134112000Y-84202916D01*
X134063195Y-83957555D01*
X133967459Y-83726429D01*
X133828473Y-83518422D01*
X133651578Y-83341527D01*
X133443571Y-83202541D01*
X133212445Y-83106805D01*
X132967084Y-83058000D01*
X132716916Y-83058000D01*
X132471555Y-83106805D01*
X132240429Y-83202541D01*
X132032422Y-83341527D01*
X131855527Y-83518422D01*
X131823736Y-83566001D01*
X131720217Y-83566001D01*
X131777195Y-83428445D01*
X131826000Y-83183084D01*
X131826000Y-82932916D01*
X131777195Y-82687555D01*
X131681459Y-82456429D01*
X131542473Y-82248422D01*
X131365578Y-82071527D01*
X131157571Y-81932541D01*
X130926445Y-81836805D01*
X130681084Y-81788000D01*
X130430916Y-81788000D01*
X130185555Y-81836805D01*
X129954429Y-81932541D01*
X129800822Y-82035178D01*
X129903459Y-81881571D01*
X129999195Y-81650445D01*
X130048000Y-81405084D01*
X130048000Y-81154916D01*
X129999195Y-80909555D01*
X129903459Y-80678429D01*
X129764473Y-80470422D01*
X129587578Y-80293527D01*
X129379571Y-80154541D01*
X129148445Y-80058805D01*
X128903084Y-80010000D01*
X128652916Y-80010000D01*
X128407555Y-80058805D01*
X128176429Y-80154541D01*
X128041048Y-80245000D01*
X115998711Y-80245000D01*
X115081000Y-79327290D01*
X115081000Y-70613916D01*
X123317000Y-70613916D01*
X123317000Y-70864084D01*
X123365805Y-71109445D01*
X123461541Y-71340571D01*
X123600527Y-71548578D01*
X123602000Y-71550051D01*
X123602001Y-78055948D01*
X123600527Y-78057422D01*
X123461541Y-78265429D01*
X123365805Y-78496555D01*
X123317000Y-78741916D01*
X123317000Y-78992084D01*
X123365805Y-79237445D01*
X123461541Y-79468571D01*
X123600527Y-79676578D01*
X123777422Y-79853473D01*
X123985429Y-79992459D01*
X124216555Y-80088195D01*
X124461916Y-80137000D01*
X124712084Y-80137000D01*
X124957445Y-80088195D01*
X125188571Y-79992459D01*
X125396578Y-79853473D01*
X125573473Y-79676578D01*
X125712459Y-79468571D01*
X125808195Y-79237445D01*
X125857000Y-78992084D01*
X125857000Y-78741916D01*
X125808195Y-78496555D01*
X125712459Y-78265429D01*
X125573473Y-78057422D01*
X125572000Y-78055949D01*
X125572000Y-71550051D01*
X125573473Y-71548578D01*
X125712459Y-71340571D01*
X125808195Y-71109445D01*
X125857000Y-70864084D01*
X125857000Y-70613916D01*
X125808195Y-70368555D01*
X125712459Y-70137429D01*
X125573473Y-69929422D01*
X125396578Y-69752527D01*
X125188571Y-69613541D01*
X124957445Y-69517805D01*
X124712084Y-69469000D01*
X124461916Y-69469000D01*
X124216555Y-69517805D01*
X123985429Y-69613541D01*
X123777422Y-69752527D01*
X123600527Y-69929422D01*
X123461541Y-70137429D01*
X123365805Y-70368555D01*
X123317000Y-70613916D01*
X115081000Y-70613916D01*
X115081000Y-68046952D01*
X115171459Y-67911571D01*
X115267195Y-67680445D01*
X115316000Y-67435084D01*
X115316000Y-67184916D01*
X115267195Y-66939555D01*
X115171459Y-66708429D01*
X115032473Y-66500422D01*
X114855578Y-66323527D01*
X114647571Y-66184541D01*
X114416445Y-66088805D01*
X114171084Y-66040000D01*
X113920916Y-66040000D01*
X113675555Y-66088805D01*
X113444429Y-66184541D01*
X113236422Y-66323527D01*
X113059527Y-66500422D01*
X112920541Y-66708429D01*
X112824805Y-66939555D01*
X112776000Y-67184916D01*
X109979923Y-67184916D01*
X110055140Y-46424816D01*
X114562922Y-46424816D01*
X114562922Y-46674984D01*
X114611727Y-46920345D01*
X114707463Y-47151471D01*
X114846449Y-47359478D01*
X115023344Y-47536373D01*
X115231351Y-47675359D01*
X115462477Y-47771095D01*
X115707838Y-47819900D01*
X115709922Y-47819900D01*
X115889012Y-47998990D01*
X115889011Y-62146938D01*
X115887538Y-62148411D01*
X115748552Y-62356418D01*
X115652816Y-62587544D01*
X115604011Y-62832905D01*
X115604011Y-63083073D01*
X115652816Y-63328434D01*
X115748552Y-63559560D01*
X115887538Y-63767567D01*
X116064433Y-63944462D01*
X116272440Y-64083448D01*
X116503566Y-64179184D01*
X116748927Y-64227989D01*
X116999095Y-64227989D01*
X117244456Y-64179184D01*
X117475582Y-64083448D01*
X117683589Y-63944462D01*
X117860484Y-63767567D01*
X117999470Y-63559560D01*
X118095206Y-63328434D01*
X118144011Y-63083073D01*
X118144011Y-62832905D01*
X118095206Y-62587544D01*
X117999470Y-62356418D01*
X117860484Y-62148411D01*
X117859011Y-62146938D01*
X117859011Y-47639368D01*
X117863776Y-47590988D01*
X117844758Y-47397894D01*
X117811802Y-47289253D01*
X117788435Y-47212222D01*
X117696971Y-47041105D01*
X117573881Y-46891119D01*
X117536295Y-46860273D01*
X117102922Y-46426900D01*
X117102922Y-46424816D01*
X117054117Y-46179455D01*
X116958381Y-45948329D01*
X116819395Y-45740322D01*
X116642500Y-45563427D01*
X116434493Y-45424441D01*
X116203367Y-45328705D01*
X115958006Y-45279900D01*
X115707838Y-45279900D01*
X115462477Y-45328705D01*
X115231351Y-45424441D01*
X115023344Y-45563427D01*
X114846449Y-45740322D01*
X114707463Y-45948329D01*
X114611727Y-46179455D01*
X114562922Y-46424816D01*
X110055140Y-46424816D01*
X110106010Y-32385000D01*
X119253000Y-32385000D01*
X119253000Y-36830000D01*
G37*
X119253000Y-36830000D02*
X119255440Y-36854776D01*
X119262667Y-36878601D01*
X119274403Y-36900557D01*
X119290197Y-36919803D01*
X119309443Y-36935597D01*
X119331399Y-36947333D01*
X119355224Y-36954560D01*
X119380000Y-36957000D01*
X124523501Y-36957000D01*
X124523500Y-45298447D01*
X124519506Y-45339000D01*
X124535444Y-45500826D01*
X124582647Y-45656434D01*
X124641777Y-45767058D01*
X124620973Y-45735922D01*
X124444078Y-45559027D01*
X124236071Y-45420041D01*
X124004945Y-45324305D01*
X123759584Y-45275500D01*
X123509416Y-45275500D01*
X123264055Y-45324305D01*
X123032929Y-45420041D01*
X122824922Y-45559027D01*
X122648027Y-45735922D01*
X122509041Y-45943929D01*
X122413305Y-46175055D01*
X122364500Y-46420416D01*
X122364500Y-46670584D01*
X122413305Y-46915945D01*
X122509041Y-47147071D01*
X122648027Y-47355078D01*
X122824922Y-47531973D01*
X123032929Y-47670959D01*
X123264055Y-47766695D01*
X123509416Y-47815500D01*
X123511500Y-47815500D01*
X124618284Y-48922284D01*
X124649130Y-48959870D01*
X124799116Y-49082960D01*
X124918489Y-49146766D01*
X124970233Y-49174424D01*
X125155906Y-49230747D01*
X125348999Y-49249765D01*
X125397379Y-49245000D01*
X137768000Y-49245000D01*
X138207000Y-49684001D01*
X138207000Y-51793616D01*
X136582099Y-50168715D01*
X136551253Y-50131129D01*
X136401267Y-50008039D01*
X136230150Y-49916575D01*
X136044477Y-49860252D01*
X135899763Y-49845999D01*
X135851383Y-49841234D01*
X135803003Y-49845999D01*
X122358999Y-49845999D01*
X121889000Y-49376000D01*
X121889000Y-48055051D01*
X121890473Y-48053578D01*
X122029459Y-47845571D01*
X122125195Y-47614445D01*
X122174000Y-47369084D01*
X122174000Y-47118916D01*
X122125195Y-46873555D01*
X122029459Y-46642429D01*
X121890473Y-46434422D01*
X121713578Y-46257527D01*
X121505571Y-46118541D01*
X121274445Y-46022805D01*
X121029084Y-45974000D01*
X120778916Y-45974000D01*
X120533555Y-46022805D01*
X120302429Y-46118541D01*
X120094422Y-46257527D01*
X119917527Y-46434422D01*
X119778541Y-46642429D01*
X119682805Y-46873555D01*
X119634000Y-47118916D01*
X119634000Y-47369084D01*
X119682805Y-47614445D01*
X119778541Y-47845571D01*
X119917527Y-48053578D01*
X119919001Y-48055052D01*
X119919000Y-49735620D01*
X119914235Y-49784000D01*
X119927941Y-49923156D01*
X119933253Y-49977093D01*
X119989576Y-50162766D01*
X120081040Y-50333884D01*
X120204130Y-50483870D01*
X120241716Y-50514716D01*
X121220283Y-51493283D01*
X121251129Y-51530869D01*
X121401115Y-51653959D01*
X121572232Y-51745423D01*
X121714690Y-51788637D01*
X121757904Y-51801746D01*
X121950998Y-51820764D01*
X121999378Y-51815999D01*
X123295783Y-51815999D01*
X123238805Y-51953555D01*
X123190000Y-52198916D01*
X123190000Y-52449084D01*
X123238805Y-52694445D01*
X123334541Y-52925571D01*
X123473527Y-53133578D01*
X123650422Y-53310473D01*
X123694612Y-53340000D01*
X123650422Y-53369527D01*
X123473527Y-53546422D01*
X123334541Y-53754429D01*
X123238805Y-53985555D01*
X123190000Y-54230916D01*
X123190000Y-54481084D01*
X123238805Y-54726445D01*
X123334541Y-54957571D01*
X123473527Y-55165578D01*
X123650422Y-55342473D01*
X123694612Y-55372000D01*
X123650422Y-55401527D01*
X123473527Y-55578422D01*
X123334541Y-55786429D01*
X123238805Y-56017555D01*
X123190000Y-56262916D01*
X123190000Y-56513084D01*
X123238805Y-56758445D01*
X123334541Y-56989571D01*
X123473527Y-57197578D01*
X123650422Y-57374473D01*
X123694612Y-57404000D01*
X123650422Y-57433527D01*
X123473527Y-57610422D01*
X123334541Y-57818429D01*
X123238805Y-58049555D01*
X123190000Y-58294916D01*
X123190000Y-58545084D01*
X123238805Y-58790445D01*
X123334541Y-59021571D01*
X123473527Y-59229578D01*
X123650422Y-59406473D01*
X123858429Y-59545459D01*
X124089555Y-59641195D01*
X124334916Y-59690000D01*
X124585084Y-59690000D01*
X124830445Y-59641195D01*
X125061571Y-59545459D01*
X125269578Y-59406473D01*
X125271051Y-59405000D01*
X129571001Y-59405000D01*
X129571000Y-69800949D01*
X129569527Y-69802422D01*
X129430541Y-70010429D01*
X129334805Y-70241555D01*
X129286000Y-70486916D01*
X129286000Y-70737084D01*
X129334805Y-70982445D01*
X129430541Y-71213571D01*
X129569527Y-71421578D01*
X129746422Y-71598473D01*
X129954429Y-71737459D01*
X130185555Y-71833195D01*
X130430916Y-71882000D01*
X130681084Y-71882000D01*
X130926445Y-71833195D01*
X131157571Y-71737459D01*
X131365578Y-71598473D01*
X131542473Y-71421578D01*
X131605123Y-71327816D01*
X131641238Y-71381867D01*
X131818133Y-71558762D01*
X132026140Y-71697748D01*
X132257266Y-71793484D01*
X132502627Y-71842289D01*
X132752795Y-71842289D01*
X132998156Y-71793484D01*
X133229282Y-71697748D01*
X133437289Y-71558762D01*
X133614184Y-71381867D01*
X133649919Y-71328385D01*
X133798211Y-71476677D01*
X134006218Y-71615663D01*
X134237344Y-71711399D01*
X134482705Y-71760204D01*
X134732873Y-71760204D01*
X134978234Y-71711399D01*
X135209360Y-71615663D01*
X135417367Y-71476677D01*
X135423747Y-71470298D01*
X135570651Y-71617202D01*
X135778658Y-71756188D01*
X136009784Y-71851924D01*
X136255145Y-71900729D01*
X136505313Y-71900729D01*
X136750674Y-71851924D01*
X136888230Y-71794946D01*
X136888230Y-81944851D01*
X136888231Y-87915000D01*
X133398379Y-87915000D01*
X133349999Y-87910235D01*
X133156906Y-87929253D01*
X132971233Y-87985576D01*
X132800116Y-88077040D01*
X132650130Y-88200130D01*
X132619284Y-88237716D01*
X131544711Y-89312289D01*
X131507131Y-89343130D01*
X131384041Y-89493116D01*
X131356012Y-89545555D01*
X131292576Y-89664234D01*
X131236253Y-89849907D01*
X131217235Y-90043000D01*
X131222001Y-90091390D01*
X131222000Y-93451857D01*
X131124156Y-93532156D01*
X130937000Y-93760207D01*
X130749844Y-93532156D01*
X130652000Y-93451858D01*
X130652000Y-90537714D01*
X130665459Y-90517571D01*
X130761195Y-90286445D01*
X130810000Y-90041084D01*
X130810000Y-89790916D01*
X130761195Y-89545555D01*
X130665459Y-89314429D01*
X130526473Y-89106422D01*
X130349578Y-88929527D01*
X130141571Y-88790541D01*
X129910445Y-88694805D01*
X129665084Y-88646000D01*
X129414916Y-88646000D01*
X129169555Y-88694805D01*
X128938429Y-88790541D01*
X128730422Y-88929527D01*
X128553527Y-89106422D01*
X128414541Y-89314429D01*
X128318805Y-89545555D01*
X128270000Y-89790916D01*
X128270000Y-90041084D01*
X128318805Y-90286445D01*
X128414541Y-90517571D01*
X128553527Y-90725578D01*
X128682001Y-90854052D01*
X128682000Y-93451857D01*
X128584156Y-93532156D01*
X128393710Y-93764216D01*
X128391686Y-93768003D01*
X128323602Y-93662715D01*
X128114828Y-93447567D01*
X127868092Y-93277283D01*
X127592876Y-93158407D01*
X127490013Y-93134866D01*
X127254000Y-93255670D01*
X127254000Y-94869000D01*
X127274000Y-94869000D01*
X127274000Y-95123000D01*
X127254000Y-95123000D01*
X127254000Y-96736330D01*
X127490013Y-96857134D01*
X127592876Y-96833593D01*
X127868092Y-96714717D01*
X128114828Y-96544433D01*
X128323602Y-96329285D01*
X128391686Y-96223998D01*
X128393710Y-96227785D01*
X128584156Y-96459844D01*
X128816216Y-96650290D01*
X129080970Y-96791804D01*
X129368245Y-96878948D01*
X129667000Y-96908373D01*
X129965756Y-96878948D01*
X130253031Y-96791804D01*
X130517785Y-96650290D01*
X130749844Y-96459844D01*
X130937000Y-96231794D01*
X131124156Y-96459844D01*
X131356216Y-96650290D01*
X131620970Y-96791804D01*
X131908245Y-96878948D01*
X132207000Y-96908373D01*
X132505756Y-96878948D01*
X132793031Y-96791804D01*
X133057785Y-96650290D01*
X133289844Y-96459844D01*
X133448927Y-96266000D01*
X136140928Y-96266000D01*
X136153188Y-96390482D01*
X136189498Y-96510180D01*
X136248463Y-96620494D01*
X136327815Y-96717185D01*
X136424506Y-96796537D01*
X136534820Y-96855502D01*
X136654518Y-96891812D01*
X136779000Y-96904072D01*
X137382250Y-96901000D01*
X137541000Y-96742250D01*
X137541000Y-95123000D01*
X136302750Y-95123000D01*
X136144000Y-95281750D01*
X136140928Y-96266000D01*
X133448927Y-96266000D01*
X133480290Y-96227785D01*
X133621804Y-95963031D01*
X133708948Y-95675756D01*
X133731000Y-95451858D01*
X133731000Y-94540141D01*
X133708948Y-94316244D01*
X133621804Y-94028969D01*
X133480290Y-93764215D01*
X133448928Y-93726000D01*
X136140928Y-93726000D01*
X136144000Y-94710250D01*
X136302750Y-94869000D01*
X137541000Y-94869000D01*
X137541000Y-93249750D01*
X137382250Y-93091000D01*
X136779000Y-93087928D01*
X136654518Y-93100188D01*
X136534820Y-93136498D01*
X136424506Y-93195463D01*
X136327815Y-93274815D01*
X136248463Y-93371506D01*
X136189498Y-93481820D01*
X136153188Y-93601518D01*
X136140928Y-93726000D01*
X133448928Y-93726000D01*
X133289844Y-93532156D01*
X133192000Y-93451858D01*
X133192000Y-90451000D01*
X133758000Y-89885000D01*
X137268080Y-89885000D01*
X137316460Y-89889765D01*
X137364840Y-89885000D01*
X137509554Y-89870747D01*
X137695227Y-89814424D01*
X137866344Y-89722960D01*
X138016330Y-89599870D01*
X138047176Y-89562284D01*
X138535514Y-89073946D01*
X138573100Y-89043100D01*
X138696190Y-88893114D01*
X138787654Y-88721997D01*
X138843977Y-88536324D01*
X138852072Y-88454131D01*
X138862995Y-88343230D01*
X138858230Y-88294850D01*
X138858230Y-87165230D01*
X139700000Y-88007001D01*
X139700000Y-88009084D01*
X139748805Y-88254445D01*
X139844541Y-88485571D01*
X139983527Y-88693578D01*
X140160422Y-88870473D01*
X140368429Y-89009459D01*
X140599555Y-89105195D01*
X140647648Y-89114761D01*
X140524130Y-89216130D01*
X140493289Y-89253710D01*
X139545711Y-90201289D01*
X139508131Y-90232130D01*
X139385041Y-90382116D01*
X139376242Y-90398578D01*
X139293576Y-90553234D01*
X139237253Y-90738907D01*
X139218235Y-90932000D01*
X139223001Y-90980390D01*
X139223000Y-93451857D01*
X139154473Y-93508096D01*
X139146502Y-93481820D01*
X139087537Y-93371506D01*
X139008185Y-93274815D01*
X138911494Y-93195463D01*
X138801180Y-93136498D01*
X138681482Y-93100188D01*
X138557000Y-93087928D01*
X137953750Y-93091000D01*
X137795000Y-93249750D01*
X137795000Y-94869000D01*
X137815000Y-94869000D01*
X137815000Y-95123000D01*
X137795000Y-95123000D01*
X137795000Y-96742250D01*
X137953750Y-96901000D01*
X138557000Y-96904072D01*
X138681482Y-96891812D01*
X138801180Y-96855502D01*
X138911494Y-96796537D01*
X139008185Y-96717185D01*
X139087537Y-96620494D01*
X139146502Y-96510180D01*
X139154473Y-96483904D01*
X139357216Y-96650290D01*
X139621970Y-96791804D01*
X139909245Y-96878948D01*
X140208000Y-96908373D01*
X140506756Y-96878948D01*
X140794031Y-96791804D01*
X141058785Y-96650290D01*
X141290844Y-96459844D01*
X141478000Y-96231794D01*
X141665156Y-96459844D01*
X141897216Y-96650290D01*
X142161970Y-96791804D01*
X142449245Y-96878948D01*
X142748000Y-96908373D01*
X143046756Y-96878948D01*
X143334031Y-96791804D01*
X143598785Y-96650290D01*
X143830844Y-96459844D01*
X144018000Y-96231794D01*
X144205156Y-96459844D01*
X144437216Y-96650290D01*
X144701970Y-96791804D01*
X144989245Y-96878948D01*
X145288000Y-96908373D01*
X145586756Y-96878948D01*
X145874031Y-96791804D01*
X146138785Y-96650290D01*
X146370844Y-96459844D01*
X146561290Y-96227785D01*
X146693199Y-95981000D01*
X147779620Y-95981000D01*
X147828000Y-95985765D01*
X147876380Y-95981000D01*
X148021094Y-95966747D01*
X148206767Y-95910424D01*
X148377884Y-95818960D01*
X148527870Y-95695870D01*
X148558716Y-95658284D01*
X150014284Y-94202716D01*
X150051870Y-94171870D01*
X150174960Y-94021884D01*
X150266424Y-93850767D01*
X150322747Y-93665094D01*
X150337000Y-93520380D01*
X150337000Y-93520379D01*
X150341765Y-93472001D01*
X150337000Y-93423623D01*
X150337000Y-47800380D01*
X150341765Y-47752000D01*
X150322747Y-47558906D01*
X150266424Y-47373233D01*
X150247362Y-47337571D01*
X150174960Y-47202116D01*
X150051870Y-47052130D01*
X150014290Y-47021289D01*
X149606000Y-46612999D01*
X149606000Y-46610916D01*
X149557195Y-46365555D01*
X149461459Y-46134429D01*
X149322473Y-45926422D01*
X149145578Y-45749527D01*
X148937571Y-45610541D01*
X148706445Y-45514805D01*
X148461084Y-45466000D01*
X148210916Y-45466000D01*
X147965555Y-45514805D01*
X147734429Y-45610541D01*
X147526422Y-45749527D01*
X147349527Y-45926422D01*
X147210541Y-46134429D01*
X147114805Y-46365555D01*
X147066000Y-46610916D01*
X147066000Y-46861084D01*
X147114805Y-47106445D01*
X147210541Y-47337571D01*
X147317736Y-47498000D01*
X147194916Y-47498000D01*
X146949555Y-47546805D01*
X146718429Y-47642541D01*
X146510422Y-47781527D01*
X146333527Y-47958422D01*
X146194541Y-48166429D01*
X146098805Y-48397555D01*
X146050000Y-48642916D01*
X146050000Y-48893084D01*
X146098805Y-49138445D01*
X146194541Y-49369571D01*
X146333527Y-49577578D01*
X146510422Y-49754473D01*
X146718429Y-49893459D01*
X146949555Y-49989195D01*
X146969999Y-49993262D01*
X146969999Y-53733948D01*
X146859578Y-53623527D01*
X146651571Y-53484541D01*
X146420445Y-53388805D01*
X146175084Y-53340000D01*
X145924916Y-53340000D01*
X145679555Y-53388805D01*
X145448429Y-53484541D01*
X145240422Y-53623527D01*
X145063527Y-53800422D01*
X144924541Y-54008429D01*
X144828805Y-54239555D01*
X144780000Y-54484916D01*
X144780000Y-54735084D01*
X144828805Y-54980445D01*
X144924541Y-55211571D01*
X145063527Y-55419578D01*
X145065001Y-55421052D01*
X145065000Y-87170379D01*
X145065001Y-87170389D01*
X145065000Y-88745999D01*
X144880000Y-88931000D01*
X141688993Y-88931000D01*
X141779578Y-88870473D01*
X141956473Y-88693578D01*
X142095459Y-88485571D01*
X142191195Y-88254445D01*
X142240000Y-88009084D01*
X142240000Y-87758916D01*
X142191195Y-87513555D01*
X142095459Y-87282429D01*
X141956473Y-87074422D01*
X141779578Y-86897527D01*
X141571571Y-86758541D01*
X141340445Y-86662805D01*
X141095084Y-86614000D01*
X141093001Y-86614000D01*
X140177000Y-85698000D01*
X140177000Y-49324380D01*
X140181765Y-49276000D01*
X140162747Y-49082906D01*
X140106424Y-48897233D01*
X140082842Y-48853115D01*
X140014960Y-48726116D01*
X139891870Y-48576130D01*
X139854290Y-48545289D01*
X138906715Y-47597715D01*
X138875870Y-47560130D01*
X138725884Y-47437040D01*
X138554767Y-47345576D01*
X138369094Y-47289253D01*
X138224380Y-47275000D01*
X138176000Y-47270235D01*
X138127620Y-47275000D01*
X125757000Y-47275000D01*
X124904500Y-46422500D01*
X124904500Y-46420416D01*
X124855695Y-46175055D01*
X124759959Y-45943929D01*
X124682881Y-45828573D01*
X124762459Y-45925541D01*
X124888158Y-46028699D01*
X125031566Y-46105353D01*
X125187174Y-46152556D01*
X125349000Y-46168494D01*
X125389553Y-46164500D01*
X145691947Y-46164500D01*
X145732500Y-46168494D01*
X145773053Y-46164500D01*
X145894326Y-46152556D01*
X146049934Y-46105353D01*
X146193342Y-46028699D01*
X146319041Y-45925541D01*
X146422199Y-45799842D01*
X146498853Y-45656434D01*
X146546056Y-45500826D01*
X146561994Y-45339000D01*
X146558000Y-45298447D01*
X146558000Y-36576000D01*
X150876000Y-36576000D01*
X150900776Y-36573560D01*
X150924601Y-36566333D01*
X150946557Y-36554597D01*
X150965803Y-36538803D01*
X150981597Y-36519557D01*
X150993333Y-36497601D01*
X151000560Y-36473776D01*
X151003000Y-36449000D01*
X151003000Y-32385000D01*
X158496000Y-32385000D01*
X158496000Y-104965500D01*
X76708000Y-104965500D01*
X76708000Y-100965000D01*
X76705560Y-100940224D01*
X76698333Y-100916399D01*
X76686597Y-100894443D01*
X76670803Y-100875197D01*
X76651557Y-100859403D01*
X76629601Y-100847667D01*
X76605776Y-100840440D01*
X76581000Y-100838000D01*
X72517000Y-100838000D01*
X72517000Y-95250000D01*
X81527856Y-95250000D01*
X81534000Y-95312380D01*
X81534000Y-95375084D01*
X81546233Y-95436585D01*
X81552377Y-95498963D01*
X81570571Y-95558941D01*
X81582805Y-95620445D01*
X81606803Y-95678380D01*
X81624997Y-95738359D01*
X81654545Y-95793639D01*
X81678541Y-95851571D01*
X81713375Y-95903704D01*
X81742925Y-95958988D01*
X81782693Y-96007445D01*
X81817527Y-96059578D01*
X81861863Y-96103914D01*
X81901630Y-96152370D01*
X81950086Y-96192137D01*
X81994422Y-96236473D01*
X82046555Y-96271307D01*
X82095012Y-96311075D01*
X82150296Y-96340625D01*
X82202429Y-96375459D01*
X82260361Y-96399455D01*
X82315641Y-96429003D01*
X82375620Y-96447197D01*
X82433555Y-96471195D01*
X82495059Y-96483429D01*
X82555037Y-96501623D01*
X82617415Y-96507767D01*
X82678916Y-96520000D01*
X116567950Y-96520000D01*
X117631527Y-97583578D01*
X117808422Y-97760473D01*
X117860557Y-97795308D01*
X117909011Y-97835074D01*
X117964292Y-97864622D01*
X118016429Y-97899459D01*
X118074364Y-97923457D01*
X118129640Y-97953002D01*
X118189616Y-97971196D01*
X118247555Y-97995195D01*
X118309058Y-98007429D01*
X118369036Y-98025623D01*
X118431413Y-98031766D01*
X118492916Y-98044000D01*
X118555626Y-98044000D01*
X118617999Y-98050143D01*
X118680372Y-98044000D01*
X118743084Y-98044000D01*
X118804589Y-98031766D01*
X118866962Y-98025623D01*
X118926936Y-98007430D01*
X118988445Y-97995195D01*
X119046389Y-97971194D01*
X119106358Y-97953002D01*
X119161627Y-97923460D01*
X119219571Y-97899459D01*
X119271716Y-97864617D01*
X119326987Y-97835074D01*
X119375433Y-97795315D01*
X119427578Y-97760473D01*
X119471925Y-97716126D01*
X119520369Y-97676369D01*
X119560126Y-97627925D01*
X119604473Y-97583578D01*
X119639315Y-97531433D01*
X119679074Y-97482987D01*
X119708617Y-97427716D01*
X119743459Y-97375571D01*
X119767460Y-97317627D01*
X119797002Y-97262358D01*
X119815194Y-97202389D01*
X119839195Y-97144445D01*
X119851430Y-97082936D01*
X119869623Y-97022962D01*
X119875766Y-96960589D01*
X119888000Y-96899084D01*
X119888000Y-96836372D01*
X119894143Y-96773999D01*
X119888000Y-96711626D01*
X119888000Y-96648916D01*
X119875766Y-96587413D01*
X119869623Y-96525036D01*
X119851429Y-96465058D01*
X119839195Y-96403555D01*
X119815196Y-96345616D01*
X119797002Y-96285640D01*
X119767457Y-96230364D01*
X119743459Y-96172429D01*
X119708622Y-96120292D01*
X119679074Y-96065011D01*
X119639308Y-96016557D01*
X119604473Y-95964422D01*
X119427578Y-95787527D01*
X118036141Y-94396091D01*
X117996370Y-94347630D01*
X117802988Y-94188925D01*
X117582359Y-94070997D01*
X117342963Y-93998377D01*
X117156380Y-93980000D01*
X117156373Y-93980000D01*
X117094000Y-93973857D01*
X117031627Y-93980000D01*
X82678916Y-93980000D01*
X82617415Y-93992233D01*
X82555037Y-93998377D01*
X82495059Y-94016571D01*
X82433555Y-94028805D01*
X82375620Y-94052803D01*
X82315641Y-94070997D01*
X82260361Y-94100545D01*
X82202429Y-94124541D01*
X82150296Y-94159375D01*
X82095012Y-94188925D01*
X82046555Y-94228693D01*
X81994422Y-94263527D01*
X81950086Y-94307863D01*
X81901630Y-94347630D01*
X81861863Y-94396086D01*
X81817527Y-94440422D01*
X81782693Y-94492555D01*
X81742925Y-94541012D01*
X81713375Y-94596296D01*
X81678541Y-94648429D01*
X81654545Y-94706361D01*
X81624997Y-94761641D01*
X81606803Y-94821620D01*
X81582805Y-94879555D01*
X81570571Y-94941059D01*
X81552377Y-95001037D01*
X81546233Y-95063415D01*
X81534000Y-95124916D01*
X81534000Y-95187620D01*
X81527856Y-95250000D01*
X72517000Y-95250000D01*
X72517000Y-94110823D01*
X78090282Y-94110823D01*
X78187978Y-94376860D01*
X78480321Y-94519348D01*
X78794844Y-94602064D01*
X79119462Y-94621831D01*
X79441698Y-94577888D01*
X79749170Y-94471924D01*
X79927022Y-94376860D01*
X80024718Y-94110823D01*
X79057500Y-93143605D01*
X78090282Y-94110823D01*
X72517000Y-94110823D01*
X72517000Y-84264500D01*
X96266001Y-84264500D01*
X96266001Y-88881948D01*
X95993950Y-89154000D01*
X80657753Y-89154000D01*
X80604037Y-89053506D01*
X80524685Y-88956815D01*
X80427994Y-88877463D01*
X80317680Y-88818498D01*
X80197982Y-88782188D01*
X80073500Y-88769928D01*
X78041500Y-88769928D01*
X77917018Y-88782188D01*
X77797320Y-88818498D01*
X77687006Y-88877463D01*
X77590315Y-88956815D01*
X77510963Y-89053506D01*
X77451998Y-89163820D01*
X77415688Y-89283518D01*
X77403428Y-89408000D01*
X77403428Y-91440000D01*
X77415688Y-91564482D01*
X77451998Y-91684180D01*
X77510963Y-91794494D01*
X77590315Y-91891185D01*
X77687006Y-91970537D01*
X77797320Y-92029502D01*
X77810604Y-92033532D01*
X77644640Y-92094478D01*
X77502152Y-92386821D01*
X77419436Y-92701344D01*
X77399669Y-93025962D01*
X77443612Y-93348198D01*
X77549576Y-93655670D01*
X77644640Y-93833522D01*
X77910677Y-93931218D01*
X78877895Y-92964000D01*
X78863753Y-92949858D01*
X79043358Y-92770253D01*
X79057500Y-92784395D01*
X79071643Y-92770253D01*
X79251248Y-92949858D01*
X79237105Y-92964000D01*
X80204323Y-93931218D01*
X80470360Y-93833522D01*
X80522766Y-93726000D01*
X123059928Y-93726000D01*
X123059928Y-96266000D01*
X123072188Y-96390482D01*
X123108498Y-96510180D01*
X123167463Y-96620494D01*
X123246815Y-96717185D01*
X123343506Y-96796537D01*
X123453820Y-96855502D01*
X123573518Y-96891812D01*
X123698000Y-96904072D01*
X125476000Y-96904072D01*
X125600482Y-96891812D01*
X125720180Y-96855502D01*
X125830494Y-96796537D01*
X125927185Y-96717185D01*
X126006537Y-96620494D01*
X126065502Y-96510180D01*
X126075131Y-96478437D01*
X126139172Y-96544433D01*
X126385908Y-96714717D01*
X126661124Y-96833593D01*
X126763987Y-96857134D01*
X127000000Y-96736330D01*
X127000000Y-95123000D01*
X126980000Y-95123000D01*
X126980000Y-94869000D01*
X127000000Y-94869000D01*
X127000000Y-93255670D01*
X126763987Y-93134866D01*
X126661124Y-93158407D01*
X126385908Y-93277283D01*
X126139172Y-93447567D01*
X126075131Y-93513563D01*
X126065502Y-93481820D01*
X126006537Y-93371506D01*
X125927185Y-93274815D01*
X125830494Y-93195463D01*
X125720180Y-93136498D01*
X125600482Y-93100188D01*
X125476000Y-93087928D01*
X125207421Y-93087928D01*
X125136884Y-93030040D01*
X124965767Y-92938576D01*
X124780094Y-92882253D01*
X124587000Y-92863235D01*
X124393907Y-92882253D01*
X124208234Y-92938576D01*
X124037117Y-93030040D01*
X123966580Y-93087928D01*
X123698000Y-93087928D01*
X123573518Y-93100188D01*
X123453820Y-93136498D01*
X123343506Y-93195463D01*
X123246815Y-93274815D01*
X123167463Y-93371506D01*
X123108498Y-93481820D01*
X123072188Y-93601518D01*
X123059928Y-93726000D01*
X80522766Y-93726000D01*
X80612848Y-93541179D01*
X80695564Y-93226656D01*
X80715331Y-92902038D01*
X80671388Y-92579802D01*
X80565424Y-92272330D01*
X80470360Y-92094478D01*
X80304396Y-92033532D01*
X80317680Y-92029502D01*
X80427994Y-91970537D01*
X80524685Y-91891185D01*
X80604037Y-91794494D01*
X80657753Y-91694000D01*
X96457627Y-91694000D01*
X96520000Y-91700143D01*
X96582373Y-91694000D01*
X96582380Y-91694000D01*
X96768963Y-91675623D01*
X97008359Y-91603003D01*
X97228988Y-91485075D01*
X97422370Y-91326370D01*
X97431770Y-91314916D01*
X104902000Y-91314916D01*
X104902000Y-91565084D01*
X104950805Y-91810445D01*
X105046541Y-92041571D01*
X105185527Y-92249578D01*
X105362422Y-92426473D01*
X105570429Y-92565459D01*
X105801555Y-92661195D01*
X106046916Y-92710000D01*
X106297084Y-92710000D01*
X106542445Y-92661195D01*
X106773571Y-92565459D01*
X106981578Y-92426473D01*
X106983051Y-92425000D01*
X120092949Y-92425000D01*
X120094422Y-92426473D01*
X120302429Y-92565459D01*
X120533555Y-92661195D01*
X120778916Y-92710000D01*
X121029084Y-92710000D01*
X121274445Y-92661195D01*
X121505571Y-92565459D01*
X121713578Y-92426473D01*
X121890473Y-92249578D01*
X122029459Y-92041571D01*
X122125195Y-91810445D01*
X122174000Y-91565084D01*
X122174000Y-91314916D01*
X122125195Y-91069555D01*
X122029459Y-90838429D01*
X121890473Y-90630422D01*
X121713578Y-90453527D01*
X121505571Y-90314541D01*
X121274445Y-90218805D01*
X121029084Y-90170000D01*
X120778916Y-90170000D01*
X120533555Y-90218805D01*
X120302429Y-90314541D01*
X120094422Y-90453527D01*
X120092949Y-90455000D01*
X106983051Y-90455000D01*
X106981578Y-90453527D01*
X106773571Y-90314541D01*
X106542445Y-90218805D01*
X106297084Y-90170000D01*
X106046916Y-90170000D01*
X105801555Y-90218805D01*
X105570429Y-90314541D01*
X105362422Y-90453527D01*
X105185527Y-90630422D01*
X105046541Y-90838429D01*
X104950805Y-91069555D01*
X104902000Y-91314916D01*
X97431770Y-91314916D01*
X97462141Y-91277909D01*
X98389914Y-90350137D01*
X98438370Y-90310370D01*
X98597075Y-90116988D01*
X98715003Y-89896359D01*
X98773390Y-89703884D01*
X98787623Y-89656964D01*
X98796947Y-89562291D01*
X98806000Y-89470380D01*
X98806000Y-89470373D01*
X98812143Y-89408000D01*
X98806000Y-89345627D01*
X98806000Y-84264500D01*
X109791500Y-84264500D01*
X109816276Y-84262060D01*
X109840101Y-84254833D01*
X109862057Y-84243097D01*
X109881303Y-84227303D01*
X109897097Y-84208057D01*
X109908833Y-84186101D01*
X109916060Y-84162276D01*
X109918499Y-84137960D01*
X109979923Y-67184916D01*
X112776000Y-67184916D01*
X112776000Y-67435084D01*
X112824805Y-67680445D01*
X112920541Y-67911571D01*
X113011000Y-68046952D01*
X113011001Y-79705162D01*
X113005994Y-79756000D01*
X113025977Y-79958895D01*
X113085160Y-80153993D01*
X113181266Y-80333797D01*
X113278197Y-80451907D01*
X113310605Y-80491396D01*
X113350092Y-80523802D01*
X114802197Y-81975908D01*
X114834604Y-82015396D01*
X114874092Y-82047803D01*
X114903000Y-82071527D01*
X114992203Y-82144734D01*
X115172007Y-82240841D01*
X115367105Y-82300024D01*
X115519162Y-82315000D01*
X115519171Y-82315000D01*
X115569999Y-82320006D01*
X115620827Y-82315000D01*
X116328326Y-82315000D01*
X116256552Y-82422418D01*
X116160816Y-82653544D01*
X116112011Y-82898905D01*
X116112011Y-82938146D01*
X116076084Y-82931000D01*
X115825916Y-82931000D01*
X115580555Y-82979805D01*
X115349429Y-83075541D01*
X115141422Y-83214527D01*
X114964527Y-83391422D01*
X114825541Y-83599429D01*
X114729805Y-83830555D01*
X114681000Y-84075916D01*
X114681000Y-84326084D01*
X114729805Y-84571445D01*
X114825541Y-84802571D01*
X114964527Y-85010578D01*
X115141422Y-85187473D01*
X115349429Y-85326459D01*
X115580555Y-85422195D01*
X115825916Y-85471000D01*
X115940612Y-85471000D01*
X116015070Y-85493586D01*
X116107906Y-85521748D01*
X116301000Y-85540766D01*
X116349380Y-85536001D01*
X116629948Y-85536001D01*
X116615527Y-85550422D01*
X116476541Y-85758429D01*
X116380805Y-85989555D01*
X116332000Y-86234916D01*
X116332000Y-86485084D01*
X116380805Y-86730445D01*
X116476541Y-86961571D01*
X116615527Y-87169578D01*
X116792422Y-87346473D01*
X117000429Y-87485459D01*
X117231555Y-87581195D01*
X117476916Y-87630000D01*
X117727084Y-87630000D01*
X117972445Y-87581195D01*
X118203571Y-87485459D01*
X118411578Y-87346473D01*
X118413051Y-87345000D01*
X129744949Y-87345000D01*
X129746422Y-87346473D01*
X129954429Y-87485459D01*
X130185555Y-87581195D01*
X130430916Y-87630000D01*
X130681084Y-87630000D01*
X130926445Y-87581195D01*
X131157571Y-87485459D01*
X131365578Y-87346473D01*
X131542473Y-87169578D01*
X131681459Y-86961571D01*
X131777195Y-86730445D01*
X131826000Y-86485084D01*
X131826000Y-86234916D01*
X131777195Y-85989555D01*
X131681459Y-85758429D01*
X131542473Y-85550422D01*
X131528052Y-85536001D01*
X132439702Y-85536001D01*
X132471555Y-85549195D01*
X132716916Y-85598000D01*
X132967084Y-85598000D01*
X133212445Y-85549195D01*
X133443571Y-85453459D01*
X133651578Y-85314473D01*
X133828473Y-85137578D01*
X133967459Y-84929571D01*
X134063195Y-84698445D01*
X134112000Y-84453084D01*
X134112000Y-84202916D01*
X134063195Y-83957555D01*
X133967459Y-83726429D01*
X133828473Y-83518422D01*
X133651578Y-83341527D01*
X133443571Y-83202541D01*
X133212445Y-83106805D01*
X132967084Y-83058000D01*
X132716916Y-83058000D01*
X132471555Y-83106805D01*
X132240429Y-83202541D01*
X132032422Y-83341527D01*
X131855527Y-83518422D01*
X131823736Y-83566001D01*
X131720217Y-83566001D01*
X131777195Y-83428445D01*
X131826000Y-83183084D01*
X131826000Y-82932916D01*
X131777195Y-82687555D01*
X131681459Y-82456429D01*
X131542473Y-82248422D01*
X131365578Y-82071527D01*
X131157571Y-81932541D01*
X130926445Y-81836805D01*
X130681084Y-81788000D01*
X130430916Y-81788000D01*
X130185555Y-81836805D01*
X129954429Y-81932541D01*
X129800822Y-82035178D01*
X129903459Y-81881571D01*
X129999195Y-81650445D01*
X130048000Y-81405084D01*
X130048000Y-81154916D01*
X129999195Y-80909555D01*
X129903459Y-80678429D01*
X129764473Y-80470422D01*
X129587578Y-80293527D01*
X129379571Y-80154541D01*
X129148445Y-80058805D01*
X128903084Y-80010000D01*
X128652916Y-80010000D01*
X128407555Y-80058805D01*
X128176429Y-80154541D01*
X128041048Y-80245000D01*
X115998711Y-80245000D01*
X115081000Y-79327290D01*
X115081000Y-70613916D01*
X123317000Y-70613916D01*
X123317000Y-70864084D01*
X123365805Y-71109445D01*
X123461541Y-71340571D01*
X123600527Y-71548578D01*
X123602000Y-71550051D01*
X123602001Y-78055948D01*
X123600527Y-78057422D01*
X123461541Y-78265429D01*
X123365805Y-78496555D01*
X123317000Y-78741916D01*
X123317000Y-78992084D01*
X123365805Y-79237445D01*
X123461541Y-79468571D01*
X123600527Y-79676578D01*
X123777422Y-79853473D01*
X123985429Y-79992459D01*
X124216555Y-80088195D01*
X124461916Y-80137000D01*
X124712084Y-80137000D01*
X124957445Y-80088195D01*
X125188571Y-79992459D01*
X125396578Y-79853473D01*
X125573473Y-79676578D01*
X125712459Y-79468571D01*
X125808195Y-79237445D01*
X125857000Y-78992084D01*
X125857000Y-78741916D01*
X125808195Y-78496555D01*
X125712459Y-78265429D01*
X125573473Y-78057422D01*
X125572000Y-78055949D01*
X125572000Y-71550051D01*
X125573473Y-71548578D01*
X125712459Y-71340571D01*
X125808195Y-71109445D01*
X125857000Y-70864084D01*
X125857000Y-70613916D01*
X125808195Y-70368555D01*
X125712459Y-70137429D01*
X125573473Y-69929422D01*
X125396578Y-69752527D01*
X125188571Y-69613541D01*
X124957445Y-69517805D01*
X124712084Y-69469000D01*
X124461916Y-69469000D01*
X124216555Y-69517805D01*
X123985429Y-69613541D01*
X123777422Y-69752527D01*
X123600527Y-69929422D01*
X123461541Y-70137429D01*
X123365805Y-70368555D01*
X123317000Y-70613916D01*
X115081000Y-70613916D01*
X115081000Y-68046952D01*
X115171459Y-67911571D01*
X115267195Y-67680445D01*
X115316000Y-67435084D01*
X115316000Y-67184916D01*
X115267195Y-66939555D01*
X115171459Y-66708429D01*
X115032473Y-66500422D01*
X114855578Y-66323527D01*
X114647571Y-66184541D01*
X114416445Y-66088805D01*
X114171084Y-66040000D01*
X113920916Y-66040000D01*
X113675555Y-66088805D01*
X113444429Y-66184541D01*
X113236422Y-66323527D01*
X113059527Y-66500422D01*
X112920541Y-66708429D01*
X112824805Y-66939555D01*
X112776000Y-67184916D01*
X109979923Y-67184916D01*
X110055140Y-46424816D01*
X114562922Y-46424816D01*
X114562922Y-46674984D01*
X114611727Y-46920345D01*
X114707463Y-47151471D01*
X114846449Y-47359478D01*
X115023344Y-47536373D01*
X115231351Y-47675359D01*
X115462477Y-47771095D01*
X115707838Y-47819900D01*
X115709922Y-47819900D01*
X115889012Y-47998990D01*
X115889011Y-62146938D01*
X115887538Y-62148411D01*
X115748552Y-62356418D01*
X115652816Y-62587544D01*
X115604011Y-62832905D01*
X115604011Y-63083073D01*
X115652816Y-63328434D01*
X115748552Y-63559560D01*
X115887538Y-63767567D01*
X116064433Y-63944462D01*
X116272440Y-64083448D01*
X116503566Y-64179184D01*
X116748927Y-64227989D01*
X116999095Y-64227989D01*
X117244456Y-64179184D01*
X117475582Y-64083448D01*
X117683589Y-63944462D01*
X117860484Y-63767567D01*
X117999470Y-63559560D01*
X118095206Y-63328434D01*
X118144011Y-63083073D01*
X118144011Y-62832905D01*
X118095206Y-62587544D01*
X117999470Y-62356418D01*
X117860484Y-62148411D01*
X117859011Y-62146938D01*
X117859011Y-47639368D01*
X117863776Y-47590988D01*
X117844758Y-47397894D01*
X117811802Y-47289253D01*
X117788435Y-47212222D01*
X117696971Y-47041105D01*
X117573881Y-46891119D01*
X117536295Y-46860273D01*
X117102922Y-46426900D01*
X117102922Y-46424816D01*
X117054117Y-46179455D01*
X116958381Y-45948329D01*
X116819395Y-45740322D01*
X116642500Y-45563427D01*
X116434493Y-45424441D01*
X116203367Y-45328705D01*
X115958006Y-45279900D01*
X115707838Y-45279900D01*
X115462477Y-45328705D01*
X115231351Y-45424441D01*
X115023344Y-45563427D01*
X114846449Y-45740322D01*
X114707463Y-45948329D01*
X114611727Y-46179455D01*
X114562922Y-46424816D01*
X110055140Y-46424816D01*
X110106010Y-32385000D01*
X119253000Y-32385000D01*
X119253000Y-36830000D01*
M02*
