%FSLAX45Y45*%
G04 Gerber Fmt 4.5, Leading zero omitted, Abs format (unit mm)*
G04 Created by KiCad (PCBNEW (5.1.6)-1) date 2020-06-22 15:28:16*
%MOMM*%
%LPD*%
G01*
G04 APERTURE LIST*
%TA.AperFunction,Profile*%
%ADD10C,0.203200*%
%TD*%
%TA.AperFunction,Profile*%
%ADD11C,0.381000*%
%TD*%
%ADD12C,0.200000*%
%ADD13C,0.300000*%
G04 APERTURE END LIST*
D10*
X16046450Y-8826500D02*
X15944850Y-8928100D01*
X16605250Y-8826500D02*
X16046450Y-8826500D01*
X15944850Y-9461500D02*
X16046450Y-9563100D01*
X15944850Y-8928100D02*
X15944850Y-9461500D01*
X16046450Y-9563100D02*
X16605250Y-9563100D01*
X16605250Y-9563100D02*
X16605250Y-9455150D01*
X16046450Y-8978900D02*
X16097250Y-8928100D01*
X16605250Y-9455150D02*
X16097250Y-9455150D01*
X16046450Y-9404350D02*
X16046450Y-8978900D01*
X16097250Y-8928100D02*
X16605250Y-8928100D01*
X16605250Y-8928100D02*
X16605250Y-8826500D01*
X16097250Y-9455150D02*
X16046450Y-9404350D01*
X16033750Y-7150100D02*
X15932150Y-7251700D01*
X16592550Y-7150100D02*
X16033750Y-7150100D01*
X15932150Y-7785100D02*
X16033750Y-7886700D01*
X15932150Y-7251700D02*
X15932150Y-7785100D01*
X16033750Y-7886700D02*
X16592550Y-7886700D01*
X16592550Y-7886700D02*
X16592550Y-7778750D01*
X16033750Y-7302500D02*
X16084550Y-7251700D01*
X16592550Y-7778750D02*
X16084550Y-7778750D01*
X16033750Y-7727950D02*
X16033750Y-7302500D01*
X16084550Y-7251700D02*
X16592550Y-7251700D01*
X16592550Y-7251700D02*
X16592550Y-7150100D01*
X16084550Y-7778750D02*
X16033750Y-7727950D01*
X16027400Y-5397500D02*
X15925800Y-5499100D01*
X16586200Y-5397500D02*
X16027400Y-5397500D01*
X15925800Y-6032500D02*
X16027400Y-6134100D01*
X15925800Y-5499100D02*
X15925800Y-6032500D01*
X16027400Y-6134100D02*
X16586200Y-6134100D01*
X16586200Y-6134100D02*
X16586200Y-6026150D01*
X16027400Y-5549900D02*
X16078200Y-5499100D01*
X16586200Y-6026150D02*
X16078200Y-6026150D01*
X16027400Y-5975350D02*
X16027400Y-5549900D01*
X16078200Y-5499100D02*
X16586200Y-5499100D01*
X16586200Y-5499100D02*
X16586200Y-5397500D01*
X16078200Y-6026150D02*
X16027400Y-5975350D01*
X16027400Y-3702050D02*
X15925800Y-3803650D01*
X16586200Y-3702050D02*
X16027400Y-3702050D01*
X15925800Y-4337050D02*
X16027400Y-4438650D01*
X15925800Y-3803650D02*
X15925800Y-4337050D01*
X16027400Y-4438650D02*
X16586200Y-4438650D01*
X16586200Y-4438650D02*
X16586200Y-4330700D01*
X16027400Y-3854450D02*
X16078200Y-3803650D01*
X16586200Y-4330700D02*
X16078200Y-4330700D01*
X16027400Y-4279900D02*
X16027400Y-3854450D01*
X16078200Y-3803650D02*
X16586200Y-3803650D01*
X16586200Y-3803650D02*
X16586200Y-3702050D01*
X16078200Y-4330700D02*
X16027400Y-4279900D01*
X10737850Y-6108700D02*
X10839450Y-6007100D01*
X10179050Y-6108700D02*
X10737850Y-6108700D01*
X10839450Y-5473700D02*
X10737850Y-5372100D01*
X10839450Y-6007100D02*
X10839450Y-5473700D01*
X10737850Y-5372100D02*
X10179050Y-5372100D01*
X10179050Y-5372100D02*
X10179050Y-5480050D01*
X10737850Y-5956300D02*
X10687050Y-6007100D01*
X10179050Y-5480050D02*
X10687050Y-5480050D01*
X10737850Y-5530850D02*
X10737850Y-5956300D01*
X10687050Y-6007100D02*
X10179050Y-6007100D01*
X10179050Y-6007100D02*
X10179050Y-6108700D01*
X10687050Y-5480050D02*
X10737850Y-5530850D01*
X10769600Y-7874000D02*
X10871200Y-7772400D01*
X10210800Y-7874000D02*
X10769600Y-7874000D01*
X10871200Y-7239000D02*
X10769600Y-7137400D01*
X10871200Y-7772400D02*
X10871200Y-7239000D01*
X10769600Y-7137400D02*
X10210800Y-7137400D01*
X10210800Y-7137400D02*
X10210800Y-7245350D01*
X10769600Y-7721600D02*
X10718800Y-7772400D01*
X10210800Y-7245350D02*
X10718800Y-7245350D01*
X10769600Y-7296150D02*
X10769600Y-7721600D01*
X10718800Y-7772400D02*
X10210800Y-7772400D01*
X10210800Y-7772400D02*
X10210800Y-7874000D01*
X10718800Y-7245350D02*
X10769600Y-7296150D01*
X10737850Y-4425950D02*
X10839450Y-4324350D01*
X10179050Y-4425950D02*
X10737850Y-4425950D01*
X10839450Y-3790950D02*
X10737850Y-3689350D01*
X10839450Y-4324350D02*
X10839450Y-3790950D01*
X10737850Y-3689350D02*
X10179050Y-3689350D01*
X10179050Y-3689350D02*
X10179050Y-3797300D01*
X10737850Y-4273550D02*
X10687050Y-4324350D01*
X10179050Y-3797300D02*
X10687050Y-3797300D01*
X10737850Y-3848100D02*
X10737850Y-4273550D01*
X10687050Y-4324350D02*
X10179050Y-4324350D01*
X10179050Y-4324350D02*
X10179050Y-4425950D01*
X10687050Y-3797300D02*
X10737850Y-3848100D01*
D11*
X7169150Y-3155950D02*
X12534900Y-3155950D01*
X14573250Y-3155950D02*
X19615150Y-3155950D01*
X12534900Y-4533900D02*
X12534900Y-3155950D01*
X14573250Y-4533900D02*
X14573250Y-3155950D01*
X12534900Y-4533900D02*
X14573250Y-4533900D01*
X7169150Y-10579100D02*
X7169150Y-3155950D01*
X19621500Y-10579100D02*
X7169150Y-10579100D01*
X19615150Y-3155950D02*
X19621500Y-10579100D01*
D12*
X7308850Y-8655050D02*
X7372350Y-8718550D01*
X7372350Y-8655050D02*
X7308850Y-8718550D01*
X7867650Y-9645650D02*
X7931150Y-9709150D01*
X7931150Y-9645650D02*
X7867650Y-9709150D01*
X7867650Y-9823450D02*
X7931150Y-9886950D01*
X7931150Y-9823450D02*
X7867650Y-9886950D01*
X7893050Y-8655050D02*
X7956550Y-8718550D01*
X7956550Y-8655050D02*
X7893050Y-8718550D01*
X8121650Y-8655050D02*
X8185150Y-8718550D01*
X8185150Y-8655050D02*
X8121650Y-8718550D01*
X8121650Y-9645650D02*
X8185150Y-9709150D01*
X8185150Y-9645650D02*
X8121650Y-9709150D01*
X8121650Y-9823450D02*
X8185150Y-9886950D01*
X8185150Y-9823450D02*
X8121650Y-9886950D01*
X8248650Y-9493250D02*
X8312150Y-9556750D01*
X8312150Y-9493250D02*
X8248650Y-9556750D01*
X8350250Y-10255250D02*
X8413750Y-10318750D01*
X8413750Y-10255250D02*
X8350250Y-10318750D01*
X8401050Y-9823450D02*
X8464550Y-9886950D01*
X8464550Y-9823450D02*
X8401050Y-9886950D01*
X8604250Y-10255250D02*
X8667750Y-10318750D01*
X8667750Y-10255250D02*
X8604250Y-10318750D01*
X8731250Y-9823450D02*
X8794750Y-9886950D01*
X8794750Y-9823450D02*
X8731250Y-9886950D01*
X8858250Y-10255250D02*
X8921750Y-10318750D01*
X8921750Y-10255250D02*
X8858250Y-10318750D01*
X9112250Y-10255250D02*
X9175750Y-10318750D01*
X9175750Y-10255250D02*
X9112250Y-10318750D01*
X9366250Y-8655050D02*
X9429750Y-8718550D01*
X9429750Y-8655050D02*
X9366250Y-8718550D01*
X10255250Y-10255250D02*
X10318750Y-10318750D01*
X10318750Y-10255250D02*
X10255250Y-10318750D01*
X10382250Y-8655050D02*
X10445750Y-8718550D01*
X10445750Y-8655050D02*
X10382250Y-8718550D01*
X10509250Y-10255250D02*
X10572750Y-10318750D01*
X10572750Y-10255250D02*
X10509250Y-10318750D01*
X10585450Y-9112250D02*
X10648950Y-9175750D01*
X10648950Y-9112250D02*
X10585450Y-9175750D01*
X10687050Y-8655050D02*
X10750550Y-8718550D01*
X10750550Y-8655050D02*
X10687050Y-8718550D01*
X10763250Y-10255250D02*
X10826750Y-10318750D01*
X10826750Y-10255250D02*
X10763250Y-10318750D01*
X11017250Y-10255250D02*
X11080750Y-10318750D01*
X11080750Y-10255250D02*
X11017250Y-10318750D01*
X11042650Y-8655050D02*
X11106150Y-8718550D01*
X11106150Y-8655050D02*
X11042650Y-8718550D01*
X11195050Y-4895850D02*
X11258550Y-4959350D01*
X11258550Y-4895850D02*
X11195050Y-4959350D01*
X11372850Y-4895850D02*
X11436350Y-4959350D01*
X11436350Y-4895850D02*
X11372850Y-4959350D01*
X11372850Y-6699250D02*
X11436350Y-6762750D01*
X11436350Y-6699250D02*
X11372850Y-6762750D01*
X11551542Y-4623240D02*
X11615042Y-4686740D01*
X11615042Y-4623240D02*
X11551542Y-4686740D01*
X11563350Y-8388350D02*
X11626850Y-8451850D01*
X11626850Y-8388350D02*
X11563350Y-8451850D01*
X11652250Y-3981450D02*
X11715750Y-4044950D01*
X11715750Y-3981450D02*
X11652250Y-4044950D01*
X11652250Y-4413250D02*
X11715750Y-4476750D01*
X11715750Y-4413250D02*
X11652250Y-4476750D01*
X11655651Y-6264049D02*
X11719151Y-6327549D01*
X11719151Y-6264049D02*
X11655651Y-6327549D01*
X11706451Y-8270649D02*
X11769951Y-8334149D01*
X11769951Y-8270649D02*
X11706451Y-8334149D01*
X11728450Y-8604250D02*
X11791950Y-8667750D01*
X11791950Y-8604250D02*
X11728450Y-8667750D01*
X11830050Y-9645650D02*
X11893550Y-9709150D01*
X11893550Y-9645650D02*
X11830050Y-9709150D01*
X11855450Y-6496050D02*
X11918950Y-6559550D01*
X11918950Y-6496050D02*
X11855450Y-6559550D01*
X11855450Y-6902450D02*
X11918950Y-6965950D01*
X11918950Y-6902450D02*
X11855450Y-6965950D01*
X11855450Y-7359650D02*
X11918950Y-7423150D01*
X11918950Y-7359650D02*
X11855450Y-7423150D01*
X11855450Y-7740650D02*
X11918950Y-7804150D01*
X11918950Y-7740650D02*
X11855450Y-7804150D01*
X12058650Y-4692650D02*
X12122150Y-4756150D01*
X12122150Y-4692650D02*
X12058650Y-4756150D01*
X12058650Y-9112250D02*
X12122150Y-9175750D01*
X12122150Y-9112250D02*
X12058650Y-9175750D01*
X12109450Y-5251450D02*
X12172950Y-5314950D01*
X12172950Y-5251450D02*
X12109450Y-5314950D01*
X12109450Y-5505450D02*
X12172950Y-5568950D01*
X12172950Y-5505450D02*
X12109450Y-5568950D01*
X12160250Y-10255250D02*
X12223750Y-10318750D01*
X12223750Y-10255250D02*
X12160250Y-10318750D01*
X12331700Y-4622800D02*
X12395200Y-4686300D01*
X12395200Y-4622800D02*
X12331700Y-4686300D01*
X12414250Y-5200650D02*
X12477750Y-5264150D01*
X12477750Y-5200650D02*
X12414250Y-5264150D01*
X12414250Y-5403850D02*
X12477750Y-5467350D01*
X12477750Y-5403850D02*
X12414250Y-5467350D01*
X12414250Y-5607050D02*
X12477750Y-5670550D01*
X12477750Y-5607050D02*
X12414250Y-5670550D01*
X12414250Y-5810250D02*
X12477750Y-5873750D01*
X12477750Y-5810250D02*
X12414250Y-5873750D01*
X12414250Y-10255250D02*
X12477750Y-10318750D01*
X12477750Y-10255250D02*
X12414250Y-10318750D01*
X12426950Y-7042150D02*
X12490450Y-7105650D01*
X12490450Y-7042150D02*
X12426950Y-7105650D01*
X12426950Y-7854950D02*
X12490450Y-7918450D01*
X12490450Y-7854950D02*
X12426950Y-7918450D01*
X12668250Y-10255250D02*
X12731750Y-10318750D01*
X12731750Y-10255250D02*
X12668250Y-10318750D01*
X12744450Y-6496050D02*
X12807950Y-6559550D01*
X12807950Y-6496050D02*
X12744450Y-6559550D01*
X12744450Y-6902450D02*
X12807950Y-6965950D01*
X12807950Y-6902450D02*
X12744450Y-6965950D01*
X12744450Y-7359650D02*
X12807950Y-7423150D01*
X12807950Y-7359650D02*
X12744450Y-7423150D01*
X12744450Y-7740650D02*
X12807950Y-7804150D01*
X12807950Y-7740650D02*
X12744450Y-7804150D01*
X12846050Y-8096250D02*
X12909550Y-8159750D01*
X12909550Y-8096250D02*
X12846050Y-8159750D01*
X12922250Y-8959850D02*
X12985750Y-9023350D01*
X12985750Y-8959850D02*
X12922250Y-9023350D01*
X12922250Y-10255250D02*
X12985750Y-10318750D01*
X12985750Y-10255250D02*
X12922250Y-10318750D01*
X13023850Y-7029450D02*
X13087350Y-7092950D01*
X13087350Y-7029450D02*
X13023850Y-7092950D01*
X13023850Y-8274050D02*
X13087350Y-8337550D01*
X13087350Y-8274050D02*
X13023850Y-8337550D01*
X13023850Y-8604250D02*
X13087350Y-8667750D01*
X13087350Y-8604250D02*
X13023850Y-8667750D01*
X13049250Y-7562850D02*
X13112750Y-7626350D01*
X13112750Y-7562850D02*
X13049250Y-7626350D01*
X13231021Y-7025479D02*
X13294521Y-7088979D01*
X13294521Y-7025479D02*
X13231021Y-7088979D01*
X13252450Y-8401050D02*
X13315950Y-8464550D01*
X13315950Y-8401050D02*
X13252450Y-8464550D01*
X13429029Y-7017270D02*
X13492529Y-7080770D01*
X13492529Y-7017270D02*
X13429029Y-7080770D01*
X13481050Y-9366250D02*
X13544550Y-9429750D01*
X13544550Y-9366250D02*
X13481050Y-9429750D01*
X13481050Y-9544050D02*
X13544550Y-9607550D01*
X13544550Y-9544050D02*
X13481050Y-9607550D01*
X13606273Y-7031323D02*
X13669773Y-7094823D01*
X13669773Y-7031323D02*
X13606273Y-7094823D01*
X14039850Y-6496050D02*
X14103350Y-6559550D01*
X14103350Y-6496050D02*
X14039850Y-6559550D01*
X14065250Y-8756650D02*
X14128750Y-8820150D01*
X14128750Y-8756650D02*
X14065250Y-8820150D01*
X14065250Y-10255250D02*
X14128750Y-10318750D01*
X14128750Y-10255250D02*
X14065250Y-10318750D01*
X14192250Y-6496050D02*
X14255750Y-6559550D01*
X14255750Y-6496050D02*
X14192250Y-6559550D01*
X14243050Y-7893050D02*
X14306550Y-7956550D01*
X14306550Y-7893050D02*
X14243050Y-7956550D01*
X14319250Y-10255250D02*
X14382750Y-10318750D01*
X14382750Y-10255250D02*
X14319250Y-10318750D01*
X14344650Y-6267450D02*
X14408150Y-6330950D01*
X14408150Y-6267450D02*
X14344650Y-6330950D01*
X14344650Y-6496050D02*
X14408150Y-6559550D01*
X14408150Y-6496050D02*
X14344650Y-6559550D01*
X14420850Y-7359650D02*
X14484350Y-7423150D01*
X14484350Y-7359650D02*
X14420850Y-7423150D01*
X14420850Y-7537450D02*
X14484350Y-7600950D01*
X14484350Y-7537450D02*
X14420850Y-7600950D01*
X14420850Y-7715250D02*
X14484350Y-7778750D01*
X14484350Y-7715250D02*
X14420850Y-7778750D01*
X14420850Y-7893050D02*
X14484350Y-7956550D01*
X14484350Y-7893050D02*
X14420850Y-7956550D01*
X14573250Y-5429250D02*
X14636750Y-5492750D01*
X14636750Y-5429250D02*
X14573250Y-5492750D01*
X14573250Y-10255250D02*
X14636750Y-10318750D01*
X14636750Y-10255250D02*
X14573250Y-10318750D01*
X14700250Y-4845050D02*
X14763750Y-4908550D01*
X14763750Y-4845050D02*
X14700250Y-4908550D01*
X14801850Y-4641850D02*
X14865350Y-4705350D01*
X14865350Y-4641850D02*
X14801850Y-4705350D01*
X14827250Y-9620250D02*
X14890750Y-9683750D01*
X14890750Y-9620250D02*
X14827250Y-9683750D01*
X14827250Y-10255250D02*
X14890750Y-10318750D01*
X14890750Y-10255250D02*
X14827250Y-10318750D01*
X14979650Y-9620250D02*
X15043150Y-9683750D01*
X15043150Y-9620250D02*
X14979650Y-9683750D01*
X15055850Y-8883650D02*
X15119350Y-8947150D01*
X15119350Y-8883650D02*
X15055850Y-8947150D01*
X15055850Y-9061450D02*
X15119350Y-9124950D01*
X15119350Y-9061450D02*
X15055850Y-9124950D01*
X15055850Y-9239250D02*
X15119350Y-9302750D01*
X15119350Y-9239250D02*
X15055850Y-9302750D01*
X12509500Y-9499600D02*
G75*
G03*
X12509500Y-9499600I-50800J0D01*
G01*
X12763500Y-9499600D02*
G75*
G03*
X12763500Y-9499600I-50800J0D01*
G01*
X13017500Y-9499600D02*
G75*
G03*
X13017500Y-9499600I-50800J0D01*
G01*
X13271500Y-9499600D02*
G75*
G03*
X13271500Y-9499600I-50800J0D01*
G01*
X13817600Y-9499600D02*
G75*
G03*
X13817600Y-9499600I-50800J0D01*
G01*
X14071600Y-9499600D02*
G75*
G03*
X14071600Y-9499600I-50800J0D01*
G01*
X14325600Y-9499600D02*
G75*
G03*
X14325600Y-9499600I-50800J0D01*
G01*
X14579600Y-9499600D02*
G75*
G03*
X14579600Y-9499600I-50800J0D01*
G01*
X7956550Y-9042400D02*
G75*
G03*
X7956550Y-9042400I-50800J0D01*
G01*
X7956550Y-9296400D02*
G75*
G03*
X7956550Y-9296400I-50800J0D01*
G01*
X8195310Y-5157470D02*
X8195310Y-5309870D01*
X8119110Y-5233670D02*
X8271510Y-5233670D01*
X8195310Y-5665470D02*
X8195310Y-5817870D01*
X8119110Y-5741670D02*
X8271510Y-5741670D01*
X8195310Y-6173470D02*
X8195310Y-6325870D01*
X8119110Y-6249670D02*
X8271510Y-6249670D01*
X16275050Y-7435850D02*
X16275050Y-7588250D01*
X16198850Y-7512050D02*
X16351250Y-7512050D01*
X16475050Y-6835850D02*
X16475050Y-6988250D01*
X16398850Y-6912050D02*
X16551250Y-6912050D01*
X16475050Y-8035850D02*
X16475050Y-8188250D01*
X16398850Y-8112050D02*
X16551250Y-8112050D01*
X17735550Y-6835850D02*
X17735550Y-6988250D01*
X17659350Y-6912050D02*
X17811750Y-6912050D01*
X17735550Y-8035850D02*
X17735550Y-8188250D01*
X17659350Y-8112050D02*
X17811750Y-8112050D01*
X18586450Y-8597900D02*
X18586450Y-8750300D01*
X18510250Y-8674100D02*
X18662650Y-8674100D01*
X18586450Y-9105900D02*
X18586450Y-9258300D01*
X18510250Y-9182100D02*
X18662650Y-9182100D01*
X18586450Y-9613900D02*
X18586450Y-9766300D01*
X18510250Y-9690100D02*
X18662650Y-9690100D01*
X9066530Y-6818070D02*
X9066530Y-6970470D01*
X8990330Y-6894270D02*
X9142730Y-6894270D01*
X9066530Y-8018070D02*
X9066530Y-8170470D01*
X8990330Y-8094270D02*
X9142730Y-8094270D01*
X10327030Y-6818070D02*
X10327030Y-6970470D01*
X10250830Y-6894270D02*
X10403230Y-6894270D01*
X10327030Y-8018070D02*
X10327030Y-8170470D01*
X10250830Y-8094270D02*
X10403230Y-8094270D01*
X10527030Y-7418070D02*
X10527030Y-7570470D01*
X10450830Y-7494270D02*
X10603230Y-7494270D01*
X18568670Y-5162550D02*
X18568670Y-5314950D01*
X18492470Y-5238750D02*
X18644870Y-5238750D01*
X18568670Y-5670550D02*
X18568670Y-5822950D01*
X18492470Y-5746750D02*
X18644870Y-5746750D01*
X18568670Y-6178550D02*
X18568670Y-6330950D01*
X18492470Y-6254750D02*
X18644870Y-6254750D01*
X9051290Y-5065470D02*
X9051290Y-5217870D01*
X8975090Y-5141670D02*
X9127490Y-5141670D01*
X9051290Y-6265470D02*
X9051290Y-6417870D01*
X8975090Y-6341670D02*
X9127490Y-6341670D01*
X10311790Y-5065470D02*
X10311790Y-5217870D01*
X10235590Y-5141670D02*
X10387990Y-5141670D01*
X10311790Y-6265470D02*
X10311790Y-6417870D01*
X10235590Y-6341670D02*
X10387990Y-6341670D01*
X10511790Y-5665470D02*
X10511790Y-5817870D01*
X10435590Y-5741670D02*
X10587990Y-5741670D01*
X8190230Y-3465830D02*
X8190230Y-3618230D01*
X8114030Y-3542030D02*
X8266430Y-3542030D01*
X8190230Y-3973830D02*
X8190230Y-4126230D01*
X8114030Y-4050030D02*
X8266430Y-4050030D01*
X8190230Y-4481830D02*
X8190230Y-4634230D01*
X8114030Y-4558030D02*
X8266430Y-4558030D01*
X16262350Y-5670550D02*
X16262350Y-5822950D01*
X16186150Y-5746750D02*
X16338550Y-5746750D01*
X16462350Y-5070550D02*
X16462350Y-5222950D01*
X16386150Y-5146750D02*
X16538550Y-5146750D01*
X16462350Y-6270550D02*
X16462350Y-6422950D01*
X16386150Y-6346750D02*
X16538550Y-6346750D01*
X17722850Y-5070550D02*
X17722850Y-5222950D01*
X17646650Y-5146750D02*
X17799050Y-5146750D01*
X17722850Y-6270550D02*
X17722850Y-6422950D01*
X17646650Y-6346750D02*
X17799050Y-6346750D01*
X8200390Y-6910070D02*
X8200390Y-7062470D01*
X8124190Y-6986270D02*
X8276590Y-6986270D01*
X8200390Y-7418070D02*
X8200390Y-7570470D01*
X8124190Y-7494270D02*
X8276590Y-7494270D01*
X8200390Y-7926070D02*
X8200390Y-8078470D01*
X8124190Y-8002270D02*
X8276590Y-8002270D01*
X16275050Y-9112250D02*
X16275050Y-9264650D01*
X16198850Y-9188450D02*
X16351250Y-9188450D01*
X16475050Y-8512250D02*
X16475050Y-8664650D01*
X16398850Y-8588450D02*
X16551250Y-8588450D01*
X16475050Y-9712250D02*
X16475050Y-9864650D01*
X16398850Y-9788450D02*
X16551250Y-9788450D01*
X17735550Y-8512250D02*
X17735550Y-8664650D01*
X17659350Y-8588450D02*
X17811750Y-8588450D01*
X17735550Y-9712250D02*
X17735550Y-9864650D01*
X17659350Y-9788450D02*
X17811750Y-9788450D01*
X18578830Y-6930390D02*
X18578830Y-7082790D01*
X18502630Y-7006590D02*
X18655030Y-7006590D01*
X18578830Y-7438390D02*
X18578830Y-7590790D01*
X18502630Y-7514590D02*
X18655030Y-7514590D01*
X18578830Y-7946390D02*
X18578830Y-8098790D01*
X18502630Y-8022590D02*
X18655030Y-8022590D01*
X18568670Y-3491230D02*
X18568670Y-3643630D01*
X18492470Y-3567430D02*
X18644870Y-3567430D01*
X18568670Y-3999230D02*
X18568670Y-4151630D01*
X18492470Y-4075430D02*
X18644870Y-4075430D01*
X18568670Y-4507230D02*
X18568670Y-4659630D01*
X18492470Y-4583430D02*
X18644870Y-4583430D01*
X9048750Y-3381450D02*
X9048750Y-3533850D01*
X8972550Y-3457650D02*
X9124950Y-3457650D01*
X9048750Y-4581450D02*
X9048750Y-4733850D01*
X8972550Y-4657650D02*
X9124950Y-4657650D01*
X10309250Y-3381450D02*
X10309250Y-3533850D01*
X10233050Y-3457650D02*
X10385450Y-3457650D01*
X10309250Y-4581450D02*
X10309250Y-4733850D01*
X10233050Y-4657650D02*
X10385450Y-4657650D01*
X10509250Y-3981450D02*
X10509250Y-4133850D01*
X10433050Y-4057650D02*
X10585450Y-4057650D01*
X16256950Y-3994150D02*
X16256950Y-4146550D01*
X16180750Y-4070350D02*
X16333150Y-4070350D01*
X16456950Y-3394150D02*
X16456950Y-3546550D01*
X16380750Y-3470350D02*
X16533150Y-3470350D01*
X16456950Y-4594150D02*
X16456950Y-4746550D01*
X16380750Y-4670350D02*
X16533150Y-4670350D01*
X17717450Y-3394150D02*
X17717450Y-3546550D01*
X17641250Y-3470350D02*
X17793650Y-3470350D01*
X17717450Y-4594150D02*
X17717450Y-4746550D01*
X17641250Y-4670350D02*
X17793650Y-4670350D01*
D13*
X7436528Y-11063864D02*
X7436528Y-10763864D01*
X7507957Y-10763864D01*
X7550814Y-10778150D01*
X7579386Y-10806722D01*
X7593671Y-10835293D01*
X7607957Y-10892436D01*
X7607957Y-10935293D01*
X7593671Y-10992436D01*
X7579386Y-11021007D01*
X7550814Y-11049579D01*
X7507957Y-11063864D01*
X7436528Y-11063864D01*
X7736528Y-11063864D02*
X7736528Y-10863864D01*
X7736528Y-10921007D02*
X7750814Y-10892436D01*
X7765100Y-10878150D01*
X7793671Y-10863864D01*
X7822243Y-10863864D01*
X7922243Y-11063864D02*
X7922243Y-10863864D01*
X7922243Y-10763864D02*
X7907957Y-10778150D01*
X7922243Y-10792436D01*
X7936528Y-10778150D01*
X7922243Y-10763864D01*
X7922243Y-10792436D01*
X8107957Y-11063864D02*
X8079386Y-11049579D01*
X8065100Y-11021007D01*
X8065100Y-10763864D01*
X8265100Y-11063864D02*
X8236528Y-11049579D01*
X8222243Y-11021007D01*
X8222243Y-10763864D01*
X8607957Y-11063864D02*
X8607957Y-10763864D01*
X8707957Y-10978150D01*
X8807957Y-10763864D01*
X8807957Y-11063864D01*
X9079386Y-11063864D02*
X9079386Y-10906722D01*
X9065100Y-10878150D01*
X9036528Y-10863864D01*
X8979386Y-10863864D01*
X8950814Y-10878150D01*
X9079386Y-11049579D02*
X9050814Y-11063864D01*
X8979386Y-11063864D01*
X8950814Y-11049579D01*
X8936528Y-11021007D01*
X8936528Y-10992436D01*
X8950814Y-10963864D01*
X8979386Y-10949579D01*
X9050814Y-10949579D01*
X9079386Y-10935293D01*
X9222243Y-10863864D02*
X9222243Y-11163864D01*
X9222243Y-10878150D02*
X9250814Y-10863864D01*
X9307957Y-10863864D01*
X9336528Y-10878150D01*
X9350814Y-10892436D01*
X9365100Y-10921007D01*
X9365100Y-11006722D01*
X9350814Y-11035293D01*
X9336528Y-11049579D01*
X9307957Y-11063864D01*
X9250814Y-11063864D01*
X9222243Y-11049579D01*
X9493671Y-11035293D02*
X9507957Y-11049579D01*
X9493671Y-11063864D01*
X9479386Y-11049579D01*
X9493671Y-11035293D01*
X9493671Y-11063864D01*
X9493671Y-10878150D02*
X9507957Y-10892436D01*
X9493671Y-10906722D01*
X9479386Y-10892436D01*
X9493671Y-10878150D01*
X9493671Y-10906722D01*
X7086600Y-11526400D02*
X7150100Y-11589900D01*
X7150100Y-11526400D02*
X7086600Y-11589900D01*
X7493671Y-11393864D02*
X7522243Y-11393864D01*
X7550814Y-11408150D01*
X7565100Y-11422436D01*
X7579386Y-11451007D01*
X7593671Y-11508150D01*
X7593671Y-11579579D01*
X7579386Y-11636721D01*
X7565100Y-11665293D01*
X7550814Y-11679579D01*
X7522243Y-11693864D01*
X7493671Y-11693864D01*
X7465100Y-11679579D01*
X7450814Y-11665293D01*
X7436528Y-11636721D01*
X7422243Y-11579579D01*
X7422243Y-11508150D01*
X7436528Y-11451007D01*
X7450814Y-11422436D01*
X7465100Y-11408150D01*
X7493671Y-11393864D01*
X7722243Y-11665293D02*
X7736528Y-11679579D01*
X7722243Y-11693864D01*
X7707957Y-11679579D01*
X7722243Y-11665293D01*
X7722243Y-11693864D01*
X7993671Y-11393864D02*
X7936528Y-11393864D01*
X7907957Y-11408150D01*
X7893671Y-11422436D01*
X7865100Y-11465293D01*
X7850814Y-11522436D01*
X7850814Y-11636721D01*
X7865100Y-11665293D01*
X7879386Y-11679579D01*
X7907957Y-11693864D01*
X7965100Y-11693864D01*
X7993671Y-11679579D01*
X8007957Y-11665293D01*
X8022243Y-11636721D01*
X8022243Y-11565293D01*
X8007957Y-11536721D01*
X7993671Y-11522436D01*
X7965100Y-11508150D01*
X7907957Y-11508150D01*
X7879386Y-11522436D01*
X7865100Y-11536721D01*
X7850814Y-11565293D01*
X8279386Y-11493864D02*
X8279386Y-11693864D01*
X8207957Y-11379579D02*
X8136528Y-11593864D01*
X8322243Y-11593864D01*
X8436528Y-11693864D02*
X8436528Y-11493864D01*
X8436528Y-11522436D02*
X8450814Y-11508150D01*
X8479386Y-11493864D01*
X8522243Y-11493864D01*
X8550814Y-11508150D01*
X8565100Y-11536721D01*
X8565100Y-11693864D01*
X8565100Y-11536721D02*
X8579386Y-11508150D01*
X8607957Y-11493864D01*
X8650814Y-11493864D01*
X8679386Y-11508150D01*
X8693671Y-11536721D01*
X8693671Y-11693864D01*
X8836528Y-11693864D02*
X8836528Y-11493864D01*
X8836528Y-11522436D02*
X8850814Y-11508150D01*
X8879386Y-11493864D01*
X8922243Y-11493864D01*
X8950814Y-11508150D01*
X8965100Y-11536721D01*
X8965100Y-11693864D01*
X8965100Y-11536721D02*
X8979386Y-11508150D01*
X9007957Y-11493864D01*
X9050814Y-11493864D01*
X9079386Y-11508150D01*
X9093671Y-11536721D01*
X9093671Y-11693864D01*
X9679386Y-11379579D02*
X9422243Y-11765293D01*
X10065100Y-11393864D02*
X10093671Y-11393864D01*
X10122243Y-11408150D01*
X10136528Y-11422436D01*
X10150814Y-11451007D01*
X10165100Y-11508150D01*
X10165100Y-11579579D01*
X10150814Y-11636721D01*
X10136528Y-11665293D01*
X10122243Y-11679579D01*
X10093671Y-11693864D01*
X10065100Y-11693864D01*
X10036528Y-11679579D01*
X10022243Y-11665293D01*
X10007957Y-11636721D01*
X9993671Y-11579579D01*
X9993671Y-11508150D01*
X10007957Y-11451007D01*
X10022243Y-11422436D01*
X10036528Y-11408150D01*
X10065100Y-11393864D01*
X10293671Y-11665293D02*
X10307957Y-11679579D01*
X10293671Y-11693864D01*
X10279386Y-11679579D01*
X10293671Y-11665293D01*
X10293671Y-11693864D01*
X10493671Y-11393864D02*
X10522243Y-11393864D01*
X10550814Y-11408150D01*
X10565100Y-11422436D01*
X10579386Y-11451007D01*
X10593671Y-11508150D01*
X10593671Y-11579579D01*
X10579386Y-11636721D01*
X10565100Y-11665293D01*
X10550814Y-11679579D01*
X10522243Y-11693864D01*
X10493671Y-11693864D01*
X10465100Y-11679579D01*
X10450814Y-11665293D01*
X10436528Y-11636721D01*
X10422243Y-11579579D01*
X10422243Y-11508150D01*
X10436528Y-11451007D01*
X10450814Y-11422436D01*
X10465100Y-11408150D01*
X10493671Y-11393864D01*
X10707957Y-11422436D02*
X10722243Y-11408150D01*
X10750814Y-11393864D01*
X10822243Y-11393864D01*
X10850814Y-11408150D01*
X10865100Y-11422436D01*
X10879386Y-11451007D01*
X10879386Y-11479579D01*
X10865100Y-11522436D01*
X10693671Y-11693864D01*
X10879386Y-11693864D01*
X11150814Y-11393864D02*
X11007957Y-11393864D01*
X10993671Y-11536721D01*
X11007957Y-11522436D01*
X11036528Y-11508150D01*
X11107957Y-11508150D01*
X11136528Y-11522436D01*
X11150814Y-11536721D01*
X11165100Y-11565293D01*
X11165100Y-11636721D01*
X11150814Y-11665293D01*
X11136528Y-11679579D01*
X11107957Y-11693864D01*
X11036528Y-11693864D01*
X11007957Y-11679579D01*
X10993671Y-11665293D01*
X11279386Y-11393864D02*
X11279386Y-11451007D01*
X11393671Y-11393864D02*
X11393671Y-11451007D01*
X11836528Y-11808150D02*
X11822243Y-11793864D01*
X11793671Y-11751007D01*
X11779386Y-11722436D01*
X11765100Y-11679579D01*
X11750814Y-11608150D01*
X11750814Y-11551007D01*
X11765100Y-11479579D01*
X11779386Y-11436721D01*
X11793671Y-11408150D01*
X11822243Y-11365293D01*
X11836528Y-11351007D01*
X11965100Y-11693864D02*
X12022243Y-11693864D01*
X12050814Y-11679579D01*
X12065100Y-11665293D01*
X12093671Y-11622436D01*
X12107957Y-11565293D01*
X12107957Y-11451007D01*
X12093671Y-11422436D01*
X12079386Y-11408150D01*
X12050814Y-11393864D01*
X11993671Y-11393864D01*
X11965100Y-11408150D01*
X11950814Y-11422436D01*
X11936528Y-11451007D01*
X11936528Y-11522436D01*
X11950814Y-11551007D01*
X11965100Y-11565293D01*
X11993671Y-11579579D01*
X12050814Y-11579579D01*
X12079386Y-11565293D01*
X12093671Y-11551007D01*
X12107957Y-11522436D01*
X12393671Y-11693864D02*
X12222243Y-11693864D01*
X12307957Y-11693864D02*
X12307957Y-11393864D01*
X12279386Y-11436721D01*
X12250814Y-11465293D01*
X12222243Y-11479579D01*
X12750814Y-11693864D02*
X12750814Y-11393864D01*
X12879386Y-11693864D02*
X12879386Y-11536721D01*
X12865100Y-11508150D01*
X12836528Y-11493864D01*
X12793671Y-11493864D01*
X12765100Y-11508150D01*
X12750814Y-11522436D01*
X13065100Y-11693864D02*
X13036528Y-11679579D01*
X13022243Y-11665293D01*
X13007957Y-11636721D01*
X13007957Y-11551007D01*
X13022243Y-11522436D01*
X13036528Y-11508150D01*
X13065100Y-11493864D01*
X13107957Y-11493864D01*
X13136528Y-11508150D01*
X13150814Y-11522436D01*
X13165100Y-11551007D01*
X13165100Y-11636721D01*
X13150814Y-11665293D01*
X13136528Y-11679579D01*
X13107957Y-11693864D01*
X13065100Y-11693864D01*
X13336528Y-11693864D02*
X13307957Y-11679579D01*
X13293671Y-11651007D01*
X13293671Y-11393864D01*
X13565100Y-11679579D02*
X13536528Y-11693864D01*
X13479386Y-11693864D01*
X13450814Y-11679579D01*
X13436528Y-11651007D01*
X13436528Y-11536721D01*
X13450814Y-11508150D01*
X13479386Y-11493864D01*
X13536528Y-11493864D01*
X13565100Y-11508150D01*
X13579386Y-11536721D01*
X13579386Y-11565293D01*
X13436528Y-11593864D01*
X13693671Y-11679579D02*
X13722243Y-11693864D01*
X13779386Y-11693864D01*
X13807957Y-11679579D01*
X13822243Y-11651007D01*
X13822243Y-11636721D01*
X13807957Y-11608150D01*
X13779386Y-11593864D01*
X13736528Y-11593864D01*
X13707957Y-11579579D01*
X13693671Y-11551007D01*
X13693671Y-11536721D01*
X13707957Y-11508150D01*
X13736528Y-11493864D01*
X13779386Y-11493864D01*
X13807957Y-11508150D01*
X13922243Y-11808150D02*
X13936528Y-11793864D01*
X13965100Y-11751007D01*
X13979386Y-11722436D01*
X13993671Y-11679579D01*
X14007957Y-11608150D01*
X14007957Y-11551007D01*
X13993671Y-11479579D01*
X13979386Y-11436721D01*
X13965100Y-11408150D01*
X13936528Y-11365293D01*
X13922243Y-11351007D01*
X7150100Y-11954150D02*
G75*
G03*
X7150100Y-11954150I-50800J0D01*
G01*
X7593671Y-12089864D02*
X7422243Y-12089864D01*
X7507957Y-12089864D02*
X7507957Y-11789864D01*
X7479386Y-11832721D01*
X7450814Y-11861293D01*
X7422243Y-11875579D01*
X7722243Y-12061293D02*
X7736528Y-12075579D01*
X7722243Y-12089864D01*
X7707957Y-12075579D01*
X7722243Y-12061293D01*
X7722243Y-12089864D01*
X7922243Y-11789864D02*
X7950814Y-11789864D01*
X7979386Y-11804150D01*
X7993671Y-11818436D01*
X8007957Y-11847007D01*
X8022243Y-11904150D01*
X8022243Y-11975579D01*
X8007957Y-12032721D01*
X7993671Y-12061293D01*
X7979386Y-12075579D01*
X7950814Y-12089864D01*
X7922243Y-12089864D01*
X7893671Y-12075579D01*
X7879386Y-12061293D01*
X7865100Y-12032721D01*
X7850814Y-11975579D01*
X7850814Y-11904150D01*
X7865100Y-11847007D01*
X7879386Y-11818436D01*
X7893671Y-11804150D01*
X7922243Y-11789864D01*
X8136528Y-11818436D02*
X8150814Y-11804150D01*
X8179386Y-11789864D01*
X8250814Y-11789864D01*
X8279386Y-11804150D01*
X8293671Y-11818436D01*
X8307957Y-11847007D01*
X8307957Y-11875579D01*
X8293671Y-11918436D01*
X8122243Y-12089864D01*
X8307957Y-12089864D01*
X8436528Y-12089864D02*
X8436528Y-11889864D01*
X8436528Y-11918436D02*
X8450814Y-11904150D01*
X8479386Y-11889864D01*
X8522243Y-11889864D01*
X8550814Y-11904150D01*
X8565100Y-11932721D01*
X8565100Y-12089864D01*
X8565100Y-11932721D02*
X8579386Y-11904150D01*
X8607957Y-11889864D01*
X8650814Y-11889864D01*
X8679386Y-11904150D01*
X8693671Y-11932721D01*
X8693671Y-12089864D01*
X8836528Y-12089864D02*
X8836528Y-11889864D01*
X8836528Y-11918436D02*
X8850814Y-11904150D01*
X8879386Y-11889864D01*
X8922243Y-11889864D01*
X8950814Y-11904150D01*
X8965100Y-11932721D01*
X8965100Y-12089864D01*
X8965100Y-11932721D02*
X8979386Y-11904150D01*
X9007957Y-11889864D01*
X9050814Y-11889864D01*
X9079386Y-11904150D01*
X9093671Y-11932721D01*
X9093671Y-12089864D01*
X9679386Y-11775579D02*
X9422243Y-12161293D01*
X10065100Y-11789864D02*
X10093671Y-11789864D01*
X10122243Y-11804150D01*
X10136528Y-11818436D01*
X10150814Y-11847007D01*
X10165100Y-11904150D01*
X10165100Y-11975579D01*
X10150814Y-12032721D01*
X10136528Y-12061293D01*
X10122243Y-12075579D01*
X10093671Y-12089864D01*
X10065100Y-12089864D01*
X10036528Y-12075579D01*
X10022243Y-12061293D01*
X10007957Y-12032721D01*
X9993671Y-11975579D01*
X9993671Y-11904150D01*
X10007957Y-11847007D01*
X10022243Y-11818436D01*
X10036528Y-11804150D01*
X10065100Y-11789864D01*
X10293671Y-12061293D02*
X10307957Y-12075579D01*
X10293671Y-12089864D01*
X10279386Y-12075579D01*
X10293671Y-12061293D01*
X10293671Y-12089864D01*
X10493671Y-11789864D02*
X10522243Y-11789864D01*
X10550814Y-11804150D01*
X10565100Y-11818436D01*
X10579386Y-11847007D01*
X10593671Y-11904150D01*
X10593671Y-11975579D01*
X10579386Y-12032721D01*
X10565100Y-12061293D01*
X10550814Y-12075579D01*
X10522243Y-12089864D01*
X10493671Y-12089864D01*
X10465100Y-12075579D01*
X10450814Y-12061293D01*
X10436528Y-12032721D01*
X10422243Y-11975579D01*
X10422243Y-11904150D01*
X10436528Y-11847007D01*
X10450814Y-11818436D01*
X10465100Y-11804150D01*
X10493671Y-11789864D01*
X10850814Y-11889864D02*
X10850814Y-12089864D01*
X10779386Y-11775579D02*
X10707957Y-11989864D01*
X10893671Y-11989864D01*
X11065100Y-11789864D02*
X11093671Y-11789864D01*
X11122243Y-11804150D01*
X11136528Y-11818436D01*
X11150814Y-11847007D01*
X11165100Y-11904150D01*
X11165100Y-11975579D01*
X11150814Y-12032721D01*
X11136528Y-12061293D01*
X11122243Y-12075579D01*
X11093671Y-12089864D01*
X11065100Y-12089864D01*
X11036528Y-12075579D01*
X11022243Y-12061293D01*
X11007957Y-12032721D01*
X10993671Y-11975579D01*
X10993671Y-11904150D01*
X11007957Y-11847007D01*
X11022243Y-11818436D01*
X11036528Y-11804150D01*
X11065100Y-11789864D01*
X11279386Y-11789864D02*
X11279386Y-11847007D01*
X11393671Y-11789864D02*
X11393671Y-11847007D01*
X11836528Y-12204150D02*
X11822243Y-12189864D01*
X11793671Y-12147007D01*
X11779386Y-12118436D01*
X11765100Y-12075579D01*
X11750814Y-12004150D01*
X11750814Y-11947007D01*
X11765100Y-11875579D01*
X11779386Y-11832721D01*
X11793671Y-11804150D01*
X11822243Y-11761293D01*
X11836528Y-11747007D01*
X12107957Y-12089864D02*
X11936528Y-12089864D01*
X12022243Y-12089864D02*
X12022243Y-11789864D01*
X11993671Y-11832721D01*
X11965100Y-11861293D01*
X11936528Y-11875579D01*
X12293671Y-11789864D02*
X12322243Y-11789864D01*
X12350814Y-11804150D01*
X12365100Y-11818436D01*
X12379386Y-11847007D01*
X12393671Y-11904150D01*
X12393671Y-11975579D01*
X12379386Y-12032721D01*
X12365100Y-12061293D01*
X12350814Y-12075579D01*
X12322243Y-12089864D01*
X12293671Y-12089864D01*
X12265100Y-12075579D01*
X12250814Y-12061293D01*
X12236528Y-12032721D01*
X12222243Y-11975579D01*
X12222243Y-11904150D01*
X12236528Y-11847007D01*
X12250814Y-11818436D01*
X12265100Y-11804150D01*
X12293671Y-11789864D01*
X12750814Y-12089864D02*
X12750814Y-11789864D01*
X12879386Y-12089864D02*
X12879386Y-11932721D01*
X12865100Y-11904150D01*
X12836528Y-11889864D01*
X12793671Y-11889864D01*
X12765100Y-11904150D01*
X12750814Y-11918436D01*
X13065100Y-12089864D02*
X13036528Y-12075579D01*
X13022243Y-12061293D01*
X13007957Y-12032721D01*
X13007957Y-11947007D01*
X13022243Y-11918436D01*
X13036528Y-11904150D01*
X13065100Y-11889864D01*
X13107957Y-11889864D01*
X13136528Y-11904150D01*
X13150814Y-11918436D01*
X13165100Y-11947007D01*
X13165100Y-12032721D01*
X13150814Y-12061293D01*
X13136528Y-12075579D01*
X13107957Y-12089864D01*
X13065100Y-12089864D01*
X13336528Y-12089864D02*
X13307957Y-12075579D01*
X13293671Y-12047007D01*
X13293671Y-11789864D01*
X13565100Y-12075579D02*
X13536528Y-12089864D01*
X13479386Y-12089864D01*
X13450814Y-12075579D01*
X13436528Y-12047007D01*
X13436528Y-11932721D01*
X13450814Y-11904150D01*
X13479386Y-11889864D01*
X13536528Y-11889864D01*
X13565100Y-11904150D01*
X13579386Y-11932721D01*
X13579386Y-11961293D01*
X13436528Y-11989864D01*
X13693671Y-12075579D02*
X13722243Y-12089864D01*
X13779386Y-12089864D01*
X13807957Y-12075579D01*
X13822243Y-12047007D01*
X13822243Y-12032721D01*
X13807957Y-12004150D01*
X13779386Y-11989864D01*
X13736528Y-11989864D01*
X13707957Y-11975579D01*
X13693671Y-11947007D01*
X13693671Y-11932721D01*
X13707957Y-11904150D01*
X13736528Y-11889864D01*
X13779386Y-11889864D01*
X13807957Y-11904150D01*
X13922243Y-12204150D02*
X13936528Y-12189864D01*
X13965100Y-12147007D01*
X13979386Y-12118436D01*
X13993671Y-12075579D01*
X14007957Y-12004150D01*
X14007957Y-11947007D01*
X13993671Y-11875579D01*
X13979386Y-11832721D01*
X13965100Y-11804150D01*
X13936528Y-11761293D01*
X13922243Y-11747007D01*
X7073900Y-12273950D02*
X7073900Y-12426350D01*
X6997700Y-12350150D02*
X7150100Y-12350150D01*
X7593671Y-12485864D02*
X7422243Y-12485864D01*
X7507957Y-12485864D02*
X7507957Y-12185864D01*
X7479386Y-12228721D01*
X7450814Y-12257293D01*
X7422243Y-12271579D01*
X7722243Y-12457293D02*
X7736528Y-12471579D01*
X7722243Y-12485864D01*
X7707957Y-12471579D01*
X7722243Y-12457293D01*
X7722243Y-12485864D01*
X8007957Y-12185864D02*
X7865100Y-12185864D01*
X7850814Y-12328721D01*
X7865100Y-12314436D01*
X7893671Y-12300150D01*
X7965100Y-12300150D01*
X7993671Y-12314436D01*
X8007957Y-12328721D01*
X8022243Y-12357293D01*
X8022243Y-12428721D01*
X8007957Y-12457293D01*
X7993671Y-12471579D01*
X7965100Y-12485864D01*
X7893671Y-12485864D01*
X7865100Y-12471579D01*
X7850814Y-12457293D01*
X8136528Y-12214436D02*
X8150814Y-12200150D01*
X8179386Y-12185864D01*
X8250814Y-12185864D01*
X8279386Y-12200150D01*
X8293671Y-12214436D01*
X8307957Y-12243007D01*
X8307957Y-12271579D01*
X8293671Y-12314436D01*
X8122243Y-12485864D01*
X8307957Y-12485864D01*
X8436528Y-12485864D02*
X8436528Y-12285864D01*
X8436528Y-12314436D02*
X8450814Y-12300150D01*
X8479386Y-12285864D01*
X8522243Y-12285864D01*
X8550814Y-12300150D01*
X8565100Y-12328721D01*
X8565100Y-12485864D01*
X8565100Y-12328721D02*
X8579386Y-12300150D01*
X8607957Y-12285864D01*
X8650814Y-12285864D01*
X8679386Y-12300150D01*
X8693671Y-12328721D01*
X8693671Y-12485864D01*
X8836528Y-12485864D02*
X8836528Y-12285864D01*
X8836528Y-12314436D02*
X8850814Y-12300150D01*
X8879386Y-12285864D01*
X8922243Y-12285864D01*
X8950814Y-12300150D01*
X8965100Y-12328721D01*
X8965100Y-12485864D01*
X8965100Y-12328721D02*
X8979386Y-12300150D01*
X9007957Y-12285864D01*
X9050814Y-12285864D01*
X9079386Y-12300150D01*
X9093671Y-12328721D01*
X9093671Y-12485864D01*
X9679386Y-12171579D02*
X9422243Y-12557293D01*
X10065100Y-12185864D02*
X10093671Y-12185864D01*
X10122243Y-12200150D01*
X10136528Y-12214436D01*
X10150814Y-12243007D01*
X10165100Y-12300150D01*
X10165100Y-12371579D01*
X10150814Y-12428721D01*
X10136528Y-12457293D01*
X10122243Y-12471579D01*
X10093671Y-12485864D01*
X10065100Y-12485864D01*
X10036528Y-12471579D01*
X10022243Y-12457293D01*
X10007957Y-12428721D01*
X9993671Y-12371579D01*
X9993671Y-12300150D01*
X10007957Y-12243007D01*
X10022243Y-12214436D01*
X10036528Y-12200150D01*
X10065100Y-12185864D01*
X10293671Y-12457293D02*
X10307957Y-12471579D01*
X10293671Y-12485864D01*
X10279386Y-12471579D01*
X10293671Y-12457293D01*
X10293671Y-12485864D01*
X10493671Y-12185864D02*
X10522243Y-12185864D01*
X10550814Y-12200150D01*
X10565100Y-12214436D01*
X10579386Y-12243007D01*
X10593671Y-12300150D01*
X10593671Y-12371579D01*
X10579386Y-12428721D01*
X10565100Y-12457293D01*
X10550814Y-12471579D01*
X10522243Y-12485864D01*
X10493671Y-12485864D01*
X10465100Y-12471579D01*
X10450814Y-12457293D01*
X10436528Y-12428721D01*
X10422243Y-12371579D01*
X10422243Y-12300150D01*
X10436528Y-12243007D01*
X10450814Y-12214436D01*
X10465100Y-12200150D01*
X10493671Y-12185864D01*
X10850814Y-12185864D02*
X10793671Y-12185864D01*
X10765100Y-12200150D01*
X10750814Y-12214436D01*
X10722243Y-12257293D01*
X10707957Y-12314436D01*
X10707957Y-12428721D01*
X10722243Y-12457293D01*
X10736528Y-12471579D01*
X10765100Y-12485864D01*
X10822243Y-12485864D01*
X10850814Y-12471579D01*
X10865100Y-12457293D01*
X10879386Y-12428721D01*
X10879386Y-12357293D01*
X10865100Y-12328721D01*
X10850814Y-12314436D01*
X10822243Y-12300150D01*
X10765100Y-12300150D01*
X10736528Y-12314436D01*
X10722243Y-12328721D01*
X10707957Y-12357293D01*
X11065100Y-12185864D02*
X11093671Y-12185864D01*
X11122243Y-12200150D01*
X11136528Y-12214436D01*
X11150814Y-12243007D01*
X11165100Y-12300150D01*
X11165100Y-12371579D01*
X11150814Y-12428721D01*
X11136528Y-12457293D01*
X11122243Y-12471579D01*
X11093671Y-12485864D01*
X11065100Y-12485864D01*
X11036528Y-12471579D01*
X11022243Y-12457293D01*
X11007957Y-12428721D01*
X10993671Y-12371579D01*
X10993671Y-12300150D01*
X11007957Y-12243007D01*
X11022243Y-12214436D01*
X11036528Y-12200150D01*
X11065100Y-12185864D01*
X11279386Y-12185864D02*
X11279386Y-12243007D01*
X11393671Y-12185864D02*
X11393671Y-12243007D01*
X11836528Y-12600150D02*
X11822243Y-12585864D01*
X11793671Y-12543007D01*
X11779386Y-12514436D01*
X11765100Y-12471579D01*
X11750814Y-12400150D01*
X11750814Y-12343007D01*
X11765100Y-12271579D01*
X11779386Y-12228721D01*
X11793671Y-12200150D01*
X11822243Y-12157293D01*
X11836528Y-12143007D01*
X12093671Y-12185864D02*
X11950814Y-12185864D01*
X11936528Y-12328721D01*
X11950814Y-12314436D01*
X11979386Y-12300150D01*
X12050814Y-12300150D01*
X12079386Y-12314436D01*
X12093671Y-12328721D01*
X12107957Y-12357293D01*
X12107957Y-12428721D01*
X12093671Y-12457293D01*
X12079386Y-12471579D01*
X12050814Y-12485864D01*
X11979386Y-12485864D01*
X11950814Y-12471579D01*
X11936528Y-12457293D01*
X12365100Y-12185864D02*
X12307957Y-12185864D01*
X12279386Y-12200150D01*
X12265100Y-12214436D01*
X12236528Y-12257293D01*
X12222243Y-12314436D01*
X12222243Y-12428721D01*
X12236528Y-12457293D01*
X12250814Y-12471579D01*
X12279386Y-12485864D01*
X12336528Y-12485864D01*
X12365100Y-12471579D01*
X12379386Y-12457293D01*
X12393671Y-12428721D01*
X12393671Y-12357293D01*
X12379386Y-12328721D01*
X12365100Y-12314436D01*
X12336528Y-12300150D01*
X12279386Y-12300150D01*
X12250814Y-12314436D01*
X12236528Y-12328721D01*
X12222243Y-12357293D01*
X12750814Y-12485864D02*
X12750814Y-12185864D01*
X12879386Y-12485864D02*
X12879386Y-12328721D01*
X12865100Y-12300150D01*
X12836528Y-12285864D01*
X12793671Y-12285864D01*
X12765100Y-12300150D01*
X12750814Y-12314436D01*
X13065100Y-12485864D02*
X13036528Y-12471579D01*
X13022243Y-12457293D01*
X13007957Y-12428721D01*
X13007957Y-12343007D01*
X13022243Y-12314436D01*
X13036528Y-12300150D01*
X13065100Y-12285864D01*
X13107957Y-12285864D01*
X13136528Y-12300150D01*
X13150814Y-12314436D01*
X13165100Y-12343007D01*
X13165100Y-12428721D01*
X13150814Y-12457293D01*
X13136528Y-12471579D01*
X13107957Y-12485864D01*
X13065100Y-12485864D01*
X13336528Y-12485864D02*
X13307957Y-12471579D01*
X13293671Y-12443007D01*
X13293671Y-12185864D01*
X13565100Y-12471579D02*
X13536528Y-12485864D01*
X13479386Y-12485864D01*
X13450814Y-12471579D01*
X13436528Y-12443007D01*
X13436528Y-12328721D01*
X13450814Y-12300150D01*
X13479386Y-12285864D01*
X13536528Y-12285864D01*
X13565100Y-12300150D01*
X13579386Y-12328721D01*
X13579386Y-12357293D01*
X13436528Y-12385864D01*
X13693671Y-12471579D02*
X13722243Y-12485864D01*
X13779386Y-12485864D01*
X13807957Y-12471579D01*
X13822243Y-12443007D01*
X13822243Y-12428721D01*
X13807957Y-12400150D01*
X13779386Y-12385864D01*
X13736528Y-12385864D01*
X13707957Y-12371579D01*
X13693671Y-12343007D01*
X13693671Y-12328721D01*
X13707957Y-12300150D01*
X13736528Y-12285864D01*
X13779386Y-12285864D01*
X13807957Y-12300150D01*
X13922243Y-12600150D02*
X13936528Y-12585864D01*
X13965100Y-12543007D01*
X13979386Y-12514436D01*
X13993671Y-12471579D01*
X14007957Y-12400150D01*
X14007957Y-12343007D01*
X13993671Y-12271579D01*
X13979386Y-12228721D01*
X13965100Y-12200150D01*
X13936528Y-12157293D01*
X13922243Y-12143007D01*
M02*
