G04 #@! TF.GenerationSoftware,KiCad,Pcbnew,(5.1.6)-1*
G04 #@! TF.CreationDate,2020-06-22T15:28:22+05:30*
G04 #@! TF.ProjectId,ESP8266_RelayBoard,45535038-3236-4365-9f52-656c6179426f,rev?*
G04 #@! TF.SameCoordinates,Original*
G04 #@! TF.FileFunction,Legend,Top*
G04 #@! TF.FilePolarity,Positive*
%FSLAX46Y46*%
G04 Gerber Fmt 4.6, Leading zero omitted, Abs format (unit mm)*
G04 Created by KiCad (PCBNEW (5.1.6)-1) date 2020-06-22 15:28:22*
%MOMM*%
%LPD*%
G01*
G04 APERTURE LIST*
G04 #@! TA.AperFunction,Profile*
%ADD10C,0.203200*%
G04 #@! TD*
G04 #@! TA.AperFunction,Profile*
%ADD11C,0.381000*%
G04 #@! TD*
%ADD12C,0.508000*%
%ADD13C,0.203200*%
%ADD14C,0.254000*%
%ADD15C,0.127000*%
%ADD16C,0.250000*%
G04 APERTURE END LIST*
D10*
X160464500Y-88265000D02*
X159448500Y-89281000D01*
X166052500Y-88265000D02*
X160464500Y-88265000D01*
X159448500Y-94615000D02*
X160464500Y-95631000D01*
X159448500Y-89281000D02*
X159448500Y-94615000D01*
X160464500Y-95631000D02*
X166052500Y-95631000D01*
X166052500Y-95631000D02*
X166052500Y-94551500D01*
X160464500Y-89789000D02*
X160972500Y-89281000D01*
X166052500Y-94551500D02*
X160972500Y-94551500D01*
X160464500Y-94043500D02*
X160464500Y-89789000D01*
X160972500Y-89281000D02*
X166052500Y-89281000D01*
X166052500Y-89281000D02*
X166052500Y-88265000D01*
X160972500Y-94551500D02*
X160464500Y-94043500D01*
X160337500Y-71501000D02*
X159321500Y-72517000D01*
X165925500Y-71501000D02*
X160337500Y-71501000D01*
X159321500Y-77851000D02*
X160337500Y-78867000D01*
X159321500Y-72517000D02*
X159321500Y-77851000D01*
X160337500Y-78867000D02*
X165925500Y-78867000D01*
X165925500Y-78867000D02*
X165925500Y-77787500D01*
X160337500Y-73025000D02*
X160845500Y-72517000D01*
X165925500Y-77787500D02*
X160845500Y-77787500D01*
X160337500Y-77279500D02*
X160337500Y-73025000D01*
X160845500Y-72517000D02*
X165925500Y-72517000D01*
X165925500Y-72517000D02*
X165925500Y-71501000D01*
X160845500Y-77787500D02*
X160337500Y-77279500D01*
X160274000Y-53975000D02*
X159258000Y-54991000D01*
X165862000Y-53975000D02*
X160274000Y-53975000D01*
X159258000Y-60325000D02*
X160274000Y-61341000D01*
X159258000Y-54991000D02*
X159258000Y-60325000D01*
X160274000Y-61341000D02*
X165862000Y-61341000D01*
X165862000Y-61341000D02*
X165862000Y-60261500D01*
X160274000Y-55499000D02*
X160782000Y-54991000D01*
X165862000Y-60261500D02*
X160782000Y-60261500D01*
X160274000Y-59753500D02*
X160274000Y-55499000D01*
X160782000Y-54991000D02*
X165862000Y-54991000D01*
X165862000Y-54991000D02*
X165862000Y-53975000D01*
X160782000Y-60261500D02*
X160274000Y-59753500D01*
X160274000Y-37020500D02*
X159258000Y-38036500D01*
X165862000Y-37020500D02*
X160274000Y-37020500D01*
X159258000Y-43370500D02*
X160274000Y-44386500D01*
X159258000Y-38036500D02*
X159258000Y-43370500D01*
X160274000Y-44386500D02*
X165862000Y-44386500D01*
X165862000Y-44386500D02*
X165862000Y-43307000D01*
X160274000Y-38544500D02*
X160782000Y-38036500D01*
X165862000Y-43307000D02*
X160782000Y-43307000D01*
X160274000Y-42799000D02*
X160274000Y-38544500D01*
X160782000Y-38036500D02*
X165862000Y-38036500D01*
X165862000Y-38036500D02*
X165862000Y-37020500D01*
X160782000Y-43307000D02*
X160274000Y-42799000D01*
X107378500Y-61087000D02*
X108394500Y-60071000D01*
X101790500Y-61087000D02*
X107378500Y-61087000D01*
X108394500Y-54737000D02*
X107378500Y-53721000D01*
X108394500Y-60071000D02*
X108394500Y-54737000D01*
X107378500Y-53721000D02*
X101790500Y-53721000D01*
X101790500Y-53721000D02*
X101790500Y-54800500D01*
X107378500Y-59563000D02*
X106870500Y-60071000D01*
X101790500Y-54800500D02*
X106870500Y-54800500D01*
X107378500Y-55308500D02*
X107378500Y-59563000D01*
X106870500Y-60071000D02*
X101790500Y-60071000D01*
X101790500Y-60071000D02*
X101790500Y-61087000D01*
X106870500Y-54800500D02*
X107378500Y-55308500D01*
X107696000Y-78740000D02*
X108712000Y-77724000D01*
X102108000Y-78740000D02*
X107696000Y-78740000D01*
X108712000Y-72390000D02*
X107696000Y-71374000D01*
X108712000Y-77724000D02*
X108712000Y-72390000D01*
X107696000Y-71374000D02*
X102108000Y-71374000D01*
X102108000Y-71374000D02*
X102108000Y-72453500D01*
X107696000Y-77216000D02*
X107188000Y-77724000D01*
X102108000Y-72453500D02*
X107188000Y-72453500D01*
X107696000Y-72961500D02*
X107696000Y-77216000D01*
X107188000Y-77724000D02*
X102108000Y-77724000D01*
X102108000Y-77724000D02*
X102108000Y-78740000D01*
X107188000Y-72453500D02*
X107696000Y-72961500D01*
X107378500Y-44259500D02*
X108394500Y-43243500D01*
X101790500Y-44259500D02*
X107378500Y-44259500D01*
X108394500Y-37909500D02*
X107378500Y-36893500D01*
X108394500Y-43243500D02*
X108394500Y-37909500D01*
X107378500Y-36893500D02*
X101790500Y-36893500D01*
X101790500Y-36893500D02*
X101790500Y-37973000D01*
X107378500Y-42735500D02*
X106870500Y-43243500D01*
X101790500Y-37973000D02*
X106870500Y-37973000D01*
X107378500Y-38481000D02*
X107378500Y-42735500D01*
X106870500Y-43243500D02*
X101790500Y-43243500D01*
X101790500Y-43243500D02*
X101790500Y-44259500D01*
X106870500Y-37973000D02*
X107378500Y-38481000D01*
D11*
X71691500Y-31559500D02*
X125349000Y-31559500D01*
X145732500Y-31559500D02*
X196151500Y-31559500D01*
X125349000Y-45339000D02*
X125349000Y-31559500D01*
X145732500Y-45339000D02*
X145732500Y-31559500D01*
X125349000Y-45339000D02*
X145732500Y-45339000D01*
X71691500Y-105791000D02*
X71691500Y-31559500D01*
X196215000Y-105791000D02*
X71691500Y-105791000D01*
X196151500Y-31559500D02*
X196215000Y-105791000D01*
D12*
X139954000Y-71144000D02*
G75*
G03*
X139954000Y-71144000I-254000J0D01*
G01*
D13*
X129560000Y-71910000D02*
X129560000Y-80910000D01*
X129560000Y-71910000D02*
X139700000Y-71910000D01*
X129560000Y-80910000D02*
X141450000Y-80910000D01*
X141450000Y-80910000D02*
X141450000Y-73660000D01*
X141450000Y-73660000D02*
X139700000Y-71910000D01*
D14*
X98933000Y-89281000D02*
X98933000Y-98679000D01*
X98933000Y-98679000D02*
X92138500Y-98679000D01*
X92138500Y-98679000D02*
X92138500Y-89281000D01*
X92138500Y-89281000D02*
X98933000Y-89281000D01*
X145034000Y-37528500D02*
X126047500Y-37528500D01*
X145034000Y-64071500D02*
X145034000Y-37528500D01*
X126047500Y-64071500D02*
X145034000Y-64071500D01*
X126047500Y-37528500D02*
X126047500Y-64071500D01*
X136588500Y-89090500D02*
X141541500Y-89090500D01*
X141541500Y-89090500D02*
X141541500Y-91757500D01*
X141541500Y-91757500D02*
X136588500Y-91757500D01*
X136588500Y-91757500D02*
X136588500Y-89090500D01*
X133223000Y-66167000D02*
X138176000Y-66167000D01*
X138176000Y-66167000D02*
X138176000Y-68834000D01*
X138176000Y-68834000D02*
X133223000Y-68834000D01*
X133223000Y-68834000D02*
X133223000Y-66167000D01*
X123367800Y-49225200D02*
X123367800Y-51892200D01*
X118414800Y-49225200D02*
X123367800Y-49225200D01*
X118414800Y-51892200D02*
X118414800Y-49225200D01*
X123367800Y-51892200D02*
X118414800Y-51892200D01*
X117993500Y-44513500D02*
X117993500Y-41846500D01*
X122946500Y-44513500D02*
X117993500Y-44513500D01*
X122946500Y-41846500D02*
X122946500Y-44513500D01*
X117993500Y-41846500D02*
X122946500Y-41846500D01*
X158750000Y-47678000D02*
X156083000Y-47678000D01*
X158750000Y-42725000D02*
X158750000Y-47678000D01*
X156083000Y-42725000D02*
X158750000Y-42725000D01*
X156083000Y-47678000D02*
X156083000Y-42725000D01*
X158877000Y-64492800D02*
X156210000Y-64492800D01*
X158877000Y-59539800D02*
X158877000Y-64492800D01*
X156210000Y-59539800D02*
X158877000Y-59539800D01*
X156210000Y-64492800D02*
X156210000Y-59539800D01*
X158838900Y-82141400D02*
X156171900Y-82141400D01*
X158838900Y-77188400D02*
X158838900Y-82141400D01*
X156171900Y-77188400D02*
X158838900Y-77188400D01*
X156171900Y-82141400D02*
X156171900Y-77188400D01*
X158813500Y-99377500D02*
X156146500Y-99377500D01*
X158813500Y-94424500D02*
X158813500Y-99377500D01*
X156146500Y-94424500D02*
X158813500Y-94424500D01*
X156146500Y-99377500D02*
X156146500Y-94424500D01*
X111696500Y-67995800D02*
X111696500Y-72948800D01*
X111696500Y-72948800D02*
X109029500Y-72948800D01*
X109029500Y-72948800D02*
X109029500Y-67995800D01*
X109029500Y-67995800D02*
X111696500Y-67995800D01*
X108839000Y-50340600D02*
X111506000Y-50340600D01*
X108839000Y-55293600D02*
X108839000Y-50340600D01*
X111506000Y-55293600D02*
X108839000Y-55293600D01*
X111506000Y-50340600D02*
X111506000Y-55293600D01*
X108839000Y-33528000D02*
X111506000Y-33528000D01*
X108839000Y-38481000D02*
X108839000Y-33528000D01*
X111506000Y-38481000D02*
X108839000Y-38481000D01*
X111506000Y-33528000D02*
X111506000Y-38481000D01*
X156083000Y-33682600D02*
X158750000Y-33682600D01*
X156083000Y-38635600D02*
X156083000Y-33111100D01*
X158750000Y-38635600D02*
X156083000Y-38635600D01*
X158750000Y-33111100D02*
X158750000Y-38635600D01*
X156083000Y-33111100D02*
X158750000Y-33111100D01*
X156210000Y-50416800D02*
X158877000Y-50416800D01*
X156210000Y-55369800D02*
X156210000Y-49845300D01*
X158877000Y-55369800D02*
X156210000Y-55369800D01*
X158877000Y-49845300D02*
X158877000Y-55369800D01*
X156210000Y-49845300D02*
X158877000Y-49845300D01*
X156171900Y-68074200D02*
X158838900Y-68074200D01*
X156171900Y-73027200D02*
X156171900Y-67502700D01*
X158838900Y-73027200D02*
X156171900Y-73027200D01*
X158838900Y-67502700D02*
X158838900Y-73027200D01*
X156171900Y-67502700D02*
X158838900Y-67502700D01*
X156184600Y-84863600D02*
X158851600Y-84863600D01*
X156184600Y-89816600D02*
X156184600Y-84292100D01*
X158851600Y-89816600D02*
X156184600Y-89816600D01*
X158851600Y-84292100D02*
X158851600Y-89816600D01*
X156184600Y-84292100D02*
X158851600Y-84292100D01*
X111696500Y-82486500D02*
X109029500Y-82486500D01*
X109029500Y-82486500D02*
X109029500Y-76962000D01*
X109029500Y-76962000D02*
X111696500Y-76962000D01*
X111696500Y-76962000D02*
X111696500Y-82486500D01*
X111696500Y-81915000D02*
X109029500Y-81915000D01*
X111506000Y-64465200D02*
X108839000Y-64465200D01*
X111506000Y-59512200D02*
X111506000Y-65036700D01*
X108839000Y-59512200D02*
X111506000Y-59512200D01*
X108839000Y-65036700D02*
X108839000Y-59512200D01*
X111506000Y-65036700D02*
X108839000Y-65036700D01*
X111506000Y-47576400D02*
X108839000Y-47576400D01*
X111506000Y-42623400D02*
X111506000Y-48147900D01*
X108839000Y-42623400D02*
X111506000Y-42623400D01*
X108839000Y-48147900D02*
X108839000Y-42623400D01*
X111506000Y-48147900D02*
X108839000Y-48147900D01*
X71996300Y-87884000D02*
X71996300Y-95402400D01*
X72504300Y-92456000D02*
X71996300Y-92456000D01*
X72504300Y-90932000D02*
X72504300Y-92456000D01*
X71996300Y-90932000D02*
X72504300Y-90932000D01*
X80581500Y-87884000D02*
X71996300Y-87884000D01*
X80581500Y-87884000D02*
X80581500Y-95402400D01*
X80581500Y-95402400D02*
X71996300Y-95402400D01*
D12*
X137922000Y-97980500D02*
G75*
G03*
X137922000Y-97980500I-254000J0D01*
G01*
D14*
X135763000Y-96901000D02*
X147193000Y-96901000D01*
X135763000Y-96901000D02*
X135763000Y-93091000D01*
X147193000Y-93091000D02*
X135763000Y-93091000D01*
X147193000Y-96901000D02*
X147193000Y-93091000D01*
D12*
X124841000Y-97980500D02*
G75*
G03*
X124841000Y-97980500I-254000J0D01*
G01*
D14*
X122682000Y-96901000D02*
X134112000Y-96901000D01*
X122682000Y-96901000D02*
X122682000Y-93091000D01*
X134112000Y-93091000D02*
X122682000Y-93091000D01*
X134112000Y-96901000D02*
X134112000Y-93091000D01*
X152044400Y-43836700D02*
X152044400Y-36470700D01*
X152044400Y-43836700D02*
X155727400Y-43836700D01*
X155727400Y-36470700D02*
X152044400Y-36470700D01*
X155727400Y-43836700D02*
X155727400Y-36470700D01*
X152107900Y-44522500D02*
X155727400Y-44522500D01*
X152069800Y-60718700D02*
X152069800Y-53352700D01*
X152069800Y-60718700D02*
X155752800Y-60718700D01*
X155752800Y-53352700D02*
X152069800Y-53352700D01*
X155752800Y-60718700D02*
X155752800Y-53352700D01*
X152133300Y-61404500D02*
X155752800Y-61404500D01*
X152095200Y-78456900D02*
X152095200Y-71090900D01*
X152095200Y-78456900D02*
X155778200Y-78456900D01*
X155778200Y-71090900D02*
X152095200Y-71090900D01*
X155778200Y-78456900D02*
X155778200Y-71090900D01*
X152158700Y-79142700D02*
X155778200Y-79142700D01*
X152082500Y-95250000D02*
X152082500Y-87884000D01*
X152082500Y-95250000D02*
X155765500Y-95250000D01*
X155765500Y-87884000D02*
X152082500Y-87884000D01*
X155765500Y-95250000D02*
X155765500Y-87884000D01*
X152146000Y-95935800D02*
X155765500Y-95935800D01*
X115824000Y-70697200D02*
X112204500Y-70697200D01*
X112204500Y-71383000D02*
X112204500Y-78749000D01*
X112204500Y-78749000D02*
X115887500Y-78749000D01*
X115887500Y-71383000D02*
X112204500Y-71383000D01*
X115887500Y-71383000D02*
X115887500Y-78749000D01*
X115633500Y-53691900D02*
X115633500Y-61057900D01*
X115633500Y-53691900D02*
X111950500Y-53691900D01*
X111950500Y-61057900D02*
X115633500Y-61057900D01*
X111950500Y-53691900D02*
X111950500Y-61057900D01*
X115570000Y-53006100D02*
X111950500Y-53006100D01*
X115620800Y-37147500D02*
X115620800Y-44513500D01*
X115620800Y-37147500D02*
X111937800Y-37147500D01*
X111937800Y-44513500D02*
X115620800Y-44513500D01*
X111937800Y-37147500D02*
X111937800Y-44513500D01*
X115557300Y-36461700D02*
X111937800Y-36461700D01*
X122946500Y-38798500D02*
X122946500Y-41465500D01*
X117993500Y-38798500D02*
X122946500Y-38798500D01*
X117993500Y-41465500D02*
X117993500Y-38798500D01*
X122946500Y-41465500D02*
X117993500Y-41465500D01*
X123444000Y-61542000D02*
X120777000Y-61542000D01*
X123444000Y-56589000D02*
X123444000Y-61542000D01*
X120777000Y-56589000D02*
X123444000Y-56589000D01*
X120777000Y-61542000D02*
X120777000Y-56589000D01*
D15*
X123444000Y-62992000D02*
X123444000Y-63119000D01*
D14*
X120904000Y-62928500D02*
X123444000Y-62928500D01*
X120904000Y-67564000D02*
X120904000Y-62992000D01*
X123444000Y-67627500D02*
X120904000Y-67627500D01*
X123444000Y-62992000D02*
X123444000Y-67564000D01*
X122555000Y-62103000D02*
X121793000Y-62103000D01*
X122174000Y-61722000D02*
X122174000Y-62484000D01*
X122174000Y-68008500D02*
X122174000Y-68770500D01*
D15*
X87630000Y-87450000D02*
X87630000Y-87577000D01*
D14*
X85090000Y-87386500D02*
X87630000Y-87386500D01*
X85090000Y-92022000D02*
X85090000Y-87450000D01*
X87630000Y-92085500D02*
X85090000Y-92085500D01*
X87630000Y-87450000D02*
X87630000Y-92022000D01*
X86741000Y-86561000D02*
X85979000Y-86561000D01*
X86360000Y-86180000D02*
X86360000Y-86942000D01*
X86360000Y-92466500D02*
X86360000Y-93228500D01*
X88582500Y-87259500D02*
X91249500Y-87259500D01*
X88582500Y-92212500D02*
X88582500Y-87259500D01*
X91249500Y-92212500D02*
X88582500Y-92212500D01*
X91249500Y-87259500D02*
X91249500Y-92212500D01*
X160537500Y-32575500D02*
X180095500Y-32575500D01*
X180095500Y-32575500D02*
X180095500Y-48831500D01*
X180095500Y-48831500D02*
X160664500Y-48831500D01*
X160537500Y-48704500D02*
X160537500Y-32575500D01*
X160591500Y-49339500D02*
X180149500Y-49339500D01*
X180149500Y-49339500D02*
X180149500Y-65595500D01*
X180149500Y-65595500D02*
X160718500Y-65595500D01*
X160591500Y-65468500D02*
X160591500Y-49339500D01*
X160718500Y-66992500D02*
X180276500Y-66992500D01*
X180276500Y-66992500D02*
X180276500Y-83248500D01*
X180276500Y-83248500D02*
X160845500Y-83248500D01*
X160718500Y-83121500D02*
X160718500Y-66992500D01*
X160718500Y-83756500D02*
X180276500Y-83756500D01*
X180276500Y-83756500D02*
X180276500Y-100012500D01*
X180276500Y-100012500D02*
X160845500Y-100012500D01*
X160718500Y-99885500D02*
X160718500Y-83756500D01*
X107302300Y-66941700D02*
X107302300Y-83070700D01*
X87744300Y-66814700D02*
X107175300Y-66814700D01*
X87744300Y-83070700D02*
X87744300Y-66814700D01*
X107302300Y-83070700D02*
X87744300Y-83070700D01*
X107149900Y-49415700D02*
X107149900Y-65544700D01*
X87591900Y-49288700D02*
X107022900Y-49288700D01*
X87591900Y-65544700D02*
X87591900Y-49288700D01*
X107149900Y-65544700D02*
X87591900Y-65544700D01*
X107124500Y-32575500D02*
X107124500Y-48704500D01*
X87566500Y-32448500D02*
X106997500Y-32448500D01*
X87566500Y-48704500D02*
X87566500Y-32448500D01*
X107124500Y-48704500D02*
X87566500Y-48704500D01*
D12*
X86982300Y-45580300D02*
G75*
G03*
X86982300Y-45580300I-254000J0D01*
G01*
D14*
X85712300Y-48120300D02*
X71869300Y-48120300D01*
X85712300Y-32880300D02*
X71869300Y-32880300D01*
X84442300Y-48120300D02*
X84442300Y-32880300D01*
X71869300Y-48120300D02*
X71869300Y-32880300D01*
X85712300Y-48120300D02*
X85712300Y-32880300D01*
X85763100Y-65036700D02*
X85763100Y-49796700D01*
X71920100Y-65036700D02*
X71920100Y-49796700D01*
X84493100Y-65036700D02*
X84493100Y-49796700D01*
X85763100Y-49796700D02*
X71920100Y-49796700D01*
X85763100Y-65036700D02*
X71920100Y-65036700D01*
D12*
X87033100Y-62496700D02*
G75*
G03*
X87033100Y-62496700I-254000J0D01*
G01*
D14*
X85813900Y-82562700D02*
X85813900Y-67322700D01*
X71970900Y-82562700D02*
X71970900Y-67322700D01*
X84543900Y-82562700D02*
X84543900Y-67322700D01*
X85813900Y-67322700D02*
X71970900Y-67322700D01*
X85813900Y-82562700D02*
X71970900Y-82562700D01*
D12*
X87083900Y-80022700D02*
G75*
G03*
X87083900Y-80022700I-254000J0D01*
G01*
D14*
X182054500Y-84201000D02*
X182054500Y-99441000D01*
X195897500Y-84201000D02*
X195897500Y-99441000D01*
X183324500Y-84201000D02*
X183324500Y-99441000D01*
X182054500Y-99441000D02*
X195897500Y-99441000D01*
X182054500Y-84201000D02*
X195897500Y-84201000D01*
D12*
X181292500Y-86741000D02*
G75*
G03*
X181292500Y-86741000I-254000J0D01*
G01*
X181216300Y-70065900D02*
G75*
G03*
X181216300Y-70065900I-254000J0D01*
G01*
D14*
X181978300Y-67525900D02*
X195821300Y-67525900D01*
X181978300Y-82765900D02*
X195821300Y-82765900D01*
X183248300Y-67525900D02*
X183248300Y-82765900D01*
X195821300Y-67525900D02*
X195821300Y-82765900D01*
X181978300Y-67525900D02*
X181978300Y-82765900D01*
X181876700Y-49847500D02*
X181876700Y-65087500D01*
X195719700Y-49847500D02*
X195719700Y-65087500D01*
X183146700Y-49847500D02*
X183146700Y-65087500D01*
X181876700Y-65087500D02*
X195719700Y-65087500D01*
X181876700Y-49847500D02*
X195719700Y-49847500D01*
D12*
X181114700Y-52387500D02*
G75*
G03*
X181114700Y-52387500I-254000J0D01*
G01*
D14*
X181876700Y-33134300D02*
X181876700Y-48374300D01*
X195719700Y-33134300D02*
X195719700Y-48374300D01*
X183146700Y-33134300D02*
X183146700Y-48374300D01*
X181876700Y-48374300D02*
X195719700Y-48374300D01*
X181876700Y-33134300D02*
X195719700Y-33134300D01*
D12*
X181114700Y-35674300D02*
G75*
G03*
X181114700Y-35674300I-254000J0D01*
G01*
D13*
X134620095Y-82002380D02*
X134620095Y-82811904D01*
X134667714Y-82907142D01*
X134715333Y-82954761D01*
X134810571Y-83002380D01*
X135001047Y-83002380D01*
X135096285Y-82954761D01*
X135143904Y-82907142D01*
X135191523Y-82811904D01*
X135191523Y-82002380D01*
X135572476Y-82002380D02*
X136191523Y-82002380D01*
X135858190Y-82383333D01*
X136001047Y-82383333D01*
X136096285Y-82430952D01*
X136143904Y-82478571D01*
X136191523Y-82573809D01*
X136191523Y-82811904D01*
X136143904Y-82907142D01*
X136096285Y-82954761D01*
X136001047Y-83002380D01*
X135715333Y-83002380D01*
X135620095Y-82954761D01*
X135572476Y-82907142D01*
D14*
X95044380Y-87696523D02*
X95044380Y-88724619D01*
X95104857Y-88845571D01*
X95165333Y-88906047D01*
X95286285Y-88966523D01*
X95528190Y-88966523D01*
X95649142Y-88906047D01*
X95709619Y-88845571D01*
X95770095Y-88724619D01*
X95770095Y-87696523D01*
X96314380Y-87817476D02*
X96374857Y-87757000D01*
X96495809Y-87696523D01*
X96798190Y-87696523D01*
X96919142Y-87757000D01*
X96979619Y-87817476D01*
X97040095Y-87938428D01*
X97040095Y-88059380D01*
X96979619Y-88240809D01*
X96253904Y-88966523D01*
X97040095Y-88966523D01*
D16*
X145948495Y-62164980D02*
X145948495Y-62974504D01*
X145996114Y-63069742D01*
X146043733Y-63117361D01*
X146138971Y-63164980D01*
X146329447Y-63164980D01*
X146424685Y-63117361D01*
X146472304Y-63069742D01*
X146519923Y-62974504D01*
X146519923Y-62164980D01*
X147519923Y-63164980D02*
X146948495Y-63164980D01*
X147234209Y-63164980D02*
X147234209Y-62164980D01*
X147138971Y-62307838D01*
X147043733Y-62403076D01*
X146948495Y-62450695D01*
D13*
X138284857Y-88597619D02*
X137946190Y-88113809D01*
X137704285Y-88597619D02*
X137704285Y-87581619D01*
X138091333Y-87581619D01*
X138188095Y-87630000D01*
X138236476Y-87678380D01*
X138284857Y-87775142D01*
X138284857Y-87920285D01*
X138236476Y-88017047D01*
X138188095Y-88065428D01*
X138091333Y-88113809D01*
X137704285Y-88113809D01*
X139252476Y-88597619D02*
X138671904Y-88597619D01*
X138962190Y-88597619D02*
X138962190Y-87581619D01*
X138865428Y-87726761D01*
X138768666Y-87823523D01*
X138671904Y-87871904D01*
X140220095Y-88597619D02*
X139639523Y-88597619D01*
X139929809Y-88597619D02*
X139929809Y-87581619D01*
X139833047Y-87726761D01*
X139736285Y-87823523D01*
X139639523Y-87871904D01*
X130664857Y-68023619D02*
X130326190Y-67539809D01*
X130084285Y-68023619D02*
X130084285Y-67007619D01*
X130471333Y-67007619D01*
X130568095Y-67056000D01*
X130616476Y-67104380D01*
X130664857Y-67201142D01*
X130664857Y-67346285D01*
X130616476Y-67443047D01*
X130568095Y-67491428D01*
X130471333Y-67539809D01*
X130084285Y-67539809D01*
X131632476Y-68023619D02*
X131051904Y-68023619D01*
X131342190Y-68023619D02*
X131342190Y-67007619D01*
X131245428Y-67152761D01*
X131148666Y-67249523D01*
X131051904Y-67297904D01*
X132261428Y-67007619D02*
X132358190Y-67007619D01*
X132454952Y-67056000D01*
X132503333Y-67104380D01*
X132551714Y-67201142D01*
X132600095Y-67394666D01*
X132600095Y-67636571D01*
X132551714Y-67830095D01*
X132503333Y-67926857D01*
X132454952Y-67975238D01*
X132358190Y-68023619D01*
X132261428Y-68023619D01*
X132164666Y-67975238D01*
X132116285Y-67926857D01*
X132067904Y-67830095D01*
X132019523Y-67636571D01*
X132019523Y-67394666D01*
X132067904Y-67201142D01*
X132116285Y-67104380D01*
X132164666Y-67056000D01*
X132261428Y-67007619D01*
X120734666Y-53545619D02*
X120396000Y-53061809D01*
X120154095Y-53545619D02*
X120154095Y-52529619D01*
X120541142Y-52529619D01*
X120637904Y-52578000D01*
X120686285Y-52626380D01*
X120734666Y-52723142D01*
X120734666Y-52868285D01*
X120686285Y-52965047D01*
X120637904Y-53013428D01*
X120541142Y-53061809D01*
X120154095Y-53061809D01*
X121218476Y-53545619D02*
X121412000Y-53545619D01*
X121508761Y-53497238D01*
X121557142Y-53448857D01*
X121653904Y-53303714D01*
X121702285Y-53110190D01*
X121702285Y-52723142D01*
X121653904Y-52626380D01*
X121605523Y-52578000D01*
X121508761Y-52529619D01*
X121315238Y-52529619D01*
X121218476Y-52578000D01*
X121170095Y-52626380D01*
X121121714Y-52723142D01*
X121121714Y-52965047D01*
X121170095Y-53061809D01*
X121218476Y-53110190D01*
X121315238Y-53158571D01*
X121508761Y-53158571D01*
X121605523Y-53110190D01*
X121653904Y-53061809D01*
X121702285Y-52965047D01*
X119972666Y-46179619D02*
X119634000Y-45695809D01*
X119392095Y-46179619D02*
X119392095Y-45163619D01*
X119779142Y-45163619D01*
X119875904Y-45212000D01*
X119924285Y-45260380D01*
X119972666Y-45357142D01*
X119972666Y-45502285D01*
X119924285Y-45599047D01*
X119875904Y-45647428D01*
X119779142Y-45695809D01*
X119392095Y-45695809D01*
X120553238Y-45599047D02*
X120456476Y-45550666D01*
X120408095Y-45502285D01*
X120359714Y-45405523D01*
X120359714Y-45357142D01*
X120408095Y-45260380D01*
X120456476Y-45212000D01*
X120553238Y-45163619D01*
X120746761Y-45163619D01*
X120843523Y-45212000D01*
X120891904Y-45260380D01*
X120940285Y-45357142D01*
X120940285Y-45405523D01*
X120891904Y-45502285D01*
X120843523Y-45550666D01*
X120746761Y-45599047D01*
X120553238Y-45599047D01*
X120456476Y-45647428D01*
X120408095Y-45695809D01*
X120359714Y-45792571D01*
X120359714Y-45986095D01*
X120408095Y-46082857D01*
X120456476Y-46131238D01*
X120553238Y-46179619D01*
X120746761Y-46179619D01*
X120843523Y-46131238D01*
X120891904Y-46082857D01*
X120940285Y-45986095D01*
X120940285Y-45792571D01*
X120891904Y-45695809D01*
X120843523Y-45647428D01*
X120746761Y-45599047D01*
X157475766Y-42026719D02*
X157137100Y-41542909D01*
X156895195Y-42026719D02*
X156895195Y-41010719D01*
X157282242Y-41010719D01*
X157379004Y-41059100D01*
X157427385Y-41107480D01*
X157475766Y-41204242D01*
X157475766Y-41349385D01*
X157427385Y-41446147D01*
X157379004Y-41494528D01*
X157282242Y-41542909D01*
X156895195Y-41542909D01*
X157814433Y-41010719D02*
X158491766Y-41010719D01*
X158056338Y-42026719D01*
X157297966Y-58790719D02*
X156959300Y-58306909D01*
X156717395Y-58790719D02*
X156717395Y-57774719D01*
X157104442Y-57774719D01*
X157201204Y-57823100D01*
X157249585Y-57871480D01*
X157297966Y-57968242D01*
X157297966Y-58113385D01*
X157249585Y-58210147D01*
X157201204Y-58258528D01*
X157104442Y-58306909D01*
X156717395Y-58306909D01*
X158168823Y-57774719D02*
X157975300Y-57774719D01*
X157878538Y-57823100D01*
X157830157Y-57871480D01*
X157733395Y-58016623D01*
X157685014Y-58210147D01*
X157685014Y-58597195D01*
X157733395Y-58693957D01*
X157781776Y-58742338D01*
X157878538Y-58790719D01*
X158072061Y-58790719D01*
X158168823Y-58742338D01*
X158217204Y-58693957D01*
X158265585Y-58597195D01*
X158265585Y-58355290D01*
X158217204Y-58258528D01*
X158168823Y-58210147D01*
X158072061Y-58161766D01*
X157878538Y-58161766D01*
X157781776Y-58210147D01*
X157733395Y-58258528D01*
X157685014Y-58355290D01*
X157285266Y-76695519D02*
X156946600Y-76211709D01*
X156704695Y-76695519D02*
X156704695Y-75679519D01*
X157091742Y-75679519D01*
X157188504Y-75727900D01*
X157236885Y-75776280D01*
X157285266Y-75873042D01*
X157285266Y-76018185D01*
X157236885Y-76114947D01*
X157188504Y-76163328D01*
X157091742Y-76211709D01*
X156704695Y-76211709D01*
X158204504Y-75679519D02*
X157720695Y-75679519D01*
X157672314Y-76163328D01*
X157720695Y-76114947D01*
X157817457Y-76066566D01*
X158059361Y-76066566D01*
X158156123Y-76114947D01*
X158204504Y-76163328D01*
X158252885Y-76260090D01*
X158252885Y-76501995D01*
X158204504Y-76598757D01*
X158156123Y-76647138D01*
X158059361Y-76695519D01*
X157817457Y-76695519D01*
X157720695Y-76647138D01*
X157672314Y-76598757D01*
X157158266Y-93552819D02*
X156819600Y-93069009D01*
X156577695Y-93552819D02*
X156577695Y-92536819D01*
X156964742Y-92536819D01*
X157061504Y-92585200D01*
X157109885Y-92633580D01*
X157158266Y-92730342D01*
X157158266Y-92875485D01*
X157109885Y-92972247D01*
X157061504Y-93020628D01*
X156964742Y-93069009D01*
X156577695Y-93069009D01*
X158029123Y-92875485D02*
X158029123Y-93552819D01*
X157787219Y-92488438D02*
X157545314Y-93214152D01*
X158174266Y-93214152D01*
X110320666Y-74792719D02*
X109982000Y-74308909D01*
X109740095Y-74792719D02*
X109740095Y-73776719D01*
X110127142Y-73776719D01*
X110223904Y-73825100D01*
X110272285Y-73873480D01*
X110320666Y-73970242D01*
X110320666Y-74115385D01*
X110272285Y-74212147D01*
X110223904Y-74260528D01*
X110127142Y-74308909D01*
X109740095Y-74308909D01*
X110659333Y-73776719D02*
X111288285Y-73776719D01*
X110949619Y-74163766D01*
X111094761Y-74163766D01*
X111191523Y-74212147D01*
X111239904Y-74260528D01*
X111288285Y-74357290D01*
X111288285Y-74599195D01*
X111239904Y-74695957D01*
X111191523Y-74744338D01*
X111094761Y-74792719D01*
X110804476Y-74792719D01*
X110707714Y-74744338D01*
X110659333Y-74695957D01*
X110066666Y-57355619D02*
X109728000Y-56871809D01*
X109486095Y-57355619D02*
X109486095Y-56339619D01*
X109873142Y-56339619D01*
X109969904Y-56388000D01*
X110018285Y-56436380D01*
X110066666Y-56533142D01*
X110066666Y-56678285D01*
X110018285Y-56775047D01*
X109969904Y-56823428D01*
X109873142Y-56871809D01*
X109486095Y-56871809D01*
X110453714Y-56436380D02*
X110502095Y-56388000D01*
X110598857Y-56339619D01*
X110840761Y-56339619D01*
X110937523Y-56388000D01*
X110985904Y-56436380D01*
X111034285Y-56533142D01*
X111034285Y-56629904D01*
X110985904Y-56775047D01*
X110405333Y-57355619D01*
X111034285Y-57355619D01*
X110066666Y-40083619D02*
X109728000Y-39599809D01*
X109486095Y-40083619D02*
X109486095Y-39067619D01*
X109873142Y-39067619D01*
X109969904Y-39116000D01*
X110018285Y-39164380D01*
X110066666Y-39261142D01*
X110066666Y-39406285D01*
X110018285Y-39503047D01*
X109969904Y-39551428D01*
X109873142Y-39599809D01*
X109486095Y-39599809D01*
X111034285Y-40083619D02*
X110453714Y-40083619D01*
X110744000Y-40083619D02*
X110744000Y-39067619D01*
X110647238Y-39212761D01*
X110550476Y-39309523D01*
X110453714Y-39357904D01*
D14*
X154516666Y-35003619D02*
X154032857Y-35003619D01*
X154032857Y-33987619D01*
X154758571Y-33987619D02*
X155435904Y-33987619D01*
X155000476Y-35003619D01*
X154656366Y-51831119D02*
X154172557Y-51831119D01*
X154172557Y-50815119D01*
X155430461Y-50815119D02*
X155236938Y-50815119D01*
X155140176Y-50863500D01*
X155091795Y-50911880D01*
X154995033Y-51057023D01*
X154946652Y-51250547D01*
X154946652Y-51637595D01*
X154995033Y-51734357D01*
X155043414Y-51782738D01*
X155140176Y-51831119D01*
X155333700Y-51831119D01*
X155430461Y-51782738D01*
X155478842Y-51734357D01*
X155527223Y-51637595D01*
X155527223Y-51395690D01*
X155478842Y-51298928D01*
X155430461Y-51250547D01*
X155333700Y-51202166D01*
X155140176Y-51202166D01*
X155043414Y-51250547D01*
X154995033Y-51298928D01*
X154946652Y-51395690D01*
X154516666Y-69433319D02*
X154032857Y-69433319D01*
X154032857Y-68417319D01*
X155339142Y-68417319D02*
X154855333Y-68417319D01*
X154806952Y-68901128D01*
X154855333Y-68852747D01*
X154952095Y-68804366D01*
X155194000Y-68804366D01*
X155290761Y-68852747D01*
X155339142Y-68901128D01*
X155387523Y-68997890D01*
X155387523Y-69239795D01*
X155339142Y-69336557D01*
X155290761Y-69384938D01*
X155194000Y-69433319D01*
X154952095Y-69433319D01*
X154855333Y-69384938D01*
X154806952Y-69336557D01*
X154770666Y-86311619D02*
X154286857Y-86311619D01*
X154286857Y-85295619D01*
X155544761Y-85634285D02*
X155544761Y-86311619D01*
X155302857Y-85247238D02*
X155060952Y-85972952D01*
X155689904Y-85972952D01*
X113114666Y-81472919D02*
X112630857Y-81472919D01*
X112630857Y-80456919D01*
X113356571Y-80456919D02*
X113985523Y-80456919D01*
X113646857Y-80843966D01*
X113792000Y-80843966D01*
X113888761Y-80892347D01*
X113937142Y-80940728D01*
X113985523Y-81037490D01*
X113985523Y-81279395D01*
X113937142Y-81376157D01*
X113888761Y-81424538D01*
X113792000Y-81472919D01*
X113501714Y-81472919D01*
X113404952Y-81424538D01*
X113356571Y-81376157D01*
X112924166Y-63972319D02*
X112440357Y-63972319D01*
X112440357Y-62956319D01*
X113214452Y-63053080D02*
X113262833Y-63004700D01*
X113359595Y-62956319D01*
X113601500Y-62956319D01*
X113698261Y-63004700D01*
X113746642Y-63053080D01*
X113795023Y-63149842D01*
X113795023Y-63246604D01*
X113746642Y-63391747D01*
X113166071Y-63972319D01*
X113795023Y-63972319D01*
X112860666Y-47703619D02*
X112376857Y-47703619D01*
X112376857Y-46687619D01*
X113731523Y-47703619D02*
X113150952Y-47703619D01*
X113441238Y-47703619D02*
X113441238Y-46687619D01*
X113344476Y-46832761D01*
X113247714Y-46929523D01*
X113150952Y-46977904D01*
D16*
X75136476Y-86307680D02*
X75136476Y-87021966D01*
X75088857Y-87164823D01*
X74993619Y-87260061D01*
X74850761Y-87307680D01*
X74755523Y-87307680D01*
X76136476Y-87307680D02*
X75565047Y-87307680D01*
X75850761Y-87307680D02*
X75850761Y-86307680D01*
X75755523Y-86450538D01*
X75660285Y-86545776D01*
X75565047Y-86593395D01*
X76755523Y-86307680D02*
X76850761Y-86307680D01*
X76946000Y-86355300D01*
X76993619Y-86402919D01*
X77041238Y-86498157D01*
X77088857Y-86688633D01*
X77088857Y-86926728D01*
X77041238Y-87117204D01*
X76993619Y-87212442D01*
X76946000Y-87260061D01*
X76850761Y-87307680D01*
X76755523Y-87307680D01*
X76660285Y-87260061D01*
X76612666Y-87212442D01*
X76565047Y-87117204D01*
X76517428Y-86926728D01*
X76517428Y-86688633D01*
X76565047Y-86498157D01*
X76612666Y-86402919D01*
X76660285Y-86355300D01*
X76755523Y-86307680D01*
D14*
X141393333Y-97487619D02*
X141393333Y-98213333D01*
X141344952Y-98358476D01*
X141248190Y-98455238D01*
X141103047Y-98503619D01*
X141006285Y-98503619D01*
X141925523Y-98503619D02*
X142119047Y-98503619D01*
X142215809Y-98455238D01*
X142264190Y-98406857D01*
X142360952Y-98261714D01*
X142409333Y-98068190D01*
X142409333Y-97681142D01*
X142360952Y-97584380D01*
X142312571Y-97536000D01*
X142215809Y-97487619D01*
X142022285Y-97487619D01*
X141925523Y-97536000D01*
X141877142Y-97584380D01*
X141828761Y-97681142D01*
X141828761Y-97923047D01*
X141877142Y-98019809D01*
X141925523Y-98068190D01*
X142022285Y-98116571D01*
X142215809Y-98116571D01*
X142312571Y-98068190D01*
X142360952Y-98019809D01*
X142409333Y-97923047D01*
X127931333Y-97741619D02*
X127931333Y-98467333D01*
X127882952Y-98612476D01*
X127786190Y-98709238D01*
X127641047Y-98757619D01*
X127544285Y-98757619D01*
X128560285Y-98177047D02*
X128463523Y-98128666D01*
X128415142Y-98080285D01*
X128366761Y-97983523D01*
X128366761Y-97935142D01*
X128415142Y-97838380D01*
X128463523Y-97790000D01*
X128560285Y-97741619D01*
X128753809Y-97741619D01*
X128850571Y-97790000D01*
X128898952Y-97838380D01*
X128947333Y-97935142D01*
X128947333Y-97983523D01*
X128898952Y-98080285D01*
X128850571Y-98128666D01*
X128753809Y-98177047D01*
X128560285Y-98177047D01*
X128463523Y-98225428D01*
X128415142Y-98273809D01*
X128366761Y-98370571D01*
X128366761Y-98564095D01*
X128415142Y-98660857D01*
X128463523Y-98709238D01*
X128560285Y-98757619D01*
X128753809Y-98757619D01*
X128850571Y-98709238D01*
X128898952Y-98660857D01*
X128947333Y-98564095D01*
X128947333Y-98370571D01*
X128898952Y-98273809D01*
X128850571Y-98225428D01*
X128753809Y-98177047D01*
X153262995Y-46497119D02*
X153262995Y-45481119D01*
X153504900Y-45481119D01*
X153650042Y-45529500D01*
X153746804Y-45626261D01*
X153795185Y-45723023D01*
X153843566Y-45916547D01*
X153843566Y-46061690D01*
X153795185Y-46255214D01*
X153746804Y-46351976D01*
X153650042Y-46448738D01*
X153504900Y-46497119D01*
X153262995Y-46497119D01*
X154182233Y-45481119D02*
X154859566Y-45481119D01*
X154424138Y-46497119D01*
X153237595Y-63261119D02*
X153237595Y-62245119D01*
X153479500Y-62245119D01*
X153624642Y-62293500D01*
X153721404Y-62390261D01*
X153769785Y-62487023D01*
X153818166Y-62680547D01*
X153818166Y-62825690D01*
X153769785Y-63019214D01*
X153721404Y-63115976D01*
X153624642Y-63212738D01*
X153479500Y-63261119D01*
X153237595Y-63261119D01*
X154689023Y-62245119D02*
X154495500Y-62245119D01*
X154398738Y-62293500D01*
X154350357Y-62341880D01*
X154253595Y-62487023D01*
X154205214Y-62680547D01*
X154205214Y-63067595D01*
X154253595Y-63164357D01*
X154301976Y-63212738D01*
X154398738Y-63261119D01*
X154592261Y-63261119D01*
X154689023Y-63212738D01*
X154737404Y-63164357D01*
X154785785Y-63067595D01*
X154785785Y-62825690D01*
X154737404Y-62728928D01*
X154689023Y-62680547D01*
X154592261Y-62632166D01*
X154398738Y-62632166D01*
X154301976Y-62680547D01*
X154253595Y-62728928D01*
X154205214Y-62825690D01*
X153161395Y-81066519D02*
X153161395Y-80050519D01*
X153403300Y-80050519D01*
X153548442Y-80098900D01*
X153645204Y-80195661D01*
X153693585Y-80292423D01*
X153741966Y-80485947D01*
X153741966Y-80631090D01*
X153693585Y-80824614D01*
X153645204Y-80921376D01*
X153548442Y-81018138D01*
X153403300Y-81066519D01*
X153161395Y-81066519D01*
X154661204Y-80050519D02*
X154177395Y-80050519D01*
X154129014Y-80534328D01*
X154177395Y-80485947D01*
X154274157Y-80437566D01*
X154516061Y-80437566D01*
X154612823Y-80485947D01*
X154661204Y-80534328D01*
X154709585Y-80631090D01*
X154709585Y-80872995D01*
X154661204Y-80969757D01*
X154612823Y-81018138D01*
X154516061Y-81066519D01*
X154274157Y-81066519D01*
X154177395Y-81018138D01*
X154129014Y-80969757D01*
X153174095Y-97741619D02*
X153174095Y-96725619D01*
X153416000Y-96725619D01*
X153561142Y-96774000D01*
X153657904Y-96870761D01*
X153706285Y-96967523D01*
X153754666Y-97161047D01*
X153754666Y-97306190D01*
X153706285Y-97499714D01*
X153657904Y-97596476D01*
X153561142Y-97693238D01*
X153416000Y-97741619D01*
X153174095Y-97741619D01*
X154625523Y-97064285D02*
X154625523Y-97741619D01*
X154383619Y-96677238D02*
X154141714Y-97402952D01*
X154770666Y-97402952D01*
X113296095Y-69810619D02*
X113296095Y-68794619D01*
X113538000Y-68794619D01*
X113683142Y-68843000D01*
X113779904Y-68939761D01*
X113828285Y-69036523D01*
X113876666Y-69230047D01*
X113876666Y-69375190D01*
X113828285Y-69568714D01*
X113779904Y-69665476D01*
X113683142Y-69762238D01*
X113538000Y-69810619D01*
X113296095Y-69810619D01*
X114215333Y-68794619D02*
X114844285Y-68794619D01*
X114505619Y-69181666D01*
X114650761Y-69181666D01*
X114747523Y-69230047D01*
X114795904Y-69278428D01*
X114844285Y-69375190D01*
X114844285Y-69617095D01*
X114795904Y-69713857D01*
X114747523Y-69762238D01*
X114650761Y-69810619D01*
X114360476Y-69810619D01*
X114263714Y-69762238D01*
X114215333Y-69713857D01*
X113219895Y-52643919D02*
X113219895Y-51627919D01*
X113461800Y-51627919D01*
X113606942Y-51676300D01*
X113703704Y-51773061D01*
X113752085Y-51869823D01*
X113800466Y-52063347D01*
X113800466Y-52208490D01*
X113752085Y-52402014D01*
X113703704Y-52498776D01*
X113606942Y-52595538D01*
X113461800Y-52643919D01*
X113219895Y-52643919D01*
X114187514Y-51724680D02*
X114235895Y-51676300D01*
X114332657Y-51627919D01*
X114574561Y-51627919D01*
X114671323Y-51676300D01*
X114719704Y-51724680D01*
X114768085Y-51821442D01*
X114768085Y-51918204D01*
X114719704Y-52063347D01*
X114139133Y-52643919D01*
X114768085Y-52643919D01*
X113029395Y-35765619D02*
X113029395Y-34749619D01*
X113271300Y-34749619D01*
X113416442Y-34798000D01*
X113513204Y-34894761D01*
X113561585Y-34991523D01*
X113609966Y-35185047D01*
X113609966Y-35330190D01*
X113561585Y-35523714D01*
X113513204Y-35620476D01*
X113416442Y-35717238D01*
X113271300Y-35765619D01*
X113029395Y-35765619D01*
X114577585Y-35765619D02*
X113997014Y-35765619D01*
X114287300Y-35765619D02*
X114287300Y-34749619D01*
X114190538Y-34894761D01*
X114093776Y-34991523D01*
X113997014Y-35039904D01*
D13*
X119972666Y-38208857D02*
X119924285Y-38257238D01*
X119779142Y-38305619D01*
X119682380Y-38305619D01*
X119537238Y-38257238D01*
X119440476Y-38160476D01*
X119392095Y-38063714D01*
X119343714Y-37870190D01*
X119343714Y-37725047D01*
X119392095Y-37531523D01*
X119440476Y-37434761D01*
X119537238Y-37338000D01*
X119682380Y-37289619D01*
X119779142Y-37289619D01*
X119924285Y-37338000D01*
X119972666Y-37386380D01*
X120891904Y-37289619D02*
X120408095Y-37289619D01*
X120359714Y-37773428D01*
X120408095Y-37725047D01*
X120504857Y-37676666D01*
X120746761Y-37676666D01*
X120843523Y-37725047D01*
X120891904Y-37773428D01*
X120940285Y-37870190D01*
X120940285Y-38112095D01*
X120891904Y-38208857D01*
X120843523Y-38257238D01*
X120746761Y-38305619D01*
X120504857Y-38305619D01*
X120408095Y-38257238D01*
X120359714Y-38208857D01*
X119464666Y-59798857D02*
X119416285Y-59847238D01*
X119271142Y-59895619D01*
X119174380Y-59895619D01*
X119029238Y-59847238D01*
X118932476Y-59750476D01*
X118884095Y-59653714D01*
X118835714Y-59460190D01*
X118835714Y-59315047D01*
X118884095Y-59121523D01*
X118932476Y-59024761D01*
X119029238Y-58928000D01*
X119174380Y-58879619D01*
X119271142Y-58879619D01*
X119416285Y-58928000D01*
X119464666Y-58976380D01*
X120335523Y-59218285D02*
X120335523Y-59895619D01*
X120093619Y-58831238D02*
X119851714Y-59556952D01*
X120480666Y-59556952D01*
D14*
X119464666Y-65566857D02*
X119416285Y-65615238D01*
X119271142Y-65663619D01*
X119174380Y-65663619D01*
X119029238Y-65615238D01*
X118932476Y-65518476D01*
X118884095Y-65421714D01*
X118835714Y-65228190D01*
X118835714Y-65083047D01*
X118884095Y-64889523D01*
X118932476Y-64792761D01*
X119029238Y-64696000D01*
X119174380Y-64647619D01*
X119271142Y-64647619D01*
X119416285Y-64696000D01*
X119464666Y-64744380D01*
X119803333Y-64647619D02*
X120432285Y-64647619D01*
X120093619Y-65034666D01*
X120238761Y-65034666D01*
X120335523Y-65083047D01*
X120383904Y-65131428D01*
X120432285Y-65228190D01*
X120432285Y-65470095D01*
X120383904Y-65566857D01*
X120335523Y-65615238D01*
X120238761Y-65663619D01*
X119948476Y-65663619D01*
X119851714Y-65615238D01*
X119803333Y-65566857D01*
X83142666Y-90225857D02*
X83094285Y-90274238D01*
X82949142Y-90322619D01*
X82852380Y-90322619D01*
X82707238Y-90274238D01*
X82610476Y-90177476D01*
X82562095Y-90080714D01*
X82513714Y-89887190D01*
X82513714Y-89742047D01*
X82562095Y-89548523D01*
X82610476Y-89451761D01*
X82707238Y-89355000D01*
X82852380Y-89306619D01*
X82949142Y-89306619D01*
X83094285Y-89355000D01*
X83142666Y-89403380D01*
X83529714Y-89403380D02*
X83578095Y-89355000D01*
X83674857Y-89306619D01*
X83916761Y-89306619D01*
X84013523Y-89355000D01*
X84061904Y-89403380D01*
X84110285Y-89500142D01*
X84110285Y-89596904D01*
X84061904Y-89742047D01*
X83481333Y-90322619D01*
X84110285Y-90322619D01*
D13*
X90000666Y-93580857D02*
X89952285Y-93629238D01*
X89807142Y-93677619D01*
X89710380Y-93677619D01*
X89565238Y-93629238D01*
X89468476Y-93532476D01*
X89420095Y-93435714D01*
X89371714Y-93242190D01*
X89371714Y-93097047D01*
X89420095Y-92903523D01*
X89468476Y-92806761D01*
X89565238Y-92710000D01*
X89710380Y-92661619D01*
X89807142Y-92661619D01*
X89952285Y-92710000D01*
X90000666Y-92758380D01*
X90968285Y-93677619D02*
X90387714Y-93677619D01*
X90678000Y-93677619D02*
X90678000Y-92661619D01*
X90581238Y-92806761D01*
X90484476Y-92903523D01*
X90387714Y-92951904D01*
D16*
X181516280Y-41187595D02*
X180516280Y-41187595D01*
X181516280Y-40616166D02*
X180944852Y-41044738D01*
X180516280Y-40616166D02*
X181087709Y-41187595D01*
X180516280Y-40282833D02*
X180516280Y-39616166D01*
X181516280Y-40044738D01*
X181516280Y-58154795D02*
X180516280Y-58154795D01*
X181516280Y-57583366D02*
X180944852Y-58011938D01*
X180516280Y-57583366D02*
X181087709Y-58154795D01*
X180516280Y-56726223D02*
X180516280Y-56916700D01*
X180563900Y-57011938D01*
X180611519Y-57059557D01*
X180754376Y-57154795D01*
X180944852Y-57202414D01*
X181325804Y-57202414D01*
X181421042Y-57154795D01*
X181468661Y-57107176D01*
X181516280Y-57011938D01*
X181516280Y-56821461D01*
X181468661Y-56726223D01*
X181421042Y-56678604D01*
X181325804Y-56630985D01*
X181087709Y-56630985D01*
X180992471Y-56678604D01*
X180944852Y-56726223D01*
X180897233Y-56821461D01*
X180897233Y-57011938D01*
X180944852Y-57107176D01*
X180992471Y-57154795D01*
X181087709Y-57202414D01*
X181668680Y-76747595D02*
X180668680Y-76747595D01*
X181668680Y-76176166D02*
X181097252Y-76604738D01*
X180668680Y-76176166D02*
X181240109Y-76747595D01*
X180668680Y-75271404D02*
X180668680Y-75747595D01*
X181144871Y-75795214D01*
X181097252Y-75747595D01*
X181049633Y-75652357D01*
X181049633Y-75414261D01*
X181097252Y-75319023D01*
X181144871Y-75271404D01*
X181240109Y-75223785D01*
X181478204Y-75223785D01*
X181573442Y-75271404D01*
X181621061Y-75319023D01*
X181668680Y-75414261D01*
X181668680Y-75652357D01*
X181621061Y-75747595D01*
X181573442Y-75795214D01*
X181668680Y-92952795D02*
X180668680Y-92952795D01*
X181668680Y-92381366D02*
X181097252Y-92809938D01*
X180668680Y-92381366D02*
X181240109Y-92952795D01*
X181002014Y-91524223D02*
X181668680Y-91524223D01*
X180621061Y-91762319D02*
X181335347Y-92000414D01*
X181335347Y-91381366D01*
X87333080Y-76950795D02*
X86333080Y-76950795D01*
X87333080Y-76379366D02*
X86761652Y-76807938D01*
X86333080Y-76379366D02*
X86904509Y-76950795D01*
X86333080Y-76046033D02*
X86333080Y-75426985D01*
X86714033Y-75760319D01*
X86714033Y-75617461D01*
X86761652Y-75522223D01*
X86809271Y-75474604D01*
X86904509Y-75426985D01*
X87142604Y-75426985D01*
X87237842Y-75474604D01*
X87285461Y-75522223D01*
X87333080Y-75617461D01*
X87333080Y-75903176D01*
X87285461Y-75998414D01*
X87237842Y-76046033D01*
X87180680Y-57799195D02*
X86180680Y-57799195D01*
X87180680Y-57227766D02*
X86609252Y-57656338D01*
X86180680Y-57227766D02*
X86752109Y-57799195D01*
X86275919Y-56846814D02*
X86228300Y-56799195D01*
X86180680Y-56703957D01*
X86180680Y-56465861D01*
X86228300Y-56370623D01*
X86275919Y-56323004D01*
X86371157Y-56275385D01*
X86466395Y-56275385D01*
X86609252Y-56323004D01*
X87180680Y-56894433D01*
X87180680Y-56275385D01*
X87079080Y-41847995D02*
X86079080Y-41847995D01*
X87079080Y-41276566D02*
X86507652Y-41705138D01*
X86079080Y-41276566D02*
X86650509Y-41847995D01*
X87079080Y-40324185D02*
X87079080Y-40895614D01*
X87079080Y-40609900D02*
X86079080Y-40609900D01*
X86221938Y-40705138D01*
X86317176Y-40800376D01*
X86364795Y-40895614D01*
D14*
X73232433Y-39893119D02*
X73232433Y-40618833D01*
X73184052Y-40763976D01*
X73087290Y-40860738D01*
X72942147Y-40909119D01*
X72845385Y-40909119D01*
X74248433Y-40909119D02*
X73667861Y-40909119D01*
X73958147Y-40909119D02*
X73958147Y-39893119D01*
X73861385Y-40038261D01*
X73764623Y-40135023D01*
X73667861Y-40183404D01*
X73435633Y-56174519D02*
X73435633Y-56900233D01*
X73387252Y-57045376D01*
X73290490Y-57142138D01*
X73145347Y-57190519D01*
X73048585Y-57190519D01*
X73871061Y-56271280D02*
X73919442Y-56222900D01*
X74016204Y-56174519D01*
X74258109Y-56174519D01*
X74354871Y-56222900D01*
X74403252Y-56271280D01*
X74451633Y-56368042D01*
X74451633Y-56464804D01*
X74403252Y-56609947D01*
X73822680Y-57190519D01*
X74451633Y-57190519D01*
X73384833Y-75453119D02*
X73384833Y-76178833D01*
X73336452Y-76323976D01*
X73239690Y-76420738D01*
X73094547Y-76469119D01*
X72997785Y-76469119D01*
X73771880Y-75453119D02*
X74400833Y-75453119D01*
X74062166Y-75840166D01*
X74207309Y-75840166D01*
X74304071Y-75888547D01*
X74352452Y-75936928D01*
X74400833Y-76033690D01*
X74400833Y-76275595D01*
X74352452Y-76372357D01*
X74304071Y-76420738D01*
X74207309Y-76469119D01*
X73917023Y-76469119D01*
X73820261Y-76420738D01*
X73771880Y-76372357D01*
X193577633Y-91505919D02*
X193577633Y-92231633D01*
X193529252Y-92376776D01*
X193432490Y-92473538D01*
X193287347Y-92521919D01*
X193190585Y-92521919D01*
X194496871Y-91844585D02*
X194496871Y-92521919D01*
X194254966Y-91457538D02*
X194013061Y-92183252D01*
X194642014Y-92183252D01*
X193907833Y-75249919D02*
X193907833Y-75975633D01*
X193859452Y-76120776D01*
X193762690Y-76217538D01*
X193617547Y-76265919D01*
X193520785Y-76265919D01*
X194875452Y-75249919D02*
X194391642Y-75249919D01*
X194343261Y-75733728D01*
X194391642Y-75685347D01*
X194488404Y-75636966D01*
X194730309Y-75636966D01*
X194827071Y-75685347D01*
X194875452Y-75733728D01*
X194923833Y-75830490D01*
X194923833Y-76072395D01*
X194875452Y-76169157D01*
X194827071Y-76217538D01*
X194730309Y-76265919D01*
X194488404Y-76265919D01*
X194391642Y-76217538D01*
X194343261Y-76169157D01*
X193323633Y-56987319D02*
X193323633Y-57713033D01*
X193275252Y-57858176D01*
X193178490Y-57954938D01*
X193033347Y-58003319D01*
X192936585Y-58003319D01*
X194242871Y-56987319D02*
X194049347Y-56987319D01*
X193952585Y-57035700D01*
X193904204Y-57084080D01*
X193807442Y-57229223D01*
X193759061Y-57422747D01*
X193759061Y-57809795D01*
X193807442Y-57906557D01*
X193855823Y-57954938D01*
X193952585Y-58003319D01*
X194146109Y-58003319D01*
X194242871Y-57954938D01*
X194291252Y-57906557D01*
X194339633Y-57809795D01*
X194339633Y-57567890D01*
X194291252Y-57471128D01*
X194242871Y-57422747D01*
X194146109Y-57374366D01*
X193952585Y-57374366D01*
X193855823Y-57422747D01*
X193807442Y-57471128D01*
X193759061Y-57567890D01*
X193374433Y-39689919D02*
X193374433Y-40415633D01*
X193326052Y-40560776D01*
X193229290Y-40657538D01*
X193084147Y-40705919D01*
X192987385Y-40705919D01*
X193761480Y-39689919D02*
X194438814Y-39689919D01*
X194003385Y-40705919D01*
M02*
