G04 #@! TF.GenerationSoftware,KiCad,Pcbnew,(5.1.6)-1*
G04 #@! TF.CreationDate,2020-06-22T15:28:22+05:30*
G04 #@! TF.ProjectId,ESP8266_RelayBoard,45535038-3236-4365-9f52-656c6179426f,rev?*
G04 #@! TF.SameCoordinates,Original*
G04 #@! TF.FileFunction,Paste,Top*
G04 #@! TF.FilePolarity,Positive*
%FSLAX46Y46*%
G04 Gerber Fmt 4.6, Leading zero omitted, Abs format (unit mm)*
G04 Created by KiCad (PCBNEW (5.1.6)-1) date 2020-06-22 15:28:22*
%MOMM*%
%LPD*%
G01*
G04 APERTURE LIST*
G04 #@! TA.AperFunction,Profile*
%ADD10C,0.203200*%
G04 #@! TD*
G04 #@! TA.AperFunction,Profile*
%ADD11C,0.381000*%
G04 #@! TD*
%ADD12R,0.510000X1.500000*%
%ADD13R,3.200000X1.750000*%
%ADD14R,0.950000X1.750000*%
%ADD15R,2.500000X1.100000*%
%ADD16R,1.100000X2.500000*%
%ADD17R,1.270000X1.905000*%
%ADD18R,1.905000X1.270000*%
%ADD19R,1.524000X1.905000*%
G04 APERTURE END LIST*
D10*
X160464500Y-88265000D02*
X159448500Y-89281000D01*
X166052500Y-88265000D02*
X160464500Y-88265000D01*
X159448500Y-94615000D02*
X160464500Y-95631000D01*
X159448500Y-89281000D02*
X159448500Y-94615000D01*
X160464500Y-95631000D02*
X166052500Y-95631000D01*
X166052500Y-95631000D02*
X166052500Y-94551500D01*
X160464500Y-89789000D02*
X160972500Y-89281000D01*
X166052500Y-94551500D02*
X160972500Y-94551500D01*
X160464500Y-94043500D02*
X160464500Y-89789000D01*
X160972500Y-89281000D02*
X166052500Y-89281000D01*
X166052500Y-89281000D02*
X166052500Y-88265000D01*
X160972500Y-94551500D02*
X160464500Y-94043500D01*
X160337500Y-71501000D02*
X159321500Y-72517000D01*
X165925500Y-71501000D02*
X160337500Y-71501000D01*
X159321500Y-77851000D02*
X160337500Y-78867000D01*
X159321500Y-72517000D02*
X159321500Y-77851000D01*
X160337500Y-78867000D02*
X165925500Y-78867000D01*
X165925500Y-78867000D02*
X165925500Y-77787500D01*
X160337500Y-73025000D02*
X160845500Y-72517000D01*
X165925500Y-77787500D02*
X160845500Y-77787500D01*
X160337500Y-77279500D02*
X160337500Y-73025000D01*
X160845500Y-72517000D02*
X165925500Y-72517000D01*
X165925500Y-72517000D02*
X165925500Y-71501000D01*
X160845500Y-77787500D02*
X160337500Y-77279500D01*
X160274000Y-53975000D02*
X159258000Y-54991000D01*
X165862000Y-53975000D02*
X160274000Y-53975000D01*
X159258000Y-60325000D02*
X160274000Y-61341000D01*
X159258000Y-54991000D02*
X159258000Y-60325000D01*
X160274000Y-61341000D02*
X165862000Y-61341000D01*
X165862000Y-61341000D02*
X165862000Y-60261500D01*
X160274000Y-55499000D02*
X160782000Y-54991000D01*
X165862000Y-60261500D02*
X160782000Y-60261500D01*
X160274000Y-59753500D02*
X160274000Y-55499000D01*
X160782000Y-54991000D02*
X165862000Y-54991000D01*
X165862000Y-54991000D02*
X165862000Y-53975000D01*
X160782000Y-60261500D02*
X160274000Y-59753500D01*
X160274000Y-37020500D02*
X159258000Y-38036500D01*
X165862000Y-37020500D02*
X160274000Y-37020500D01*
X159258000Y-43370500D02*
X160274000Y-44386500D01*
X159258000Y-38036500D02*
X159258000Y-43370500D01*
X160274000Y-44386500D02*
X165862000Y-44386500D01*
X165862000Y-44386500D02*
X165862000Y-43307000D01*
X160274000Y-38544500D02*
X160782000Y-38036500D01*
X165862000Y-43307000D02*
X160782000Y-43307000D01*
X160274000Y-42799000D02*
X160274000Y-38544500D01*
X160782000Y-38036500D02*
X165862000Y-38036500D01*
X165862000Y-38036500D02*
X165862000Y-37020500D01*
X160782000Y-43307000D02*
X160274000Y-42799000D01*
X107378500Y-61087000D02*
X108394500Y-60071000D01*
X101790500Y-61087000D02*
X107378500Y-61087000D01*
X108394500Y-54737000D02*
X107378500Y-53721000D01*
X108394500Y-60071000D02*
X108394500Y-54737000D01*
X107378500Y-53721000D02*
X101790500Y-53721000D01*
X101790500Y-53721000D02*
X101790500Y-54800500D01*
X107378500Y-59563000D02*
X106870500Y-60071000D01*
X101790500Y-54800500D02*
X106870500Y-54800500D01*
X107378500Y-55308500D02*
X107378500Y-59563000D01*
X106870500Y-60071000D02*
X101790500Y-60071000D01*
X101790500Y-60071000D02*
X101790500Y-61087000D01*
X106870500Y-54800500D02*
X107378500Y-55308500D01*
X107696000Y-78740000D02*
X108712000Y-77724000D01*
X102108000Y-78740000D02*
X107696000Y-78740000D01*
X108712000Y-72390000D02*
X107696000Y-71374000D01*
X108712000Y-77724000D02*
X108712000Y-72390000D01*
X107696000Y-71374000D02*
X102108000Y-71374000D01*
X102108000Y-71374000D02*
X102108000Y-72453500D01*
X107696000Y-77216000D02*
X107188000Y-77724000D01*
X102108000Y-72453500D02*
X107188000Y-72453500D01*
X107696000Y-72961500D02*
X107696000Y-77216000D01*
X107188000Y-77724000D02*
X102108000Y-77724000D01*
X102108000Y-77724000D02*
X102108000Y-78740000D01*
X107188000Y-72453500D02*
X107696000Y-72961500D01*
X107378500Y-44259500D02*
X108394500Y-43243500D01*
X101790500Y-44259500D02*
X107378500Y-44259500D01*
X108394500Y-37909500D02*
X107378500Y-36893500D01*
X108394500Y-43243500D02*
X108394500Y-37909500D01*
X107378500Y-36893500D02*
X101790500Y-36893500D01*
X101790500Y-36893500D02*
X101790500Y-37973000D01*
X107378500Y-42735500D02*
X106870500Y-43243500D01*
X101790500Y-37973000D02*
X106870500Y-37973000D01*
X107378500Y-38481000D02*
X107378500Y-42735500D01*
X106870500Y-43243500D02*
X101790500Y-43243500D01*
X101790500Y-43243500D02*
X101790500Y-44259500D01*
X106870500Y-37973000D02*
X107378500Y-38481000D01*
D11*
X71691500Y-31559500D02*
X125349000Y-31559500D01*
X145732500Y-31559500D02*
X196151500Y-31559500D01*
X125349000Y-45339000D02*
X125349000Y-31559500D01*
X145732500Y-45339000D02*
X145732500Y-31559500D01*
X125349000Y-45339000D02*
X145732500Y-45339000D01*
X71691500Y-105791000D02*
X71691500Y-31559500D01*
X196215000Y-105791000D02*
X71691500Y-105791000D01*
X196151500Y-31559500D02*
X196215000Y-105791000D01*
D12*
X132080000Y-79160000D03*
X134620000Y-79160000D03*
X137160000Y-79160000D03*
X130810000Y-79160000D03*
X133350000Y-79160000D03*
X135890000Y-79160000D03*
X138430000Y-79160000D03*
X139700000Y-79160000D03*
X135890000Y-73660000D03*
X133350000Y-73660000D03*
X130810000Y-73660000D03*
X132080000Y-73660000D03*
X134620000Y-73660000D03*
X137160000Y-73660000D03*
X138430000Y-73660000D03*
X139700000Y-73660000D03*
D13*
X95504000Y-97130000D03*
D14*
X93204000Y-90830000D03*
X95504000Y-90830000D03*
X97804000Y-90830000D03*
D15*
X127887500Y-46545500D03*
X127887500Y-48545500D03*
X127887500Y-50545500D03*
X127887500Y-52545500D03*
X127887500Y-54545500D03*
X127887500Y-56545500D03*
X127887500Y-58545500D03*
X127887500Y-60545500D03*
X143287500Y-60545500D03*
X143287500Y-58545500D03*
X143287500Y-56545500D03*
X143287500Y-54545500D03*
X143287500Y-52545500D03*
X143287500Y-50545500D03*
X143287500Y-48545500D03*
X143287500Y-46545500D03*
D16*
X130577500Y-62245500D03*
X132577500Y-62245500D03*
X134577500Y-62245500D03*
X136577500Y-62245500D03*
X138577500Y-62245500D03*
X140577500Y-62245500D03*
D17*
X140515000Y-90424000D03*
X137615000Y-90424000D03*
X137149500Y-67500500D03*
X134249500Y-67500500D03*
X122341300Y-50558700D03*
X119441300Y-50558700D03*
X119020000Y-43180000D03*
X121920000Y-43180000D03*
D18*
X157416500Y-46651500D03*
X157416500Y-43751500D03*
X157543500Y-63466300D03*
X157543500Y-60566300D03*
X157505400Y-81114900D03*
X157505400Y-78214900D03*
X157480000Y-98351000D03*
X157480000Y-95451000D03*
X110363000Y-71922300D03*
X110363000Y-69022300D03*
X110172500Y-51367100D03*
X110172500Y-54267100D03*
X110172500Y-34554500D03*
X110172500Y-37454500D03*
X157416500Y-34709100D03*
X157416500Y-37609100D03*
X157543500Y-51443300D03*
X157543500Y-54343300D03*
X157505400Y-69100700D03*
X157505400Y-72000700D03*
X157518100Y-85890100D03*
X157518100Y-88790100D03*
X110363000Y-77988500D03*
X110363000Y-80888500D03*
X110172500Y-63438700D03*
X110172500Y-60538700D03*
X110172500Y-46549900D03*
X110172500Y-43649900D03*
D19*
X153885900Y-42303700D03*
X153885900Y-38003700D03*
X153911300Y-59185700D03*
X153911300Y-54885700D03*
X153936700Y-76923900D03*
X153936700Y-72623900D03*
X153924000Y-93717000D03*
X153924000Y-89417000D03*
X114046000Y-77216000D03*
X114046000Y-72916000D03*
X113792000Y-55224900D03*
X113792000Y-59524900D03*
X113779300Y-38680500D03*
X113779300Y-42980500D03*
D17*
X121920000Y-40132000D03*
X119020000Y-40132000D03*
D18*
X122110500Y-60515500D03*
X122110500Y-57615500D03*
X122174000Y-63828000D03*
X122174000Y-66728000D03*
X86360000Y-88286000D03*
X86360000Y-91186000D03*
X89916000Y-88286000D03*
X89916000Y-91186000D03*
M02*
