M48
; DRILL file {KiCad (5.1.6)-1} date 06/22/20 15:28:15
; FORMAT={-:-/ absolute / inch / decimal}
; #@! TF.CreationDate,2020-06-22T15:28:15+05:30
; #@! TF.GenerationSoftware,Kicad,Pcbnew,(5.1.6)-1
; #@! TF.FileFunction,Plated,1,2,PTH
FMAT,2
INCH
T1C0.0250
T2C0.0400
T3C0.0600
%
G90
G05
T1
X2.89Y-3.42
X3.11Y-3.81
X3.11Y-3.88
X3.12Y-3.42
X3.21Y-3.42
X3.21Y-3.81
X3.21Y-3.88
X3.26Y-3.75
X3.3Y-4.05
X3.32Y-3.88
X3.4Y-4.05
X3.45Y-3.88
X3.5Y-4.05
X3.6Y-4.05
X3.7Y-3.42
X4.05Y-4.05
X4.1Y-3.42
X4.15Y-4.05
X4.18Y-3.6
X4.22Y-3.42
X4.25Y-4.05
X4.35Y-4.05
X4.36Y-3.42
X4.42Y-1.94
X4.49Y-1.94
X4.49Y-2.65
X4.5604Y-1.8327
X4.565Y-3.315
X4.6Y-1.58
X4.6Y-1.75
X4.6013Y-2.4787
X4.6213Y-3.2687
X4.63Y-3.4
X4.67Y-3.81
X4.68Y-2.57
X4.68Y-2.73
X4.68Y-2.91
X4.68Y-3.06
X4.76Y-1.86
X4.76Y-3.6
X4.78Y-2.08
X4.78Y-2.18
X4.8Y-4.05
X4.8675Y-1.8325
X4.9Y-2.06
X4.9Y-2.14
X4.9Y-2.22
X4.9Y-2.3
X4.9Y-4.05
X4.905Y-2.785
X4.905Y-3.105
X5.0Y-4.05
X5.03Y-2.57
X5.03Y-2.73
X5.03Y-2.91
X5.03Y-3.06
X5.07Y-3.2
X5.1Y-3.54
X5.1Y-4.05
X5.14Y-2.78
X5.14Y-3.27
X5.14Y-3.4
X5.15Y-2.99
X5.2216Y-2.7784
X5.23Y-3.32
X5.2995Y-2.7752
X5.32Y-3.7
X5.32Y-3.77
X5.3693Y-2.7807
X5.54Y-2.57
X5.55Y-3.46
X5.55Y-4.05
X5.6Y-2.57
X5.62Y-3.12
X5.65Y-4.05
X5.66Y-2.48
X5.66Y-2.57
X5.69Y-2.91
X5.69Y-2.98
X5.69Y-3.05
X5.69Y-3.12
X5.75Y-2.15
X5.75Y-4.05
X5.8Y-1.92
X5.84Y-1.84
X5.85Y-3.8
X5.85Y-4.05
X5.91Y-3.8
X5.94Y-3.51
X5.94Y-3.58
X5.94Y-3.65
T2
X4.905Y-3.74
X5.005Y-3.74
X5.105Y-3.74
X5.205Y-3.74
X5.42Y-3.74
X5.52Y-3.74
X5.62Y-3.74
X5.72Y-3.74
X3.1125Y-3.56
X3.1125Y-3.66
T3
X3.2265Y-2.0605
X3.2265Y-2.2605
X3.2265Y-2.4605
X6.4075Y-2.9575
X6.4862Y-2.7213
X6.4862Y-3.1937
X6.9825Y-2.7213
X6.9825Y-3.1937
X7.3175Y-3.415
X7.3175Y-3.615
X7.3175Y-3.815
X3.5695Y-2.7143
X3.5695Y-3.1867
X4.0658Y-2.7143
X4.0658Y-3.1867
X4.1445Y-2.9505
X7.3105Y-2.0625
X7.3105Y-2.2625
X7.3105Y-2.4625
X3.5635Y-2.0243
X3.5635Y-2.4967
X4.0598Y-2.0243
X4.0598Y-2.4967
X4.1385Y-2.2605
X3.2245Y-1.3945
X3.2245Y-1.5945
X3.2245Y-1.7945
X6.4025Y-2.2625
X6.4812Y-2.0263
X6.4812Y-2.4987
X6.9775Y-2.0263
X6.9775Y-2.4987
X3.2285Y-2.7505
X3.2285Y-2.9505
X3.2285Y-3.1505
X6.4075Y-3.6175
X6.4862Y-3.3813
X6.4862Y-3.8537
X6.9825Y-3.3813
X6.9825Y-3.8537
X7.3145Y-2.7585
X7.3145Y-2.9585
X7.3145Y-3.1585
X7.3105Y-1.4045
X7.3105Y-1.6045
X7.3105Y-1.8045
X3.5625Y-1.3613
X3.5625Y-1.8337
X4.0588Y-1.3613
X4.0588Y-1.8337
X4.1375Y-1.5975
X6.4004Y-1.6025
X6.4791Y-1.3663
X6.4791Y-1.8387
X6.9754Y-1.3663
X6.9754Y-1.8387
T0
M30
